<?xml version="1.0" encoding="UTF-8" standalone="no"?>
<!-- Created with Inkscape (http://www.inkscape.org/) -->

<svg
   viewBox="0 0 475.1206 117.52462"
   version="1.1"
   id="svg1"
   xml:space="preserve"
   xmlns="http://www.w3.org/2000/svg"
   xmlns:svg="http://www.w3.org/2000/svg"><defs
     id="defs1" /><g
     id="layer1"
     transform="translate(217.29699,-47.360529)"
     style="display:inline"><g
       id="acer-logo"
       style="display:inline"><g
         id="cherries"
         transform="matrix(1.1371882,0,0,1.1319158,-189.09783,217.47325)"
         style="display:inline"><path
           style="fill:#8b0000;fill-opacity:1"
           d="m 82.002762,-88.793591 c -1.39465,0.41141 -3.16303,0.31582 -3.86626,-0.20906 -0.90708,-0.67705 -1.64153,-1.44778 -1.59207,-1.6707 0.0232,-0.1042 0.80288,-0.47623 1.73276,-0.82674 2.01106,-0.75799 2.72532,-1.32906 1.1936,-0.95432 -0.59704,0.14624 -1.52686,0.34213 -2.06614,0.4358 l -0.98057,0.17018 0.43171,-0.75207 c 0.24318,-0.42366 1.0303,-1.14125 1.80255,-1.64334 4.04677,-2.63101 8.94839,-0.38671 6.69799,3.06683 -0.71344,1.09489 -1.93942,1.96617 -3.35358,2.38339 z"
           id="path189-8" /><path
           style="fill:#8b0000;fill-opacity:1"
           d="m 85.524022,-81.837251 c -1.39737,-0.40212 -2.83759,-1.43268 -3.14879,-2.25316 -0.40142,-1.05833 -0.6069,-2.10294 -0.44542,-2.26441 0.0755,-0.0755 0.933,0.0296 1.90562,0.23346 2.10345,0.44092 3.01266,0.34291 1.5194,-0.16379 -0.58208,-0.19752 -1.47166,-0.53154 -1.97684,-0.74227 l -0.91851,-0.38316 0.76812,-0.40246 c 0.4327,-0.22672 1.48209,-0.40917 2.40316,-0.41784 4.826665,-0.0454 7.75549,4.4806 4.0022,6.18473 -1.18991,0.54027 -2.69204,0.61663 -4.10894,0.2089 z"
           id="path189" /><path
           style="fill:#8b0000;fill-opacity:1"
           d="m 76.670732,-80.339791 c -1.92619,-1.01775 -2.9421,-2.81816 -2.63536,-4.67044 0.19933,-1.2037 0.55406,-2.03273 0.86976,-2.03273 0.11008,0 0.52828,0.66903 0.92931,1.48673 0.40104,0.8177 0.79007,1.42581 0.86453,1.35135 0.0744,-0.0744 -0.0613,-0.81184 -0.30165,-1.63863 -0.24035,-0.8268 -0.36597,-1.57431 -0.27915,-1.66113 0.30111,-0.3011 2.90638,0.47886 3.75075,1.12289 0.92206,0.7033 1.96118,2.58399 1.96118,3.54953 0,0.95505 -0.75803,2.30263 -1.48041,2.63177 -0.9315,0.42442 -2.74176,0.35586 -3.67896,-0.13934 z"
           id="path187" /></g><path
         id="tree-base"
         style="display:inline;fill:currentColor"
         d="m -217.29699,164.85453 c 0,-0.0896 2.58916,-4.09898 6.28357,-9.73038 3.45733,-5.27002 10.0907,-15.3903 13.64882,-20.82349 l 3.21865,-4.91483 2.21236,-1.38358 c 1.21679,-0.76097 2.25207,-1.34386 2.30062,-1.29531 0.0485,0.0485 -1.17229,2.16845 -2.71296,4.71091 -2.50106,4.12731 -7.6257,12.7648 -13.63264,22.97757 -1.14463,1.94604 -2.04616,3.5705 -2.00342,3.60991 0.0908,0.0837 2.94869,-0.27432 13.83604,-1.73315 11.03242,-1.47827 10.97457,-1.46684 13.42188,-2.65106 l 2.18854,-1.059 3.175,0.0255 c 1.74625,0.014 3.56879,-0.0953 4.05009,-0.24306 0.91058,-0.27948 2.71556,-1.28713 6.85916,-3.82921 2.85493,-1.75148 4.31869,-2.33305 7.72541,-3.0694 4.46887,-0.96593 4.73829,-1.91886 1.77456,-6.27657 -2.10116,-3.08944 -3.17093,-5.08519 -4.13036,-7.70556 -0.45448,-1.24127 -0.88743,-1.89147 -1.69759,-2.54943 -3.09459,-2.51323 -8.50936,-5.33036 -12.06773,-6.27845 -1.94687,-0.51873 -2.88867,-0.59836 -7.01146,-0.59283 -5.82272,0.008 -9.72892,0.66151 -12.60357,2.10916 -0.99165,0.49939 -1.91976,0.90798 -2.06246,0.90798 -0.38146,0 0.41094,-2.06806 1.17748,-3.07303 0.36094,-0.47323 0.65626,-0.90819 0.65626,-0.96657 0,-0.18707 -2.95497,0.30142 -5.93915,0.98181 -1.59304,0.36321 -2.93714,0.61969 -2.98688,0.56995 -0.0497,-0.0497 0.95087,-1.05814 2.22359,-2.24089 l 2.31403,-2.15044 -1.84069,-10e-4 c -3.02673,-0.002 -7.03956,-0.32956 -6.81338,-0.55573 0.26641,-0.26641 10.43155,-3.60917 11.69744,-3.84665 1.20295,-0.22567 0.8214,-0.39017 -2.68985,-1.15972 -2.56956,-0.56316 -3.11611,-0.87167 -1.98438,-1.12011 1.65593,-0.36351 7.76593,-2.12718 7.94397,-2.29304 0.1127,-0.10499 -0.0983,-0.63772 -0.46893,-1.18385 -0.79556,-1.17232 -1.98493,-3.47138 -1.98493,-3.83688 0,-0.25107 2.55521,0.54563 6.18306,1.92783 2.06641,0.78729 2.28303,0.82158 2.28508,0.36171 8.1e-4,-0.1819 0.12712,-0.78319 0.28068,-1.33619 l 0.27921,-1.00546 0.9214,0.80899 c 1.02294,0.89816 4.04408,2.51015 4.27384,2.28039 0.0807,-0.0807 -0.23353,-0.75865 -0.6984,-1.50647 -0.46486,-0.74781 -0.7926,-1.41225 -0.72832,-1.47654 0.0643,-0.0643 0.91485,0.12958 1.89012,0.43081 1.94221,0.59989 2.77583,0.68674 2.77583,0.28921 0,-0.41211 -1.17824,-1.10137 -4.30718,-2.51964 -2.40088,-1.08827 -3.10675,-1.54591 -3.97957,-2.580124 -0.58355,-0.69146 -1.01159,-1.30542 -0.95119,-1.36436 0.0604,-0.0589 1.12184,0.0579 2.35877,0.25972 1.23693,0.20179 2.94987,0.36927 3.80654,0.37218 l 1.55757,0.005 -0.13485,-1.65365 c -0.0749,-0.9185 -0.45073,-2.401535 -0.84539,-3.335955 -0.39081,-0.92528 -0.65326,-1.73962 -0.58323,-1.80965 0.24411,-0.24411 3.22364,1.98967 4.97079,3.726625 0.96798,0.96234 1.82356,1.74971 1.90129,1.74971 0.0777,0 1.13122,-0.66491 2.34108,-1.47759 l 2.19974,-1.477585 -2.83306,0.0885 c -2.77994,0.0869 -2.82666,0.0786 -2.49144,-0.44064 0.58419,-0.90486 2.76782,-2.21006 4.00884,-2.39617 1.38997,-0.20843 1.48536,-0.47678 0.37381,-1.05158 -1.30542,-0.67506 -2.76897,-2.1404 -3.2885,-3.29251 -0.26546,-0.58869 -0.43069,-1.12231 -0.36717,-1.18583 0.0635,-0.0635 1.12395,0.28389 2.35651,0.77201 1.23255,0.48813 2.62796,0.96749 3.10091,1.06525 0.85496,0.17673 0.85989,0.17176 0.85989,-0.86697 0,-0.5746 -0.28693,-1.92351 -0.63763,-2.99758 -0.3507,-1.07408 -0.60007,-1.99123 -0.55416,-2.03811 0.0459,-0.0469 0.5412,0.20751 1.10065,0.56532 1.11834,0.71526 2.05434,1.67497 3.01542,3.0918 0.70453,1.03861 1.22279,1.49534 1.90437,1.67827 0.67412,0.18093 0.5921,-0.0513 -0.72761,-2.06064 -0.65484,-0.99702 -1.19062,-1.84333 -1.19062,-1.8807 0,-0.11732 3.01712,0.71406 3.46896,0.95587 0.36002,0.19268 0.45771,0.0311 0.59739,-0.98795 0.0918,-0.67006 0.17885,-1.70769 0.19336,-2.30584 0.0145,-0.59816 0.10571,-1.37056 0.20268,-1.71646 0.16351,-0.58327 0.25844,-0.51182 1.30797,0.98439 0.62241,0.88731 1.36937,2.15066 1.65989,2.80745 l 0.52824,1.19416 1.37857,-0.90969 c 1.18336,-0.78087 3.56241,-1.61633 3.83278,-1.34597 0.048,0.048 -0.33571,1.16986 -0.85272,2.49297 -0.88906,2.27519 -1.12136,3.2108 -0.7972,3.2108 0.24547,0 2.33698,-1.10368 3.07065,-1.62037 0.61406,-0.43245 0.71921,-0.44272 0.85698,-0.0837 0.13256,0.34545 0.50804,0.38076 2.40891,0.22652 1.23853,-0.10049 2.25187,-0.10317 2.25187,-0.006 0,0.0972 -0.41672,0.54265 -0.92604,0.98984 -1.41255,1.24023 -1.2515,1.71142 0.6588,1.92754 0.87167,0.0986 1.91347,0.28677 2.31511,0.41812 0.40164,0.13134 1.26593,0.37626 1.92064,0.54427 l 1.19038,0.30546 -1.26602,0.64342 c -1.14076,0.57974 -1.45987,1.1568 -0.63611,1.15029 0.48153,-0.004 4.94533,1.68505 4.94533,1.87104 0,0.14323 -0.76603,0.2993 -4.71931,0.961485 l -0.88285,0.14788 1.26978,1.28916 c 0.69837,0.70905 1.11574,1.28917 0.92748,1.28917 -0.18826,0 -1.71691,-0.41672 -3.39701,-0.92604 -1.6801,-0.50933 -3.15301,-0.92604 -3.27313,-0.92604 -0.12012,0 -0.0499,0.55999 0.15611,1.24442 0.20599,0.68443 0.33098,1.28796 0.27777,1.34117 -0.0532,0.0532 -1.06087,-0.0442 -2.23925,-0.21653 -1.99383,-0.29153 -2.14251,-0.35706 -2.14251,-0.94429 0,-0.48918 -0.14232,-0.63102 -0.63315,-0.63102 -0.61242,0 -0.95435,0.43433 -0.95435,1.21226 0,0.23055 0.27331,0.37524 0.70882,0.37524 0.85645,0 2.46618,0.55279 2.46618,0.8469 0,0.11629 -0.38695,0.21305 -0.8599,0.21504 -1.91361,0.008 -2.04934,0.144804 -2.06214,2.077774 -0.006,0.96529 -0.11513,2.64805 -0.24165,3.73945 -0.12652,1.09141 -0.18475,2.03006 -0.1294,2.08589 0.0554,0.0558 0.84494,0.23468 1.75465,0.39744 l 1.65401,0.29593 -2.04216,1.03654 c -1.12319,0.5701 -2.04216,1.12553 -2.04216,1.23429 0,0.10875 0.57411,0.32086 1.2758,0.47134 1.26409,0.2711 7.42481,2.47938 8.22845,2.94945 0.2702,0.15805 -0.88998,0.24991 -3.28654,0.26022 l -3.70417,0.0159 1.19063,1.04255 c 1.10748,0.96973 1.14443,1.04236 0.52916,1.03993 -0.3638,-10e-4 -1.51697,-0.15278 -2.56259,-0.33634 -2.23887,-0.39301 -2.10265,-0.56689 -2.36908,3.02416 -0.10796,1.45512 -0.0512,2.7875 0.15769,3.70417 0.42517,1.86541 0.8679,3.15141 1.08492,3.15141 0.0954,0 0.74295,-0.43489 1.43908,-0.96643 3.8536,-2.94244 10.76047,-6.83652 14.15623,-7.98125 1.06249,-0.35817 1.62112,-0.73433 2.06997,-1.39384 0.71603,-1.05206 0.67208,-1.51646 -0.37349,-3.94598 -0.60087,-1.39623 -0.74182,-2.11802 -0.74914,-3.83646 -0.0112,-2.63574 0.60445,-4.0257 2.80467,-6.33178 l 1.532,-1.60572 0.53354,0.66146 c 2.0637,2.55851 2.56655,5.97837 1.28382,8.73125 -0.37293,0.80036 -1.3494,2.26873 -2.16992,3.26304 -1.42382,1.72538 -1.93716,3.08696 -1.16385,3.08696 0.18041,0 1.49013,-0.26208 2.91049,-0.5824 2.48845,-0.56119 2.60808,-0.62139 3.28617,-1.65364 0.38704,-0.58919 1.20374,-1.66656 1.81488,-2.39417 0.97811,-1.1645 1.13171,-1.52885 1.28276,-3.04271 0.35142,-3.52207 2.41742,-6.0659 6.73937,-8.298104 3.29394,-1.70125 3.31326,-1.69622 3.16406,0.823624 -0.26035,4.39693 -2.71417,7.29423 -7.55995,8.92627 -1.48485,0.50009 -1.97962,0.83169 -3.01497,2.02064 -0.68124,0.7823 -1.32457,1.76838 -1.42961,2.19129 l -0.19099,0.76892 1.26661,-0.17361 c 0.69663,-0.0955 2.11319,-0.18081 3.14791,-0.1896 l 1.8813,-0.016 2.83375,-3.12071 c 2.30939,-2.54325 3.16618,-3.29379 4.63021,-4.05605 2.81355,-1.4649 5.58996,-1.86107 8.59645,-1.22665 0.77115,0.16273 1.44063,0.33026 1.48774,0.37229 0.246033,0.21951 -0.87169,1.75416 -2.17607,2.98779 -2.66173,2.51736 -5.66004,3.38841 -9.89558,2.87481 l -2.24523,-0.27226 -1.06925,1.74166 c -0.97141,1.5823 -0.48372,0.90557 2.61943,1.42055 17.628591,2.92554 14.346315,3.42681 2.09762,1.46101 -3.46904,-0.55675 -9.41362,-0.77315 -12.80455,-0.17335 -1.22173,0.21611 -2.2762,0.44781 -2.34328,0.51489 -0.0671,0.0671 0.21514,0.78771 0.62715,1.60141 0.6098,1.2043 1.0171,1.63069 2.19005,2.29266 3.52414,1.9889 5.59403,4.96739 6.10192,8.78045 0.40958,3.07491 0.46019,2.92234 -0.90727,2.73491 -1.84265,-0.25256 -4.46582,-1.57588 -5.83204,-2.9421 -2.20128,-2.20128 -2.90168,-4.73367 -2.11402,-7.64352 l 0.4635,-1.71228 -0.62818,-1.12409 c -0.93256,-1.66874 -1.20628,-1.75772 -3.29643,-1.07157 -4.43547,1.45606 -8.75734,4.1647 -11.81228,7.4031 -3.17872,3.36961 -3.60141,5.43494 -1.81775,8.88178 1.16854,2.25814 3.07784,5.02591 4.63687,6.72172 1.5485,1.68435 2.6338,2.1404 5.50417,2.31288 4.53033,0.27223 5.46784,0.60341 8.93536,3.15656 3.6459,2.68448 5.40513,3.3963 10.45104,4.22868 1.45521,0.24005 3.12208,0.54219 3.70417,0.67141 0.58208,0.12922 3.49911,0.66816 6.48229,1.19764 2.98318,0.52948 11.713963,2.1487 19.401733,3.59827 7.68778,1.44957 14.08932,2.5984 14.22564,2.55296 0.13633,-0.0454 -0.15244,-0.73682 -0.64171,-1.5364 -5.50801,-9.00145 -13.53213,-22.7301 -13.80203,-23.6142 -0.18854,-0.6176 -0.64942,-1.93145 -1.02418,-2.91965 -0.37475,-0.98821 -0.58118,-1.73482 -0.45874,-1.65914 0.36041,0.22274 4.13444,5.49209 11.47647,16.02358 2.48552,3.56526 5.00394,7.15986 5.59649,7.988 0.59255,0.82814 1.73221,2.46786 2.53258,3.64381 0.80036,1.17596 2.42475,3.53448 3.60976,5.24117 1.4205,2.04585 2.03137,3.13175 1.793,3.18725 -0.19885,0.0463 -2.59715,-0.27757 -5.32955,-0.71972 -23.34779,-3.77771 -46.421883,-5.57468 -71.643003,-5.57909 -20.81576,-0.004 -38.43057,1.04577 -58.07604,3.45994 -5.14355,0.63208 -17.86873,2.42758 -21.10052,2.97726 -0.32743,0.0557 -0.59532,0.0632 -0.59532,0.0168 z m 85.06354,-12.55447 c 2.46277,-0.28187 5.40156,-0.93779 5.76268,-1.28618 0.11353,-0.10953 -0.66038,-0.52841 -1.7198,-0.93086 -3.8973,-1.48047 -7.7786,-3.12635 -8.93767,-3.79004 -3.1768,-1.81908 -6.59219,-4.89887 -9.60217,-8.65864 -2.13839,-2.67106 -2.29204,-2.62755 -0.985,0.27895 2.06559,4.59332 6.51048,9.30623 10.83258,11.48578 0.85538,0.43134 1.06955,0.64653 0.79375,0.79752 -0.34362,0.18813 -5.79195,1.02388 -9.58407,1.47015 -0.8434,0.0993 -1.46766,0.24625 -1.38725,0.32667 0.44719,0.44718 11.5863,0.67757 14.82695,0.30665 z m -26.32604,-31.27653 c 0.36381,-1.49056 0.66146,-2.82203 0.66146,-2.95882 0,-0.13679 -0.71437,-0.52503 -1.5875,-0.86275 -2.4225,-0.93704 -4.36562,-1.98101 -4.36562,-2.34551 0,-0.81156 -3.36821,-1.23539 -3.97806,-0.50057 -0.46385,0.5589 -0.0772,0.88248 1.34447,1.12518 l 1.16493,0.19887 -1.38234,0.57447 c -1.57549,0.65475 -1.70391,1.06883 -0.88473,2.85276 0.69487,1.51321 1.16929,1.84239 4.40932,3.0594 1.59185,0.59793 3.07377,1.19234 3.29315,1.32093 0.21938,0.12858 0.45841,0.23657 0.53117,0.23998 0.0728,0.003 0.42995,-1.21337 0.79375,-2.70394 z m -26.33486,-1.28906 c 0.16031,-0.14996 -0.10336,-0.59838 -0.7065,-1.20152 l -0.96226,-0.96226 -1.67475,0.34374 c -0.92111,0.18906 -1.85335,0.43746 -2.07163,0.55201 -0.45837,0.24053 -0.5141,0.21391 1.85209,0.8848 0.80036,0.22693 1.6338,0.53002 1.85208,0.67353 0.41162,0.27063 1.26637,0.12561 1.71097,-0.2903 z m 7.16483,-1.30808 c -1.94064,-0.95816 -2.27645,-1.03902 -4.31509,-1.03902 -2.4453,0 -2.50382,0.0992 -0.79043,1.34039 1.04359,0.75598 1.15187,0.77577 4.14077,0.75697 l 3.06916,-0.0193 z m 6.87984,-1.10517 c -0.10607,-0.9095 -0.17926,-2.10013 -0.16265,-2.64583 0.0166,-0.5457 -0.0917,-0.99219 -0.24077,-0.99219 -0.14903,0 -0.27097,0.23586 -0.27097,0.52413 0,0.33294 -0.21715,0.56624 -0.59531,0.63958 -4.29179,0.83234 -5.22552,1.04809 -5.22552,1.2074 0,0.15701 2.82957,1.54821 5.29166,2.60171 1.32003,0.56483 1.41307,0.46165 1.20356,-1.3348 z m 13.87769,-1.65364 c 0,-0.21828 -0.17859,-0.39688 -0.39687,-0.39688 -0.41317,0 -0.52493,0.31293 -0.22049,0.61736 0.30444,0.30444 0.61736,0.19268 0.61736,-0.22048 z m -0.26458,-2.37446 c 0,-0.45182 -1.30981,-1.19742 -2.10353,-1.19742 -0.60217,0 -0.67911,0.30834 -0.26841,1.07573 0.34619,0.64686 2.37194,0.7508 2.37194,0.12169 z m 3.54357,-6.64301 c 0.3849,-1.00305 0.0778,-1.73416 -1.62534,-3.86902 -2.44595,-3.066014 -4.05992,-4.042734 -5.63842,-3.412174 -0.46098,0.18414 -0.51311,0.26261 -0.18241,0.27459 0.25466,0.009 0.46302,0.0643 0.46302,0.12251 0,0.0582 -0.41672,1.184774 -0.92605,2.503574 -0.50932,1.31881 -0.92604,2.46185 -0.92604,2.54009 0,0.0783 1.78594,0.14227 3.96875,0.14227 2.18282,0 3.96728,0.0893 3.96548,0.19844 -0.002,0.10914 -0.41852,0.46742 -0.92604,0.79618 -0.50753,0.32876 -0.92277,0.71572 -0.92277,0.8599 0,0.14418 0.58257,0.26215 1.29461,0.26215 0.93644,0 1.33904,-0.11579 1.45521,-0.41851 z m -13.08601,-5.04004 c 0.88272,-0.38282 1.60494,-0.78069 1.60494,-0.88416 0,-0.10346 -0.48864,-0.33452 -1.08587,-0.51345 -0.59723,-0.17894 -1.23175,-0.381314 -1.41004,-0.449734 -0.29376,-0.11272 -0.94367,1.432304 -0.94367,2.243354 0,0.40071 -0.005,0.40176 1.83464,-0.39601 z m 14.53171,-0.48886 c 0.15143,-0.79355 -0.5314,-4.075204 -0.91402,-4.392754 -0.18508,-0.1536 -0.73125,-0.24139 -1.2137,-0.19508 -0.79665,0.0765 -0.89867,0.18661 -1.11135,1.19989 -0.28774,1.37086 0.10384,2.452744 1.23102,3.401204 0.90811,0.76412 1.86091,0.75783 2.00805,-0.0133 z m -11.34858,-3.031034 c 0.15064,-0.28148 0.27389,-0.62574 0.27389,-0.76502 0,-0.26497 -1.87735,-1.10446 -2.46989,-1.10446 -0.27443,0 -1.23427,1.53831 -1.23427,1.97814 0,0.0595 0.50601,0.15368 1.12448,0.20938 0.61846,0.0557 1.32865,0.12208 1.57819,0.14751 0.24954,0.0254 0.57696,-0.18408 0.7276,-0.46555 z m 6.72788,-0.17133 c 0.28867,-0.75226 0.17013,-1.43357 -0.24942,-1.43357 -0.45429,0 -1.97123,0.72769 -1.97123,0.94561 0,0.13644 1.55979,0.87603 1.88992,0.89612 0.0936,0.006 0.2424,-0.17797 0.33073,-0.40816 z m 49.96871,31.767194 c -4.40327,-0.95654 -7.30279,-4.11805 -7.89904,-8.61276 l -0.18383,-1.38578 2.1828,0.14961 c 4.9874,0.34184 8.39823,3.72371 8.93698,8.8611 l 0.14567,1.38906 -0.76462,-0.021 c -0.42054,-0.0116 -1.50862,-0.18266 -2.41796,-0.3802 z m -17.57678,-45.856749 c -3.00949,-3.88051 -7.77199,-10.04235 -10.58334,-13.69298 -9.24072,-11.99942 -10.91077,-14.13243 -11.0547,-14.11926 -0.17889,0.0164 -2.77875,3.17325 -9.14102,11.09948 -6.25606,7.79392 -6.82273,8.47607 -6.94203,8.35678 -0.0533,-0.0533 0.66281,-1.38982 1.59133,-2.97007 0.92852,-1.58024 2.22895,-3.82567 2.88985,-4.98983 4.37014,-7.698 11.6892,-20.23153 11.76822,-20.15251 0.0522,0.0522 1.2046,1.86939 2.56094,4.03827 1.35634,2.16887 6.48593,10.37278 11.39908,18.2309 4.91315,7.85813 9.88813,15.81139 11.05551,17.6739 1.16738,1.86252 2.07874,3.43014 2.02523,3.48359 -0.0535,0.0534 -2.55959,-3.07777 -5.56907,-6.95827 z" /></g><g
       id="wordmark"
       style="display:inline;fill:currentColor"
       transform="matrix(2.2889229,0,0,2.1909855,128.67903,-121.0416)"><path
         id="path234"
         style="display:inline;fill:currentColor"
         d="m -87.395267,109.81336 c 0.45411,-0.3821 1.06279,-1.15958 1.35264,-1.72771 0.64245,-1.25931 9.07339,-20.093239 10.85193,-24.242199 1.47538,-3.44174 1.43739,-3.90528 -0.39433,-4.81199 l -1.08592,-0.53753 3.09163,-2e-4 c 1.7004,-1.2e-4 3.38655,0.11191 3.747,0.24896 0.36045,0.13704 1.00736,0.76212 1.43759,1.38906 0.43022,0.62694 3.70537,6.97395 7.2781,14.10448 3.57274,7.130519 6.85136,13.491469 7.28582,14.135449 0.43446,0.64397 1.18816,1.38312 1.67489,1.64255 l 0.88497,0.47169 -3.47333,0.0111 c -2.47394,0.008 -3.54871,-0.0841 -3.73529,-0.31964 -0.14408,-0.1819 -1.42073,-2.62438 -2.837,-5.42774 l -2.57504,-5.097024 -8.10015,0.0699 -8.10015,0.0699 -2.18668,5.027094 c -1.20268,2.76489 -2.18913,5.1759 -2.19213,5.3578 -0.004,0.23292 -0.5592,0.33073 -1.87782,0.33073 h -1.87238 z m 22.49828,-12.122774 c 0,-0.0646 -1.6782,-3.470385 -3.72934,-7.568365 -2.36439,-4.72384 -3.82165,-7.35855 -3.98156,-7.19864 -0.20975,0.20976 -6.5766,14.537345 -6.5766,14.799615 0,0.0467 3.21469,0.0849 7.14375,0.0849 3.92906,0 7.14375,-0.0529 7.14375,-0.11751 z" /><path
         style="display:inline;fill:currentColor"
         d="m -10.128237,110.56546 c 0,-0.11688 0.3852397,-0.32643 0.8560797,-0.46566 0.48388,-0.14309 0.99983,-0.54073 1.18672,-0.91461 0.25155,-0.50322 0.33158,-3.93998 0.33455,-14.365679 l 0.004,-13.70421 -0.64943,-0.64943 c -0.35719,-0.35719 -0.89297,-0.64944 -1.19063,-0.64944 -0.29765,0 -0.5411897,-0.11906 -0.5411897,-0.26458 0,-0.17243 4.1010397,-0.26458 11.7739597,-0.26458 H 13.419782 v 2.38125 c 0,1.41111 -0.1078,2.38125 -0.26459,2.38125 -0.14552,0 -0.26458,-0.1905 -0.26458,-0.42334 0,-0.23283 -0.39322,-0.81655 -0.87383,-1.29716 -1.44869,-1.44869 -2.9002395,-1.71909 -9.2283595,-1.71909 h -5.5082298 v 6.63247 6.63247 l 6.0192698,-0.11414 c 3.3106,-0.0628 6.3467,-0.20377 6.7468795,-0.31331 l 0.7276,-0.19918 v 1.64921 c 0,1.826565 0.13528,1.761465 -1.9843695,0.955025 -0.81335,-0.30944 -2.26797,-0.40534 -6.28386,-0.41427 l -5.2255198,-0.0116 v 6.860774 6.86076 l 0.59532,0.0845 c 0.32742,0.0465 3.27421,0.0243 6.5484298,-0.0493 5.7507795,-0.12929 6.0041895,-0.15772 7.4551995,-0.83643 1.08366,-0.50689 1.71012,-1.01829 2.24896,-1.83591 0.68999,-1.04697 0.75211,-1.08403 0.81542,-0.48648 0.0377,0.35575 -0.085,1.53978 -0.27263,2.63119 l -0.34118,1.98437 -12.2289193,0.0688 c -6.72591,0.0378 -12.2289297,-0.0268 -12.2289297,-0.14372 z"
         id="path233" /><path
         style="display:inline;fill:currentColor"
         d="m 50.88317,110.75761 c -1.91984,-0.3216 -4.4907,-1.69814 -6.065597,-3.24776 -0.76432,-0.75206 -2.54829,-2.87847 -3.96439,-4.72535 -1.4161,-1.84689 -3.05287,-3.767264 -3.63728,-4.267494 -1.01836,-0.87158 -3.39882,-1.76714 -4.69743,-1.76714 -0.31788,0 -0.57796,-0.16299 -0.57796,-0.3622 0,-0.27499 0.65292,-0.39175 2.71198,-0.48495 3.06508,-0.13875 4.76162,-0.719695 6.21835,-2.129345 1.15214,-1.1149 1.91759,-3.2384 1.91759,-5.31978 0,-5.38388 -3.06956,-7.82525 -9.85573,-7.83871 l -2.31511,-0.005 0.004,13.82448 c 0.003,10.603529 0.0818,13.978589 0.33807,14.485929 0.1838,0.36381 0.74759,0.8641 1.25287,1.11177 0.89861,0.44047 0.80874,0.45032 -4.10838,0.45032 -4.91712,0 -5.00699,-0.01 -4.10838,-0.45032 0.50528,-0.24767 1.06908,-0.74796 1.25287,-1.11177 0.25587,-0.50647 0.33508,-3.79376 0.33807,-14.030189 0.004,-14.75474 0.0682,-14.18432 -1.67001,-14.9107 -0.75477,-0.31542 -0.31817,-0.37097 4.31974,-0.54964 8.7737,-0.33801 13.64499,0.34036 16.56779,2.30719 3.547967,2.38753 4.744247,6.77617 2.813877,10.32291 -1.1998,2.20441 -3.498307,3.801375 -6.452917,4.483385 l -1.33113,0.30726 1.34613,0.68214 c 1.85286,0.93892 3.31201,2.42844 5.939047,6.062704 1.23395,1.70704 2.79731,3.61415 3.47414,4.23803 1.33096,1.22684 3.34284,2.25607 5.02744,2.57193 0.97019,0.18191 1.00325,0.21428 0.39687,0.38867 -0.87839,0.25262 -3.51999,0.23375 -5.13442,-0.0367 z"
         id="path232" /><path
         style="display:inline;fill:currentColor"
         d="m -34.205317,110.99744 c -6.86309,-0.95415 -11.99164,-5.29317 -13.60173,-11.507744 -0.54283,-2.09519 -0.55337,-6.606665 -0.0203,-8.703615 2.01985,-7.94604 8.83328,-12.40615 18.24524,-11.94342 3.2752,0.16102 6.05315,0.73706 8.79431,1.8236 l 1.53147,0.60704 0.0757,2.57886 c 0.0417,1.41837 -0.0206,2.57886 -0.13827,2.57886 -0.1177,0 -0.44392,-0.42694 -0.72493,-0.94875 -1.18466,-2.19978 -4.5083,-4.46226 -7.49378,-5.10119 -5.57811,-1.19378 -10.8002,1.13787 -13.08253,5.84133 -1.45148,2.99123 -1.87889,5.40386 -1.71778,9.696375 0.18425,4.908774 1.14875,7.783164 3.44899,10.278624 2.47354,2.68348 4.76786,3.6241 8.78466,3.60151 3.08154,-0.0173 5.20973,-0.62118 7.46494,-2.1181 1.30683,-0.86743 3.77985,-3.38562 3.77985,-3.8489 0,-0.11164 0.17859,-0.20299 0.39688,-0.20299 0.32147,0 0.39687,0.4249 0.39687,2.23658 v 2.23658 l -1.25677,0.56095 c -5.02104,2.24111 -9.97019,3.01739 -14.88281,2.3344 z"
         id="path231" /><path
         style="display:inline;fill:currentColor;stroke-width:1.07051"
         d="m 22.941537,123.72889 v -4.69974 h 3.175001 3.175 v 0.75802 c 0,0.75241 -0.0176,0.75802 -2.38125,0.75802 h -2.381251 v 1.20057 1.20058 l 2.182811,0.088 c 2.03507,0.0822 2.18853,0.13424 2.26736,0.77028 0.082,0.66196 0.0172,0.68222 -2.18281,0.68222 h -2.267361 v 1.21284 1.21283 h 2.513541 c 2.50472,0 2.51354,0.002 2.51354,0.75803 v 0.75802 h -3.30729 -3.307291 z"
         id="path227" /><path
         style="display:inline;fill:currentColor;stroke-width:1.07051"
         d="m 8.1248675,123.72889 v -4.69974 h 3.3072895 3.30729 v 0.74664 c 0,0.73329 -0.0438,0.7482 -2.44739,0.83383 l -2.4473995,0.0872 -0.0821,1.13704 -0.0821,1.13703 h 2.2649295 c 2.23954,0 2.26493,0.008 2.26493,0.75803 0,0.74909 -0.0265,0.75801 -2.24896,0.75801 H 9.7123975 v 1.21284 1.21283 h 2.5135495 c 2.50472,0 2.51354,0.002 2.51354,0.75803 v 0.75802 h -3.30729 -3.3072995 z"
         id="path226" /><path
         style="display:inline;fill:currentColor;stroke-width:1.07051"
         d="m -6.1626323,123.72889 v -4.69974 h 3.30729 3.30728999 v 0.74664 c 0,0.73329 -0.0438,0.7482 -2.44738999,0.83383 l -2.4474,0.0872 -0.0808,1.2761 -0.0808,1.27612 2.19749,0.0883 c 2.03745999,0.0819 2.20354999,0.13711 2.28059999,0.75798 0.0793,0.63884 -0.0181,0.67371 -2.11665999,0.75802 l -2.19978,0.0884 -0.0794,1.74344 c -0.0777,1.70794 -0.0953,1.74346 -0.8599,1.74346 h -0.78054 z"
         id="path225" /><path
         style="display:inline;fill:currentColor;stroke-width:1.07051"
         d="m -20.450132,123.71972 v -4.70906 l 3.24115,0.0851 c 3.13387,0.0823 3.24394,0.10772 3.32569,0.76735 0.0826,0.66671 0.027,0.68222 -2.4474,0.68222 h -2.53194 v 1.35217 1.35218 l 2.18281,0.088 c 2.03507,0.0821 2.18854,0.13425 2.26736,0.77028 0.082,0.66196 0.0172,0.68223 -2.18281,0.68223 h -2.26736 v 1.81925 1.81925 h -0.79375 -0.79375 z"
         id="path224" /><path
         id="path222"
         style="display:inline;fill:currentColor;stroke-width:1.07051"
         d="m -34.573772,128.41836 c -0.90713,-0.31126 -1.92402,-1.34401 -2.43796,-2.47598 -0.58332,-1.2848 -0.47454,-3.61793 0.22358,-4.79519 1.68589,-2.84296 5.9548,-2.95728 7.66478,-0.20526 0.88285,1.42086 0.96057,3.99892 0.16171,5.3644 -1.12993,1.93137 -3.51868,2.83033 -5.61211,2.11203 z m 3.45691,-2.02502 c 0.73071,-0.54867 1.23703,-2.23483 1.01654,-3.38527 -0.51007,-2.66137 -4.03909,-3.30877 -5.24835,-0.96283 -1.6206,3.14398 1.52757,6.37867 4.23181,4.3481 z" /><path
         style="display:inline;fill:currentColor;stroke-width:1.07051"
         d="m -49.951172,128.51428 c -0.91416,-0.2545 -2.29006,-1.64026 -2.67391,-2.69305 -0.87274,-2.39371 -0.0818,-5.10807 1.81757,-6.23752 1.50218,-0.89325 3.51081,-0.87888 4.80021,0.0344 1.08342,0.76733 1.13566,0.94488 0.47854,1.62637 -0.43629,0.45248 -0.53232,0.44465 -1.25678,-0.10256 -2.37704,-1.79563 -5.25171,0.69065 -4.36371,3.77412 0.57891,2.0102 2.91724,2.78383 4.46095,1.4759 0.77248,-0.65449 0.7852,-0.6552 1.24719,-0.0703 0.43659,0.55286 0.43818,0.62723 0.0246,1.15093 -0.77343,0.97939 -2.95685,1.48097 -4.53466,1.0417 z"
         id="path221" /></g></g></svg>
