<?xml version="1.0" encoding="UTF-8"?>
<!-- Created with Inkscape (http://www.inkscape.org/) -->
<svg width="7.0394in" height="2.169in" version="1.1" viewBox="0 0 1600 492.98" xmlns="http://www.w3.org/2000/svg">
 <g transform="translate(-302.55 -206.15)">
  <g transform="translate(-519.95 231.09)">
   <g>
    <path d="m822.54 467.24c-0.20777-0.33618 0.43476-1.7965 1.4279-3.2452 0.9931-1.4486 4.9609-7.294 8.8173-12.99 3.8564-5.6957 8.0571-11.843 9.3349-13.661 2.33-3.315 7.4738-10.841 18.253-26.707 7.3547-10.826 19.947-29.22 29.328-42.843 4.0163-5.8322 9.2788-13.515 11.694-17.072 2.4156-3.5574 6.0231-8.7928 8.0167-11.634s6.837-9.8464 10.763-15.567c3.9261-5.7205 7.7558-10.637 8.5106-10.926 0.75477-0.28885 5.8116-2.705 11.237-5.3693 5.4258-2.6642 9.9449-4.8441 10.043-4.8441 0.69976 0-0.35008 1.9909-3.8148 7.2345-5.5098 8.3385-10.132 15.509-19.475 30.212-4.402 6.9277-9.47 14.894-11.262 17.702s-6.1737 9.8553-9.7366 15.66c-3.563 5.8042-7.5326 12.238-8.8215 14.298s-5.2499 8.4936-8.8024 14.298c-3.5525 5.8043-8.9917 14.689-12.087 19.745-8.7976 14.368-9.6381 15.816-9.3484 16.106 0.24681 0.24681 28.022-3.7538 43.015-6.1956 3.3702-0.5489 9.0383-1.4584 12.596-2.0211 6.0911-0.96352 9.8106-1.5284 27.234-4.136 3.9319-0.58846 10.06-1.5563 13.617-2.1508l6.4681-1.0808 4.0851-2.2583c2.2468-1.242 6.5362-3.1024 9.5319-4.134l5.4468-1.8758 25.872-0.1378 3.7447-1.5356c7.031-2.8833 8.5179-3.7091 17.702-9.8319 10.361-6.9073 21.608-13.719 25.183-15.252 6.1347-2.631 15.511-4.5857 25.485-5.3129l6.0724-0.44275 2.4382-1.2521c1.341-0.68863 2.9743-2.171 3.6296-3.2942l1.1915-2.0422v-3.1152c0-4.1137-1.3187-7.2463-7.3366-17.427-5.2698-8.9154-8.716-16.461-12.444-27.248-1.2295-3.5574-3.2079-8-4.3965-9.8723-3.101-4.885-10.922-11.963-17.485-15.823-14.877-8.7509-34.834-16.296-49.913-18.871l-6.1276-1.0463-19.745 0.00112-6.4681 1.0464c-3.5574 0.57553-8.3064 1.6157-10.553 2.3115-5.3153 1.6461-15.74 5.838-25.438 10.229-4.2549 1.9265-7.9064 3.3324-8.1145 3.1243-0.20811-0.20811 0.55929-3.212 1.7053-6.6752 1.146-3.4633 1.9708-6.4172 1.8328-6.5644-0.36182-0.38574-8.4299 2.4095-15.943 5.5236-16.146 6.6924-21.378 8.7243-21.964 8.5292-0.3462-0.1154 1.1463-2.4983 3.3167-5.2954 2.1704-2.7971 4.1134-5.2388 4.3178-5.426 0.98139-0.89914 6.1588-7.4409 6.1588-7.7817 0-0.21367-7.7947-0.38849-17.322-0.38849h-17.322l-0.4296-0.69512c-0.23629-0.38231 0.74138-1.1854 2.1726-1.7846 4.6221-1.9352 26.849-9.8024 36.304-12.85 5.0553-1.6293 11.788-3.873 14.961-4.9859l5.7695-2.0235-3.3866-0.4997c-10.228-1.5092-27.171-4.9414-27.373-5.5449-0.12819-0.38457 2.1524-1.5324 5.0679-2.5508 2.9156-1.0184 7.1393-2.5704 9.3861-3.4489 4.7012-1.8382 9.4041-3.4262 19.219-6.4898l6.9634-2.1736-10.803-11.653-2.4131-4.9486c-2.5021-5.1313-3.0266-7.4494-1.562-6.9038 0.46809 0.17438 2.0766 0.7055 3.5745 1.1803s3.9489 1.2583 5.4468 1.7411c19.433 6.2642 32.963 10.128 33.519 9.5727 0.12201-0.12201-0.52467-2.3323-1.4371-4.9117-1.8696-5.2856-3.3584-11.853-2.811-12.4 0.1996-0.19959 2.1208 0.33688 4.2694 1.1922 11.503 4.5791 13.825 5.4581 18.078 6.8463 2.5516 0.83279 4.7479 1.4055 4.8807 1.2727s-0.53268-3.8588-1.4788-8.28c-0.94614-4.4212-1.5695-8.1894-1.3852-8.3736 0.18427-0.18427 2.1323 0.65971 4.329 1.8755 2.1966 1.2158 5.3832 2.8967 7.0812 3.7353 4.0087 1.9799 14.923 6.3783 15.827 6.3783 0.3855 0 0.1172-0.65363-0.5962-1.4525-2.2859-2.56-8.1699-6.5934-15.294-10.484-3.8133-2.0825-8.5048-4.7975-10.426-6.0334-5.2955-3.4071-13.73-12.53-12.615-13.645 0.19294-0.19293 5.8479 1.0166 12.567 2.6878 6.7186 1.6712 13.484 3.0422 15.034 3.0467l2.8182 8e-3 2.9458-2.3854 0.5617-4.0839 0.5617-4.0839-0.8694-5.7872c-0.4782-3.183-1.6861-9.0979-2.6842-13.144-0.998-4.0464-1.7042-7.6884-1.5692-8.0934 0.2726-0.8181 12.483 12.041 18.675 19.667 2.1871 2.6937 4.1564 4.915 4.3763 4.9362 0.2199 0.0212 1.7181-1.2156 3.3293-2.7482l2.9294-2.7867 1.7772 0.35715c0.9774 0.19644 4.2282 0.98849 7.2239 1.7601 6.2736 1.6159 8.5188 1.7647 8.4908 0.56252-0.036-1.5574-8.3344-6.9202-18.276-11.812-5.4026-2.6581-9.5114-5.0254-9.1305-5.2609 1.0926-0.67526 12.848-2.4099 19.767-2.9168 3.4638-0.25378 6.2978-0.56298 6.2978-0.68711 0-0.2337-2.1923-5.0549-6.31-13.877-4.0127-8.5966-5.4689-12.278-5.0306-12.716 0.2306-0.23063 1.5745 0.34098 2.9864 1.2702 1.4118 0.92927 6.0904 3.6231 10.397 5.9862s8.643 4.8647 9.637 5.559 1.966 1.2624 2.16 1.2624 0.7171-1.1489 1.1625-2.5532c1.2532-3.9517 6.8632-13.987 7.4583-13.342 0.292 0.31663 1.3305 3.7212 2.3078 7.5656 0.9772 3.8445 2.6735 8.7664 3.7696 10.938l1.9928 3.9478 2.6223 1.7353c3.7883 2.507 8.3732 4.76 9.1558 4.4991 0.6209-0.20695-8.5698-19.206-10.298-21.289-0.4166-0.50194-0.5128-1.0536-0.2137-1.226 0.299-0.17236 3.5366 0.29055 7.1945 1.0287 3.658 0.73814 7.0479 1.1897 7.533 1.0036l0.8821-0.33849 1.1605-9.4316c0.6383-5.1874 1.2315-10.174 1.3181-11.08 0.2101-2.1979 1.4501-2.5047 2.3509-0.5816 0.6833 1.4589 11.504 16.95 13.063 18.7l0.7214 0.81016 9.5383-4.5031c5.2461-2.4767 9.6958-4.3456 9.8882-4.1532 0.1925 0.19245-0.4243 2.7734-1.3706 5.7355-0.9463 2.962-2.6796 8.6026-3.8519 12.534-1.1722 3.9319-2.687 8.4511-3.3661 10.043l-1.2349 2.8936h0.7218c0.3969 0 1.6729-0.67729 2.8355-1.5051 2.9305-2.0867 16.957-9.4783 17.312-9.123 0.1595 0.15955 0.4654 3.2289 0.6797 6.8208l0.3896 6.5307 1.4319-3e-3c0.7875-2e-3 4.1893-0.44341 7.5595-0.98201 6.8126-1.0887 19.404-2.1156 19.404-1.5824 0 0.18856-2.0095 3.3274-4.4656 6.9752-2.456 3.6478-4.3709 6.7267-4.2553 6.842s5.1124 1.3303 11.104 2.6999c13.287 3.0373 13.277 3.0344 13.277 3.7029 0 0.29696-5.8207 2.4876-12.935 4.8682l-12.935 4.3282 2.9626 3.086c4.1458 4.3184 7.4871 8.1348 8.1559 9.3156l0.5677 1.0024-2.6103-0.43564c-1.4357-0.2396-8.0553-1.4838-14.71-2.765-6.655-1.2811-12.4-2.3293-12.766-2.3293h-0.666v4.766c0 2.6213-0.2957 4.766-0.6572 4.766-0.3614 0-1.6635-0.84256-2.8936-1.8723-5.0535-4.2308-10.175-7.1495-13.99-7.9731l-2.2222-0.47969-5.9822 2.8959-2.0526 4.3653-0.8119 11.915c-0.4466 6.5532-0.9649 13.946-1.1518 16.428l-0.3398 4.5133 4.3833 0.76331c2.4108 0.41982 5.6422 0.76332 7.1809 0.76332 2.5848 0 4.7424 1.3076 3.0748 1.8635-1.4621 0.48737-15.413 10.073-15.62 10.732-0.2095 0.66686 4.1999 2.9538 13.721 7.1168 8.0897 3.537 27.508 13.28 27.542 13.819 0.05 0.79399-3.9003 0.61775-17.954-0.8009-18.881-1.906-22.184-2.1709-22.184-1.7797 0 0.193 1.9691 3.0139 4.3757 6.2686 4.5972 6.2171 6.2553 8.8972 5.7813 9.3448-0.1566 0.14789-2.4294-0.29357-5.0507-0.981-2.6212-0.68744-5.4023-1.2676-6.1801-1.2891l-1.4143-0.0393-0.7985 4.3338c-0.4392 2.3836-0.7985 6.4708-0.7985 9.0826 0 4.9572 1.8751 13.607 3.7256 17.185l1.0782 2.0851 7.6407-5.1269c4.2023-2.8198 8.5597-5.7048 9.6831-6.4111s5.524-3.4695 9.779-6.1405c10.1-6.3401 23.314-13.171 35.067-18.127l9.4418-3.9818 1.0449-1.5947c0.5747-0.87708 1.1815-3.0326 1.3485-4.79l0.3036-3.1953-2.7386-6.8085c-1.5062-3.7447-3.0946-8.7946-3.5298-11.222-1.682-9.3832 1.8254-22.358 8.3774-30.991 3.2185-4.2405 12.231-13.248 12.864-12.857 0.7326 0.45281 4.4354 8.3676 6.1741 13.197l1.3481 3.7447 0.3435 7.603 0.3435 7.603-1.5081 4.9928c-1.8579 6.1508-6.1561 13.37-11.842 19.889-3.9375 4.5148-7.3318 10.773-6.3665 11.738 0.3177 0.31774 20.7-3.689 25.184-4.9507 0.6648-0.18706 2.2386-2.3851 3.4973-4.8845s4.6211-7.2124 7.4721-10.473l5.1835-5.9289v-4.7522c0-6.0017 1.5551-12.772 4.064-17.693 2.9684-5.8222 8.8495-12.426 14.801-16.62 4.6107-3.2493 17.004-9.6686 21.296-11.031l1.3715-0.43529v6.5498c0 8.0871-1.4531 14.792-4.6504 21.457l-2.4495 5.1064-4.1284 4.1669c-6.0072 6.0633-11.849 9.4816-22.66 13.258l-4.2712 1.4922-3.9831 4.4987c-4.5123 5.0965-9.8028 13.116-9.0688 13.746 0.2684 0.23057 4.7773 0.0287 10.02-0.44859 5.2425-0.47729 11.371-0.89061 13.618-0.9185l4.0863-0.0507 1.7009-3.2243c0.9355-1.7734 3.8599-5.3734 6.4986-8 2.6388-2.6266 5.5233-6.0013 6.4101-7.4991 3.4263-5.7874 6.6626-9.4097 10.92-12.223 5.4212-3.582 9.2741-5.296 15.393-6.8477l4.6925-1.1901 11.234 0.439c10.633 0.41554 16.569 1.0994 17.484 2.0144 0.9562 0.95614-9.4371 12.951-15.101 17.428-7.1624 5.6614-14.487 8.2674-26.034 9.2622l-5.6085 0.48319-12.779-1.7546-2.3936 1.4793c-2.4569 1.5185-7.993 8.116-7.993 9.5255v0.78818h3.0906c14.394 0 42.284 6.0301 46.952 10.152 1.6362 1.4446 3.6225 2.2396 11.234 4.4961 3.183 0.94363 6.3235 1.8843 6.9788 2.0904 2.3949 0.75316 1.0992-0.81545-2.383-2.8849-3.2604-1.9376-8.0805-3.6704-12.936-4.6504-1.0298-0.20784-1.8723-0.63191-1.8723-0.94237 0-0.75373 4.3249-2.595 8.3937-3.5735l3.2873-0.79055 10.447 0.78989 5.0873 2.5929 5.0872 2.5929 4.0784 6.093 0.2523 4.1024 0.2524 4.1024-1.6132 2.383c-2.0359 3.0074-7.362 5.9389-11.783 6.4853-4.6723 0.57749-12.239-0.7594-16.056-2.8367-3.758-2.0453-7.973-5.9829-8.9847-8.3934-0.3979-0.9478-0.901-3.4001-1.118-5.4496l-0.3946-3.7263-3.1995-1.185c-5.4052-2.0019-16.632-3.9414-27.392-4.732l-10.259-0.75384-27.234 0.77648-7.314 1.351c-5.9045 1.0906-11.25 2.4488-12.632 3.2096-0.3022 0.1663 3.8399 7.1061 5.7602 9.6511l1.68 2.2264 4.2103 1.9316c2.3156 1.0624 6.0677 3.4307 8.3379 5.2629 6.2356 5.0326 9.6659 9.3083 13.228 16.489l2.0213 4.074 2.0604 12.726-0.7909 7.4894c-0.4351 4.1192-1.0106 7.7452-1.279 8.0579-1.2197 1.4211-15.256-7.9385-21.751-14.504-5.5685-5.6289-9.5988-11.881-11.425-17.725l-1.1705-3.7447 0.088-5.4468c0.048-2.9957 0.537-7.3333 1.0858-9.6391l0.9978-4.1923-3.3867-5.8503c-1.8627-3.2176-3.7943-5.8502-4.2924-5.8502-2.5625 0-20.193 6.4929-27.326 10.064-13.96 6.9882-29.803 18.88-37.08 27.833-4.6452 5.7148-5.6505 7.6456-6.7481 12.96l-0.8598 4.1626 0.8702 3.8885c1.0921 4.8796 5.9318 14.403 12.622 24.837 9.7595 15.221 12.663 18.463 18.493 20.652l3.3241 1.2482 8.5106 0.5927c9.0046 0.6271 14.164 1.7528 20.133 4.3925 4.2228 1.8675 11.699 6.5968 16.789 10.62 6.7261 5.3167 19.288 10.634 29.705 12.574 2.8614 0.53281 7.5004 1.4431 10.309 2.0229 2.8085 0.57977 12.613 2.4048 21.787 4.0557 37.072 6.6708 93.8 17.581 111.66 21.475 3.5574 0.77566 10.451 2.1495 15.319 3.0529 8.302 1.5407 15.257 2.9566 26.553 5.4056 5.5394 1.2009 6.4681 1.2688 6.4681 0.47254 0-0.80514-12.038-23.702-16.338-31.075-0.6551-1.1234-2.6483-4.8-4.4292-8.1702-4.3695-8.2688-8.4576-15.741-13.782-25.191-1.6878-2.9958-4.6014-8.2043-6.4745-11.574-1.8732-3.3702-5.2448-9.2802-7.4926-13.133-4.1433-7.1025-5.3259-9.8484-7.0444-16.358-0.5254-1.9901-2.3787-7.2803-4.1185-11.756-4.4497-11.448-3.2598-11.717 4.1994-0.95056 2.2417 3.2355 5.5593 7.9259 7.3724 10.423 3.5301 4.8618 10.156 14.592 22.564 33.136 4.2594 6.366 8.6352 12.8 9.724 14.298s6.7192 9.7702 12.512 18.383c38.603 57.396 45.76 68.17 46.07 69.355l0.3473 1.3281-1.6394-0.4593c-0.9017-0.25262-4.7033-0.90708-8.448-1.4544-3.7447-0.54729-12.936-1.9046-20.426-3.0162-30.056-4.461-36.581-5.3522-57.872-7.9038-4.4936-0.53852-11.847-1.4438-16.34-2.0116-10.305-1.3023-22.667-2.7665-34.042-4.032-4.8681-0.54159-11.609-1.2956-14.979-1.6756-30.074-3.391-68.305-6.2001-103.49-7.6042-10.111-0.40346-20.221-0.89646-22.468-1.0955-2.2469-0.19909-25.226-0.51752-51.064-0.70764l-46.979-0.34566-21.106 0.74921c-26.505 0.94086-55.87 2.4512-73.532 3.7821-27.862 2.0995-54.018 4.4545-64.34 5.793-5.7192 0.74162-19.983 2.4591-28.255 3.4022-2.9957 0.34154-9.1234 1.1121-13.617 1.7124-4.4936 0.60026-11.54 1.5247-15.66 2.0544-4.1192 0.52965-11.779 1.6082-17.021 2.3968-5.2426 0.78861-11.37 1.6969-13.617 2.0184-2.2468 0.32149-10.519 1.6975-18.383 3.0579-7.8638 1.3604-17.155 2.9126-20.646 3.4494-3.4915 0.53683-6.6108 1.1383-6.9317 1.3367-0.32092 0.19834-0.7535 0.0856-0.96127-0.25062zm353.22-54.914c11.046-0.98025 20.132-2.6057 26.981-4.8272 3.2944-1.0685 5.2629-2.0917 4.7463-2.4671-0.7596-0.55183-8.7244-3.5332-21.087-7.8931-12.647-4.4602-22.773-8.9954-28.869-12.93-7.0369-4.5413-16.092-11.788-22.994-18.402-7.0442-6.75-16.323-17.569-21.112-24.616l-2.082-3.0638 0.4662 2.0426c0.744 3.26 8.084 17.883 11.961 23.83 3.9767 6.0995 9.2332 12.262 16.125 18.903 6.8915 6.6412 8.9372 8.3189 13.104 10.747 2.0815 1.2129 4.5505 2.7099 5.4867 3.3266s3.6201 2.019 5.9642 3.1161 4.1577 2.3102 4.0302 2.6957-2.3518 1.0417-4.9429 1.4581-7.4685 1.2483-10.839 1.8486-11.777 1.722-18.682 2.4925-12.686 1.5322-12.846 1.6927c-0.6244 0.62444 3.5464 0.99198 19.614 1.7284 9.1745 0.42049 17.294 0.85522 18.042 0.96608 3.0248 0.44775 5.7713 0.34267 16.934-0.64787zm-87.006-125.6c0.5552-2.434 1.6518-6.0431 2.4369-8.0202l1.4274-3.5946-1.2788-1.4161c-2.6094-2.8896-9.7101-8.0892-14.786-10.827-8.0533-4.3439-15.631-5.8574-19.805-3.9557l-1.7165 0.7821-2.2672 5.9365 0.3743 3.5688c0.5192 4.9509 2.9927 11.177 5.5211 13.898l2.1238 2.2853 7.1562 2.9399c3.9359 1.617 9.7572 4.3539 12.936 6.0822l5.7799 3.1422 0.5441-3.198c0.2992-1.7589 0.9982-5.1895 1.5534-7.6235zm-52.576-8.6808c0.1851-0.65532 0.5443-2.5244 0.7982-4.1536l0.4615-2.9621-3.4765-3.264c-1.9122-1.7952-5.5681-4.693-8.1243-6.4396l-4.6477-3.1756-8.1173 2.1478c-4.4646 1.1813-8.5528 2.195-9.085 2.2528l-0.9676 0.1049 0.1659-3.9149 0.1659-3.9149h-0.8599c-0.4729 0-3.3941 0.82529-6.4914 1.834l-5.6315 1.834 0.82501 0.99491c1.8888 2.2778 9.7538 7.6561 14.987 10.248 3.0864 1.5289 10.814 4.2863 17.172 6.1274s11.769 3.3756 12.025 3.4098c0.2556 0.0342 0.6162-0.47394 0.8013-1.1293zm-46.713-6.0624c0.84255-0.21069 1.5319-0.64221 1.5319-0.95893s-1.4553-1.697-3.234-3.0672l-3.234-2.4914-6.8085 0.43197c-9.7864 0.6209-13.957 1.1843-13.957 1.8854 0 0.33754 2.2213 1.698 4.9362 3.0234l4.9362 2.4097 7.1489-0.42486c3.9319-0.23368 7.8383-0.59725 8.6808-0.80794zm108.88-9.8794 0.3696-1.8142-3.8493-0.48094c-2.1171-0.26452-4.0296-0.30067-4.2499-0.0803-0.3778 0.37781 1.9368 7.3922 3.3947 10.288l0.6708 1.332 1.6472-3.715c0.906-2.0433 1.8136-4.5314 2.0169-5.5292zm-56.701 1.0776c0.5299-1.3809 0.5424-10.498 0.014-10.498-0.3418 0-7.7134 1.756-10.354 2.4664-0.4843 0.13028 1.354 2.2175 4.0851 4.6382 2.731 2.4208 5.1626 4.4168 5.4033 4.4356 0.2408 0.0188 0.6238-0.45038 0.8511-1.0427zm63.447-40.527c-0.6078-4.5815-3.2378-11.462-5.8108-15.202-1.137-1.6525-3.2176-3.9534-4.6237-5.1132-2.6503-2.1861-8.7239-4.8044-11.144-4.8044-1.9128 0-19.588 5.9702-21.825 7.372-1.6509 1.0345-6.6935 6.9907-6.6935 7.9063 0 0.827 6.3204 0.31281 11.361-0.92429 8.3451-2.048 15.423-3.9432 16.724-4.478l1.1915-0.48976v17.822l1.532 0.34947c1.5755 0.35941 6.8474 0.67678 15.066 0.90699l4.6835 0.13119zm9.4163-17.083c0.9697-1.9459 1.763-4.4841 1.763-5.6404v-2.1025l-2.2127-1.2707c-3.6321-2.0857-8.0625-5.9046-8.8466-7.6254-0.4035-0.88567-0.9486-1.6103-1.2112-1.6103s-0.9581 2.3745-1.5456 5.2766l-1.0681 5.2766 1.7248 2.6443c2.6732 4.0982 7.0756 8.5898 8.4193 8.5898h1.2141zm-44.676-11.029c1.7698-0.89685 3.943-2.2178 4.8293-2.9354l1.6113-1.3048-0.8356-1.3199c-0.4596-0.72593-1.9369-2.1706-3.2828-3.2105l-2.4472-1.8906-1.1501 1.2097c-0.6325 0.66536-1.7718 2.8948-2.5317 4.9544-0.7599 2.0596-1.594 4.2808-1.8536 4.9362l-0.4719 1.1915h1.4572c0.8014 0 2.9052-0.73378 4.6751-1.6306zm26.26-0.0715c0.9734-2.5367-0.9766-3.7185-6.1634-3.7354-3.0097-0.01-4.4169 0.92113-2.4156 1.598 0.6512 0.2202 2.5626 0.98922 4.2477 1.7089 3.8685 1.6523 3.862 1.6516 4.3313 0.42849zm21.871-6.2979 0.4704-2.8936h-9.2301l3.7041 3.3426c2.0373 1.8384 3.9024 3.1405 4.1447 2.8936s0.6523-1.7511 0.9109-3.3426zm-73.886-3.8856 0.8232-0.99196-3.771-2.4123c-2.074-1.3268-3.9741-2.4123-4.2224-2.4123-0.5668 0 1.4726 3.2429 3.3182 5.2766 1.6136 1.778 2.6983 1.9301 3.852 0.53995zm266.92 142.29c-13.888-4.7387-20.142-8.2309-26.032-14.535-4.4684-4.7836-7.1423-9.2218-8.6882-14.421-1.3164-4.427-3.052-16.928-2.4359-17.544 0.1793-0.17933 3.4808 0.47323 7.3367 1.4501l7.0106 1.7762 13.655 6.7272 4.5222 4.1437c4.7688 4.3698 9.1119 10.584 10.971 15.697 1.3146 3.6158 3.1919 13.471 3.1919 16.756v2.3078l-1.5319-0.0756c-0.8426-0.0416-4.4426-1.0687-8-2.2825zm35.223 1.6155c-5.779-1.3576-11.4-5.7143-13.935-10.8l-1.2036-2.4154 0.024-5.4468 0.024-5.4468 1.592-3.5745c0.8756-1.966 1.9503-3.5745 2.3882-3.5745s1.1843 1.4553 1.6586 3.234c1.1035 4.1385 3.4498 8.8543 4.6307 9.3075l0.917 0.35188v-1.2861c0-0.70735-0.9389-3.9461-2.0864-7.1972-1.1475-3.2511-1.9272-6.0703-1.7327-6.2648 0.6863-0.68637 9.6524 1.3957 13.202 3.0658l3.5955 1.6917 5.411 6.1472 1.0181 3.4284c1.959 6.5966 0.9846 11.934-2.841 15.563-3.1533 2.9912-8.1815 4.2682-12.662 3.2157zm26.394-23.724c-5.3675-1.3067-10.415-5.0654-12.877-9.5884l-1.8627-3.4224-0.7506-7.2728 0.6599-0.40786c0.363-0.22432 4.1193 0.49974 8.3473 1.609 4.2281 1.1093 8.2965 2.0169 9.041 2.0169h1.3536l-0.7856-0.94665c-1.0968-1.3215-6.4732-3.5139-11.126-4.5369-2.1532-0.47344-3.9149-1.2332-3.9149-1.6884 0-0.45515 2.1593-1.5218 4.7984-2.3704l4.7984-1.5429 9.9058 0.74917 4.3764 1.9911 4.3763 1.9911 2.471 2.7476c1.3591 1.5112 2.8458 3.8829 3.3037 5.2706l0.8327 2.523-0.9246 6.1659-5.7592 5.7592-3.1569 0.79491c-3.4441 0.86722-9.876 0.94489-13.107 0.15827zm-112.47-144.74c-1.4267-2.0684-4.2313-5.9748-6.2323-8.6808-2.001-2.7061-6.5732-9.0563-10.16-14.112s-8.4101-11.796-10.718-14.979c-4.3301-5.9725-41.323-57.982-44.938-63.181-1.119-1.609-3.8728-5.5957-6.1196-8.8593-3.5532-5.1612-8.456-12.117-17.637-25.023-1.3155-1.8493-4.5935-6.656-7.2845-10.682-2.6909-4.0255-5.1022-7.3191-5.3584-7.3191s-3.9651 4.9048-8.2421 10.899c-27.172 38.085-37.353 51.557-54.023 71.484-2.0362 2.434-5.8822 7.183-8.5467 10.553-4.797 6.0677-6.1428 7.3336-6.1428 5.7786 0-0.88121 5.8415-11.971 7.1682-13.608 0.4551-0.5617 1.8335-2.8596 3.0631-5.1064s9.0451-15.574 17.368-29.617c8.3227-14.043 15.747-26.604 16.498-27.915 3.1789-5.5477 14.201-24.517 16.616-28.596 1.441-2.434 3.4595-5.8965 4.4856-7.6944 4.2856-7.5092 10.885-17.78 11.57-18.009 0.4059-0.13528 3.3886 4.1372 6.6281 9.4945 3.2396 5.3573 7.8226 12.804 10.184 16.549 3.6694 5.818 17.589 28.729 31.015 51.048 6.1592 10.239 8.8575 14.812 20.1 34.058 5.9059 10.111 14.324 24.511 18.706 32 4.3826 7.4894 8.7315 14.996 9.6643 16.681 3.9966 7.2202 13.159 22.999 14.621 25.179 1.7155 2.5585 1.954 3.4164 0.9496 3.4164-0.352 0-1.8073-1.6923-3.234-3.7607z"/>
    <path d="m1373.6 305.18c-3.8372-0.90355-6.6251-2.4894-9.8567-5.6066l-2.9001-2.7975-1.3552-3.6221c-0.7454-1.9921-1.3552-4.6829-1.3552-5.9795v-2.3574h1.739c0.9564 0 4.4632 0.76595 7.7929 1.7021 3.3296 0.93617 6.9131 1.6919 7.9631 1.6795l1.9092-0.0226-1.5598-1.3006c-1.8824-1.5695-7.9872-3.924-11.724-4.5214-1.494-0.2389-2.7164-0.81636-2.7164-1.2832 0-0.46688 2.1593-1.5432 4.7985-2.3918l4.7984-1.5429 10.06 0.7608 4.3856 2.0931c2.4121 1.1512 5.4754 3.2993 6.8073 4.7736 2.3127 2.5599 3.8793 6.3165 3.8553 9.245-0.02 2.4578-2.5124 6.933-4.857 8.7213-3.7969 2.896-11.427 3.9474-17.785 2.4504zm-27.758 24.333c-4.361-0.98219-8.4541-3.7197-11.466-7.6689-2.7807-3.6458-3.862-7.5637-3.4264-12.415 0.3661-4.0785 3.001-11.043 4.0461-10.695 0.3523 0.11742 1.2236 1.9407 1.9363 4.0517 2.1823 6.4644 5.4041 10.939 5.4041 7.506 0-0.66847-0.7825-3.5025-1.7389-6.2979-0.9564-2.7954-1.9113-5.6186-2.122-6.274l-0.3831-1.1915 0.9305 0.0118c2.6756 0.034 10.383 2.1401 13.369 3.6531 9.9317 5.0328 13.65 18.673 7.0434 25.84-2.2571 2.449-3.4468 3.0828-7.0489 3.7558l-2.9056 0.54284zm-14.795-39.882c-3.8372-0.90355-6.6251-2.4894-9.8567-5.6066l-2.9001-2.7975-1.3552-3.6221c-0.7454-1.9921-1.3552-4.6829-1.3552-5.9795v-2.3574h1.739c0.9564 0 4.4632 0.76595 7.7929 1.7021 3.3296 0.93617 6.9131 1.6919 7.9631 1.6795l1.9092-0.0226-1.5598-1.3006c-1.8824-1.5695-7.9872-3.924-11.724-4.5214-1.494-0.2389-2.7164-0.81636-2.7164-1.2832 0-0.46688 2.1593-1.5432 4.7985-2.3918l4.7984-1.5429 10.06 0.7608 4.3856 2.0931c2.4121 1.1512 5.4754 3.2993 6.8073 4.7736 2.3127 2.5599 3.8793 6.3165 3.8553 9.245-0.02 2.4578-2.5124 6.933-4.857 8.7213-3.7969 2.896-11.427 3.9474-17.785 2.4504z" fill="#b91819"/>
   </g>
   <path d="m1666.3 370.45h4.0312v44.531h-4.0312c-1.125-5.0625-3.1563-9.5312-6.0938-13.406-11.188 12.625-25.469 18.938-42.844 18.938-18.375 0-33.406-5.8125-45.094-17.438-11.625-11.625-17.438-27-17.438-46.125 0-12.562 2.6875-24.375 8.0625-35.438 5.375-11.125 12.875-19.375 22.5-24.75s20.188-8.0625 31.688-8.0625c9.5 0 18.094 1.9688 25.781 5.9062 7.75 3.875 13.531 8.1875 17.344 12.938 2.6875-5.3125 4.3125-10.812 4.875-16.5h4.125l1.125 48.188h-4.0312c-2.8125-17.125-8.5625-29.031-17.25-35.719-8.625-6.6875-18.375-10.031-29.25-10.031-13.312 0-23.906 5.4062-31.781 16.219-7.8125 10.812-11.719 26.281-11.719 46.406 0 19.062 4.2812 33.688 12.844 43.875 8.5625 10.125 19.219 15.188 31.969 15.188 6.8125 0 13.781-1.6562 20.906-4.9688s12.75-8.9062 16.875-16.781c4.1875-7.9375 6.6563-15.594 7.4063-22.969zm46.531-16.688c0-19.625 6.5625-35.375 19.688-47.25s29.5-17.812 49.125-17.812c19.812 0 36.344 5.875 49.594 17.625 13.312 11.75 19.969 27.781 19.969 48.094 0 19.688-6.375 35.625-19.125 47.812-12.688 12.188-29.406 18.281-50.156 18.281-20.188 0-36.75-6.0938-49.688-18.281s-19.406-28.344-19.406-48.469zm21.469 0.65625c0 20.438 4.0625 35.781 12.188 46.031 8.1875 10.25 20.438 15.375 36.75 15.375 14.312 0 25.625-5.125 33.938-15.375s12.469-25.531 12.469-45.844c0-19.75-4.0937-34.875-12.281-45.375-8.1875-10.562-20.062-15.844-35.625-15.844-15.312 0-27.062 5.1562-35.25 15.469-8.125 10.25-12.188 25.438-12.188 45.562zm250.81-63.375 1.0312 31.688h-4.4062c-0.875-6.9375-2.8438-12.656-5.9063-17.156-3-4.5625-6.1562-7.4062-9.4687-8.5312s-8.9063-1.6875-16.781-1.6875h-24.844v53.906h11.906c7.6875 0 12.781-1.2812 15.281-3.8438 2.5625-2.625 3.8437-7.8438 3.8437-15.656h4.6875v44.812h-4.6875c0-5.4375-0.5625-9.7188-1.6875-12.844-1.0625-3.1875-2.6875-5.3438-4.875-6.4688-2.125-1.1875-6.3125-1.7812-12.562-1.7812h-11.906v31.594c0 10 0.25 16.562 0.75 19.688 0.5 3.0625 1.75 5.3438 3.75 6.8438 2.0625 1.5 6 2.25 11.812 2.25h4.3125v4.3125h-59.062v-4.3125h3.9375c5.4375 0 9.1875-0.6875 11.25-2.0625 2.125-1.375 3.4687-3.5 4.0312-6.375 0.625-2.9375 0.9375-9.7188 0.9375-20.344v-62.344c0-10.125-0.3125-16.656-0.9375-19.594-0.5625-2.9375-1.8125-4.9688-3.75-6.0938-1.875-1.125-6.0312-1.6875-12.469-1.6875h-2.25v-4.3125zm126.03 0 1.0313 31.688h-4.4063c-0.875-6.9375-2.8437-12.656-5.9062-17.156-3-4.5625-6.1563-7.4062-9.4688-8.5312s-8.9062-1.6875-16.781-1.6875h-24.844v53.906h11.906c7.6875 0 12.781-1.2812 15.281-3.8438 2.5625-2.625 3.8438-7.8438 3.8438-15.656h4.6875v44.812h-4.6875c0-5.4375-0.5625-9.7188-1.6875-12.844-1.0625-3.1875-2.6875-5.3438-4.875-6.4688-2.125-1.1875-6.3125-1.7812-12.562-1.7812h-11.906v31.594c0 10 0.25 16.562 0.75 19.688 0.5 3.0625 1.75 5.3438 3.75 6.8438 2.0625 1.5 6 2.25 11.812 2.25h4.3125v4.3125h-59.062v-4.3125h3.9375c5.4375 0 9.1875-0.6875 11.25-2.0625 2.125-1.375 3.4688-3.5 4.0313-6.375 0.625-2.9375 0.9375-9.7188 0.9375-20.344v-62.344c0-10.125-0.3125-16.656-0.9375-19.594-0.5625-2.9375-1.8125-4.9688-3.75-6.0938-1.875-1.125-6.0313-1.6875-12.469-1.6875h-2.25v-4.3125zm131.47 87.562h4.5l-2.7188 39.562h-105.28v-4.3125h2.625c6.3125 0 10.375-0.84375 12.188-2.5312 1.875-1.6875 3.0625-3.8125 3.5625-6.375 0.5-2.625 0.75-9.25 0.75-19.875v-62.344c0-9.6875-0.2813-16.062-0.8438-19.125-0.5-3.0625-1.7187-5.1875-3.6562-6.375-1.875-1.25-5.875-1.875-12-1.875v-4.3125h90.844l3 31.688h-4.4062c-2-8.875-4.4688-15.156-7.4063-18.844-2.875-3.75-6.3125-6.0938-10.312-7.0312-4-1-10.438-1.5-19.312-1.5h-17.625v53.344h13.5c6.1875 0 10.5-0.53125 12.938-1.5938 2.5-1.0625 4.125-2.6562 4.875-4.7812 0.8125-2.1875 1.2188-6.4062 1.2188-12.656h4.4062v43.5h-4.4062c0-7.0625-0.5938-11.781-1.7813-14.156-1.1875-2.4375-2.9375-4-5.25-4.6875-2.25-0.75-6.0937-1.125-11.531-1.125h-13.969v30.094c0 15.062 0.9688 23.938 2.9063 26.625 1.9375 2.625 7.1562 3.9375 15.656 3.9375h9.4688c6.6875 0 12.188-0.84375 16.5-2.5312 4.3125-1.75 8.4062-5.2812 12.281-10.594 3.9375-5.375 7.0313-12.75 9.2813-22.125zm140 0h4.5l-2.7188 39.562h-105.28v-4.3125h2.625c6.3125 0 10.375-0.84375 12.188-2.5312 1.875-1.6875 3.0625-3.8125 3.5625-6.375 0.5-2.625 0.75-9.25 0.75-19.875v-62.344c0-9.6875-0.2813-16.062-0.8438-19.125-0.5-3.0625-1.7187-5.1875-3.6562-6.375-1.875-1.25-5.875-1.875-12-1.875v-4.3125h90.844l3 31.688h-4.4062c-2-8.875-4.4688-15.156-7.4063-18.844-2.875-3.75-6.3125-6.0938-10.312-7.0312-4-1-10.438-1.5-19.312-1.5h-17.625v53.344h13.5c6.1875 0 10.5-0.53125 12.938-1.5938 2.5-1.0625 4.125-2.6562 4.875-4.7812 0.8125-2.1875 1.2188-6.4062 1.2188-12.656h4.4062v43.5h-4.4062c0-7.0625-0.5938-11.781-1.7813-14.156-1.1875-2.4375-2.9375-4-5.25-4.6875-2.25-0.75-6.0937-1.125-11.531-1.125h-13.969v30.094c0 15.062 0.9688 23.938 2.9063 26.625 1.9375 2.625 7.1562 3.9375 15.656 3.9375h9.4688c6.6875 0 12.188-0.84375 16.5-2.5312 4.3125-1.75 8.4062-5.2812 12.281-10.594 3.9375-5.375 7.0313-12.75 9.2813-22.125z" fill="currentColor" aria-label="COFFEE"/>
   <path d="m1482.5 134.57h-67.057l-4.5573 11.198c-6.7708 16.233-10.156 26.823-10.156 31.771 0 5.2952 1.7795 9.3316 5.3385 12.109 3.6459 2.691 8.29 4.0365 13.932 4.0365v5.9896h-52.474v-5.9896c7.8125-1.2153 13.628-3.9497 17.448-8.2031 3.8195-4.3403 8.4202-13.411 13.802-27.214 0.4341-1.3021 2.5174-6.3368 6.2501-15.104l51.302-122.53h5.0781l58.984 140.23 8.0729 18.49c1.8229 4.1667 4.2535 7.4653 7.2917 9.8958 3.125 2.3438 7.7691 3.8194 13.932 4.4271v5.9896h-69.401v-5.9896c8.5069 0 14.236-0.60764 17.188-1.8229 3.0382-1.3021 4.5573-3.8194 4.5573-7.5521 0-1.9097-1.9965-7.5955-5.9896-17.057zm-2.2135-5.8594-31.25-75.261-31.12 75.261zm249.25 4.6875h5.5989v61.849h-5.5989c-1.5625-7.0312-4.3837-13.238-8.4636-18.62-15.538 17.535-35.373 26.302-59.505 26.302-25.521 0-46.398-8.0729-62.63-24.219-16.146-16.146-24.219-37.5-24.219-64.063 0-17.448 3.7326-33.854 11.198-49.219 7.4653-15.451 17.882-26.91 31.25-34.375s28.038-11.198 44.01-11.198c13.194 0 25.13 2.7344 35.807 8.2031 10.764 5.382 18.793 11.372 24.088 17.969 3.7327-7.3785 5.9896-15.017 6.7709-22.917h5.7291l1.5625 66.927h-5.5989c-3.9063-23.785-11.892-40.321-23.958-49.609-11.979-9.2882-25.521-13.932-40.625-13.932-18.49 0-33.203 7.5087-44.141 22.526-10.851 15.017-16.276 36.502-16.276 64.453 0 26.476 5.9462 46.788 17.839 60.938 11.892 14.063 26.693 21.094 44.401 21.094 9.4618 0 19.141-2.3004 29.036-6.901 9.8958-4.6007 17.708-12.37 23.438-23.307 5.816-11.024 9.2448-21.658 10.286-31.901zm195.86 11.328h6.25l-3.776 54.948h-146.22v-5.9896h3.6459c8.7673 0 14.41-1.1719 16.927-3.5156 2.6041-2.3438 4.2534-5.2951 4.9479-8.8542 0.6945-3.6458 1.0417-12.847 1.0417-27.604v-86.589c0-13.455-0.3906-22.309-1.1719-26.563-0.6945-4.2535-2.3872-7.2049-5.0781-8.8542-2.6042-1.7361-8.1598-2.6042-16.667-2.6042v-5.9896h126.17l4.1667 44.01h-6.1198c-2.7778-12.326-6.2066-21.05-10.286-26.172-3.9931-5.2083-8.7674-8.4636-14.323-9.7656-5.5556-1.3889-14.497-2.0833-26.823-2.0833h-24.479v74.089h18.75c8.5938 0 14.583-0.73785 17.969-2.2135 3.4723-1.4757 5.7292-3.6892 6.7709-6.6406 1.1285-3.0382 1.6927-8.8976 1.6927-17.578h6.1198v60.417h-6.1198c0-9.809-0.8247-16.363-2.474-19.661-1.6493-3.3854-4.0799-5.5556-7.2917-6.5104-3.125-1.0417-8.4635-1.5625-16.016-1.5625h-19.401v41.797c0 20.92 1.3455 33.247 4.0365 36.979 2.6909 3.6458 9.9392 5.4688 21.745 5.4688h13.151c9.2882 0 16.927-1.1719 22.917-3.5156 5.9895-2.4306 11.675-7.3351 17.057-14.714 5.4687-7.4653 9.7656-17.708 12.891-30.729zm228.8 54.948h-47.526c-8.4201-5.9028-21.311-21.354-38.672-46.354-5.5555-7.9861-11.328-15.625-17.318-22.917-5.9896-7.3785-10.113-11.849-12.37-13.411-2.257-1.6493-5.7726-2.474-10.547-2.474h-7.0313v39.193c0 13.889 0.3038 23.003 0.9115 27.344 0.6944 4.2535 2.4305 7.4219 5.2083 9.5052 2.8646 2.0833 8.29 3.125 16.276 3.125h8.4635v5.9896h-84.505v-5.9896h5.7292c7.5521 0 12.76-0.95486 15.625-2.8646 2.9514-1.9097 4.8177-4.8611 5.599-8.8542 0.7813-4.0799 1.1719-13.498 1.1719-28.255v-86.589c0-14.063-0.3906-23.134-1.1719-27.214s-2.5174-6.901-5.2084-8.4636c-2.6909-1.5625-8.5069-2.3438-17.448-2.3438h-2.9948v-5.9896l25.26-1.3021c16.84-0.78125 30.208-1.1719 40.104-1.1719 16.84 0 30.512 1.5625 41.016 4.6875 10.59 3.125 19.141 8.2465 25.651 15.365 6.5105 7.1181 9.7657 15.625 9.7657 25.521 0 11.545-4.2535 21.398-12.76 29.557-8.5069 8.1597-21.007 13.238-37.5 15.234 7.3785 3.559 19.271 16.406 35.677 38.542 13.368 17.969 23.872 29.731 31.51 35.287 7.6389 5.5556 16.667 8.507 27.083 8.8542zm-133.46-91.146c6.5105-0.17361 13.238-0.43403 20.182-0.78125 6.9445-0.34723 12.978-1.3021 18.099-2.8646s9.2448-3.8194 12.37-6.7708c3.2118-3.0382 5.7292-6.9879 7.5521-11.849s2.7344-10.851 2.7344-17.969c0-12.413-3.125-22.352-9.375-29.818-6.1632-7.4653-19.662-11.198-40.495-11.198-3.2118 0-6.901 0.17361-11.068 0.52083z" fill="currentColor" aria-label="ACER"/>
  </g>
 </g>
</svg>
