<?xml version="1.0" encoding="UTF-8" standalone="no"?>

<svg
   version="1.1"
   id="svg1"
   width="2.9559631in"
   height="2.1689801in"
   viewBox="0 0 671.85709 492.98464"
   xmlns="http://www.w3.org/2000/svg"
   xmlns:svg="http://www.w3.org/2000/svg">
  <g
     id="g1"
     style="display:inline"
     transform="translate(-302.54574,-206.15004)">
    <g
       id="g130"
       transform="translate(-519.95317,231.0903)"
       style="display:inline">
      <g
         id="g131"
         style="display:inline">
        <path
           style="display:inline;fill:currentColor;fill-opacity:1"
           d="m 822.53795,467.24075 c -0.20777,-0.33618 0.43476,-1.7965 1.42786,-3.24515 0.9931,-1.44864 4.9609,-7.294 8.81734,-12.98969 3.85644,-5.69568 8.05714,-11.84313 9.33489,-13.66099 2.33004,-3.31498 7.47377,-10.84114 18.25256,-26.70662 7.3547,-10.82552 19.94651,-29.21989 29.32792,-42.84282 4.01633,-5.83219 9.2788,-13.51463 11.69438,-17.07208 2.41558,-3.55744 6.02311,-8.79277 8.01673,-11.63405 1.99362,-2.84128 6.837,-9.84638 10.76309,-15.56689 3.92606,-5.72051 7.75585,-10.63726 8.51063,-10.92612 0.75477,-0.28885 5.81157,-2.70503 11.23732,-5.36927 5.42576,-2.66425 9.94491,-4.84409 10.04256,-4.84409 0.69976,0 -0.35008,1.99093 -3.81485,7.23451 -5.50977,8.33847 -10.13171,15.50876 -19.47477,30.2123 -4.40203,6.92766 -9.47002,14.89361 -11.2622,17.70212 -1.79218,2.80851 -6.17367,9.85532 -9.73665,15.65958 -3.56299,5.80425 -7.53265,12.2383 -8.82147,14.29787 -1.28882,2.05957 -5.24991,8.49362 -8.80242,14.29787 -3.55251,5.80426 -8.99167,14.68936 -12.08703,19.74468 -8.79762,14.36823 -9.63807,15.8162 -9.34835,16.10592 0.24681,0.24681 28.02235,-3.75381 43.01465,-6.19556 3.3702,-0.5489 9.0383,-1.45841 12.59574,-2.02114 6.09111,-0.96352 9.8106,-1.52839 27.23404,-4.13602 3.93191,-0.58846 10.05957,-1.55629 13.61702,-2.15075 l 6.46809,-1.08083 4.0851,-2.25826 c 2.24681,-1.24203 6.53617,-3.10236 9.53192,-4.13404 l 5.44681,-1.87579 12.93614,-0.0689 12.9362,-0.0689 3.7447,-1.53563 c 7.031,-2.8833 8.5179,-3.70912 17.7021,-9.83188 10.3611,-6.90731 21.6083,-13.7193 25.1831,-15.25244 6.1347,-2.63097 15.5112,-4.5857 25.4852,-5.31292 l 6.0724,-0.44275 2.4382,-1.25206 c 1.341,-0.68863 2.9743,-2.17103 3.6296,-3.29424 l 1.1915,-2.04218 v -3.11522 c 0,-4.11371 -1.3187,-7.24628 -7.3366,-17.42713 -5.2698,-8.91542 -8.716,-16.46143 -12.4438,-27.24755 -1.2295,-3.55745 -3.2079,-8 -4.3965,-9.87234 -3.101,-4.88501 -10.9221,-11.96281 -17.4847,-15.82307 -14.8768,-8.75088 -34.8343,-16.29637 -49.9129,-18.87099 l -6.1276,-1.04627 -9.87236,5.6e-4 -9.87234,5.6e-4 -6.46809,1.04644 c -3.55745,0.57553 -8.30638,1.61572 -10.55319,2.31152 -5.31531,1.64606 -15.74006,5.83799 -25.43824,10.22903 -4.25486,1.92648 -7.90639,3.33241 -8.11451,3.12429 -0.20811,-0.20811 0.55929,-3.21197 1.70534,-6.67523 1.14605,-3.46327 1.9708,-6.41724 1.83277,-6.56439 -0.36182,-0.38574 -8.42987,2.40952 -15.9428,5.52356 -16.1462,6.69243 -21.37834,8.72426 -21.9635,8.5292 -0.3462,-0.1154 1.14633,-2.49832 3.31673,-5.29539 2.1704,-2.79706 4.11339,-5.23876 4.31775,-5.42599 0.98139,-0.89914 6.15881,-7.44087 6.15881,-7.78173 0,-0.21367 -7.79469,-0.38849 -17.32152,-0.38849 h -17.32153 l -0.4296,-0.69512 c -0.23629,-0.38231 0.74138,-1.18539 2.17258,-1.78461 4.62207,-1.93518 26.84908,-9.80236 36.30431,-12.8498 5.05533,-1.62934 11.78779,-3.873 14.96103,-4.98591 l 5.76954,-2.02346 -3.38656,-0.4997 c -10.22798,-1.50917 -27.17138,-4.9414 -27.37253,-5.54487 -0.12819,-0.38457 2.15238,-1.53245 5.06794,-2.55085 2.91555,-1.01839 7.13931,-2.5704 9.38613,-3.44889 4.70121,-1.83816 9.40406,-3.42622 19.2187,-6.48975 l 6.9634,-2.17356 -5.4014,-5.82654 -5.4014,-5.82655 -2.41306,-4.94863 c -2.50214,-5.13131 -3.02661,-7.44941 -1.562,-6.9038 0.46809,0.17438 2.0766,0.7055 3.57447,1.18028 1.49787,0.47478 3.94894,1.25828 5.44681,1.74111 19.43334,6.26421 32.96338,10.12827 33.51894,9.57271 0.12201,-0.12201 -0.52467,-2.33229 -1.43708,-4.91174 -1.86961,-5.28555 -3.35839,-11.85308 -2.81104,-12.40043 0.1996,-0.19959 2.12085,0.33688 4.26944,1.19216 11.50342,4.57909 13.82456,5.45814 18.0777,6.8463 2.55158,0.83279 4.74788,1.40553 4.88067,1.27274 0.13279,-0.13279 -0.53268,-3.85881 -1.47882,-8.28004 -0.94614,-4.42124 -1.56949,-8.18938 -1.38523,-8.37364 0.18427,-0.18427 2.13229,0.65971 4.32895,1.87551 2.19665,1.21579 5.38319,2.8967 7.08119,3.73534 4.0087,1.97994 14.9229,6.37834 15.8272,6.37834 0.3855,0 0.1172,-0.65363 -0.5962,-1.45251 -2.2859,-2.55997 -8.1699,-6.59344 -15.2938,-10.48385 -3.8133,-2.08249 -8.50484,-4.7975 -10.42567,-6.03337 -5.29548,-3.40713 -13.72997,-12.53031 -12.61511,-13.64517 0.19294,-0.19293 5.84787,1.01655 12.56653,2.68775 6.71865,1.67119 13.48395,3.0422 15.03395,3.04667 l 2.8182,0.008 1.4729,-1.1927 1.4729,-1.1927 0.5617,-4.0839 0.5617,-4.08389 -0.8694,-5.78724 c -0.4782,-3.18297 -1.6861,-9.09792 -2.6842,-13.14432 -0.998,-4.0464 -1.7042,-7.68841 -1.5692,-8.09335 0.2726,-0.8181 12.4831,12.04128 18.6747,19.66729 2.1871,2.69373 4.1564,4.91501 4.3763,4.93617 0.2199,0.0212 1.7181,-1.21555 3.3293,-2.74824 l 2.9294,-2.7867 1.7772,0.35715 c 0.9774,0.19644 4.2282,0.98849 7.2239,1.76012 6.2736,1.61592 8.5188,1.76467 8.4908,0.56252 -0.036,-1.55737 -8.3344,-6.92023 -18.2764,-11.81156 -5.4026,-2.65807 -9.5114,-5.02545 -9.1305,-5.26086 1.0926,-0.67526 12.8482,-2.40992 19.7672,-2.91685 3.4638,-0.25378 6.2978,-0.56298 6.2978,-0.68711 0,-0.2337 -2.1923,-5.05487 -6.31,-13.87681 -4.0127,-8.5966 -5.4689,-12.27775 -5.0306,-12.7161 0.2306,-0.23063 1.5745,0.34098 2.9864,1.27025 1.4118,0.92927 6.0904,3.62306 10.3968,5.98619 4.3064,2.36313 8.643,4.86467 9.637,5.55898 0.994,0.69431 1.966,1.26238 2.16,1.26238 0.194,0 0.7171,-1.14893 1.1625,-2.55319 1.2532,-3.95166 6.8632,-13.98691 7.4583,-13.34165 0.292,0.31663 1.3305,3.72117 2.3078,7.56564 0.9772,3.84447 2.6735,8.76644 3.7696,10.93771 l 1.9928,3.94776 2.6223,1.73534 c 3.7883,2.50696 8.3732,4.75999 9.1558,4.49912 0.6209,-0.20695 -8.5698,-19.20619 -10.2982,-21.2888 -0.4166,-0.50194 -0.5128,-1.05363 -0.2137,-1.22599 0.299,-0.17236 3.5366,0.29055 7.1945,1.02868 3.658,0.73814 7.0479,1.18974 7.533,1.00356 l 0.8821,-0.33849 1.1605,-9.43165 c 0.6383,-5.18741 1.2315,-10.17361 1.3181,-11.08045 0.2101,-2.19788 1.4501,-2.50467 2.3509,-0.5816 0.6833,1.4589 11.5042,16.94976 13.0626,18.70013 l 0.7214,0.81016 9.5383,-4.50306 c 5.2461,-2.47668 9.6958,-4.3456 9.8882,-4.15315 0.1925,0.19245 -0.4243,2.77341 -1.3706,5.73546 -0.9463,2.96204 -2.6796,8.60256 -3.8519,12.53447 -1.1722,3.93192 -2.687,8.45107 -3.3661,10.04256 l -1.2349,2.89361 h 0.7218 c 0.3969,0 1.6729,-0.67729 2.8355,-1.5051 2.9305,-2.08671 16.957,-9.47828 17.3123,-9.12305 0.1595,0.15955 0.4654,3.22893 0.6797,6.82083 l 0.3896,6.53073 1.4319,-0.003 c 0.7875,-0.002 4.1893,-0.44341 7.5595,-0.98201 6.8126,-1.08874 19.4043,-2.11556 19.4043,-1.58237 0,0.18856 -2.0095,3.32741 -4.4656,6.97522 -2.456,3.6478 -4.3709,6.72672 -4.2553,6.84204 0.1156,0.11532 5.1124,1.33027 11.1039,2.69989 13.2869,3.03731 13.2766,3.03443 13.2766,3.70294 0,0.29696 -5.8207,2.48763 -12.935,4.86815 l -12.9349,4.32822 2.9626,3.08597 c 4.1458,4.31841 7.4871,8.13482 8.1559,9.31565 l 0.5677,1.00237 -2.6103,-0.43564 c -1.4357,-0.2396 -8.0553,-1.48383 -14.7102,-2.76496 -6.655,-1.28113 -12.3997,-2.32933 -12.766,-2.32933 h -0.666 v 4.76596 c 0,2.62128 -0.2957,4.76596 -0.6572,4.76596 -0.3614,0 -1.6635,-0.84256 -2.8936,-1.87234 -5.0535,-4.23078 -10.175,-7.14946 -13.9905,-7.97308 l -2.2222,-0.47969 -2.9911,1.44797 -2.9911,1.44797 -1.0263,2.18267 -1.0263,2.18267 -0.8119,11.91489 c -0.4466,6.55319 -0.9649,13.94587 -1.1518,16.42818 l -0.3398,4.51328 4.3833,0.76331 c 2.4108,0.41982 5.6422,0.76332 7.1809,0.76332 2.5848,0 4.7424,1.30761 3.0748,1.86349 -1.4621,0.48737 -15.413,10.07267 -15.6202,10.73225 -0.2095,0.66686 4.1999,2.95385 13.7213,7.11677 8.0897,3.53695 27.5077,13.2801 27.542,13.8194 0.05,0.79399 -3.9003,0.61775 -17.9538,-0.8009 -18.881,-1.90596 -22.1839,-2.17094 -22.1839,-1.77972 0,0.193 1.9691,3.01389 4.3757,6.26864 4.5972,6.21713 6.2553,8.89717 5.7813,9.34477 -0.1566,0.14789 -2.4294,-0.29357 -5.0507,-0.981 -2.6212,-0.68744 -5.4023,-1.26755 -6.1801,-1.28914 l -1.4143,-0.0393 -0.7985,4.33382 c -0.4392,2.3836 -0.7985,6.47076 -0.7985,9.08258 0,4.95724 1.8751,13.60662 3.7256,17.18509 l 1.0782,2.0851 7.6407,-5.12688 c 4.2023,-2.81978 8.5597,-5.70476 9.6831,-6.41106 1.1234,-0.7063 5.524,-3.46953 9.779,-6.14051 10.1002,-6.34006 23.3142,-13.17077 35.067,-18.12717 l 9.4418,-3.98177 1.0449,-1.59468 c 0.5747,-0.87708 1.1815,-3.03259 1.3485,-4.79003 l 0.3036,-3.19534 -2.7386,-6.80851 c -1.5062,-3.74468 -3.0946,-8.79465 -3.5298,-11.22215 -1.682,-9.38322 1.8254,-22.35816 8.3774,-30.99061 3.2185,-4.24051 12.2311,-13.2482 12.8641,-12.85704 0.7326,0.45281 4.4354,8.36757 6.1741,13.19746 l 1.3481,3.74468 0.3435,7.60297 0.3435,7.60298 -1.5081,4.99277 c -1.8579,6.1508 -6.1561,13.36982 -11.842,19.88937 -3.9375,4.51479 -7.3318,10.77301 -6.3665,11.73827 0.3177,0.31774 20.6999,-3.68902 25.1839,-4.95069 0.6648,-0.18706 2.2386,-2.38509 3.4973,-4.88449 1.2587,-2.4994 4.6211,-7.21239 7.4721,-10.47331 l 5.1835,-5.92894 v -4.75222 c 0,-6.00167 1.5551,-12.7719 4.064,-17.69308 2.9684,-5.82222 8.8495,-12.42639 14.8006,-16.62029 4.6107,-3.24926 17.0037,-9.6686 21.2958,-11.03087 l 1.3715,-0.43529 v 6.54977 c 0,8.08714 -1.4531,14.7916 -4.6504,21.45688 l -2.4495,5.10639 -4.1284,4.16686 c -6.0072,6.06333 -11.8494,9.4816 -22.66,13.25839 l -4.2712,1.4922 -3.9831,4.49872 c -4.5123,5.09654 -9.8028,13.11569 -9.0688,13.74629 0.2684,0.23057 4.7773,0.0287 10.0199,-0.44859 5.2425,-0.47729 11.3707,-0.89061 13.6182,-0.9185 l 4.0863,-0.0507 1.7009,-3.22427 c 0.9355,-1.77335 3.8599,-5.37335 6.4986,-8 2.6388,-2.62665 5.5233,-6.00127 6.4101,-7.49914 3.4263,-5.78741 6.6626,-9.40969 10.9199,-12.22269 5.4212,-3.58199 9.2741,-5.29602 15.3926,-6.84773 l 4.6925,-1.19007 11.2341,0.439 c 10.6334,0.41554 16.5686,1.09936 17.4836,2.01435 0.9562,0.95614 -9.4371,12.9509 -15.1006,17.42757 -7.1624,5.6614 -14.4874,8.26743 -26.034,9.26221 l -5.6085,0.48319 -6.3897,-0.87728 -6.3897,-0.87728 -2.3936,1.47929 c -2.4569,1.51851 -7.993,8.11598 -7.993,9.52552 v 0.78818 h 3.0906 c 14.3945,0 42.2835,6.0301 46.9519,10.15184 1.6362,1.44461 3.6225,2.23957 11.234,4.4961 3.183,0.94363 6.3235,1.88431 6.9788,2.0904 2.3949,0.75316 1.0992,-0.81545 -2.383,-2.88491 -3.2604,-1.93761 -8.0805,-3.6704 -12.9362,-4.65042 -1.0298,-0.20784 -1.8723,-0.63191 -1.8723,-0.94237 0,-0.75373 4.3249,-2.595 8.3937,-3.57347 l 3.2873,-0.79055 5.2233,0.39494 5.2233,0.39495 5.0873,2.59291 5.0872,2.59292 2.0392,3.0465 2.0392,3.0465 0.2523,4.10243 0.2524,4.10244 -1.6132,2.38298 c -2.0359,3.00735 -7.362,5.93891 -11.7827,6.48528 -4.6723,0.57749 -12.2391,-0.7594 -16.0558,-2.83673 -3.758,-2.04534 -7.973,-5.98291 -8.9847,-8.39336 -0.3979,-0.9478 -0.901,-3.40012 -1.118,-5.44959 l -0.3946,-3.72632 -3.1995,-1.18497 c -5.4052,-2.00192 -16.6323,-3.94143 -27.3923,-4.73205 l -10.2593,-0.75384 -13.617,0.38824 -13.6171,0.38824 -7.314,1.35101 c -5.9045,1.09063 -11.2495,2.44875 -12.6318,3.20963 -0.3022,0.1663 3.8399,7.10609 5.7602,9.65109 l 1.68,2.22642 4.2103,1.93156 c 2.3156,1.06236 6.0677,3.43069 8.3379,5.26294 6.2356,5.03265 9.6659,9.30832 13.2284,16.48856 l 2.0213,4.07401 1.0302,6.36313 1.0302,6.36313 -0.7909,7.48936 c -0.4351,4.11915 -1.0106,7.74522 -1.279,8.05794 -1.2197,1.42114 -15.2563,-7.93852 -21.7508,-14.50359 -5.5685,-5.62887 -9.5988,-11.88134 -11.4253,-17.72456 l -1.1705,-3.74468 0.088,-5.44681 c 0.048,-2.99574 0.537,-7.33334 1.0858,-9.63911 l 0.9978,-4.19229 -3.3867,-5.85026 c -1.8627,-3.21764 -3.7943,-5.85025 -4.2924,-5.85025 -2.5625,0 -20.1928,6.49287 -27.3265,10.06383 -13.9605,6.9882 -29.8026,18.87962 -37.0804,27.83344 -4.6452,5.71485 -5.6505,7.64558 -6.7481,12.95953 l -0.8598,4.16257 0.8702,3.88847 c 1.0921,4.87965 5.9318,14.40313 12.6219,24.83684 9.7595,15.22073 12.6629,18.46306 18.4934,20.65248 l 3.3241,1.24822 8.5106,0.5927 c 9.0046,0.6271 14.164,1.75276 20.133,4.39253 4.2228,1.86751 11.6992,6.59679 16.7892,10.62018 6.7261,5.31668 19.2878,10.6338 29.7051,12.5736 2.8614,0.53281 7.5004,1.44311 10.3089,2.02289 2.8085,0.57977 12.6128,2.40484 21.7872,4.0557 37.0723,6.67084 93.7997,17.58108 111.6596,21.47522 3.5574,0.77566 10.4511,2.14946 15.3191,3.0529 8.302,1.5407 15.2572,2.95662 26.5532,5.40561 5.5394,1.20094 6.4681,1.26879 6.4681,0.47254 0,-0.80514 -12.0381,-23.70151 -16.3382,-31.07521 -0.6551,-1.12341 -2.6483,-4.8 -4.4292,-8.17022 -4.3695,-8.26884 -8.4576,-15.74123 -13.782,-25.19148 -1.6878,-2.99575 -4.6014,-8.20426 -6.4745,-11.57447 -1.8732,-3.37022 -5.2448,-9.28017 -7.4926,-13.13324 -4.1433,-7.1025 -5.3259,-9.84844 -7.0444,-16.35752 -0.5254,-1.99013 -2.3787,-7.28034 -4.1185,-11.75603 -4.4497,-11.44752 -3.2598,-11.71686 4.1994,-0.95056 2.2417,3.23553 5.5593,7.92591 7.3724,10.42305 3.5301,4.86177 10.1557,14.59184 22.5635,33.136 4.2594,6.36596 8.6352,12.8 9.724,14.29787 1.0888,1.49787 6.7192,9.77021 12.5119,18.38298 38.6027,57.39581 45.7598,68.17036 46.0696,69.35505 l 0.3473,1.32809 -1.6394,-0.4593 c -0.9017,-0.25262 -4.7033,-0.90708 -8.448,-1.45438 -3.7447,-0.54729 -12.9362,-1.90457 -20.4255,-3.01618 -30.0557,-4.46102 -36.5811,-5.3522 -57.8724,-7.90379 -4.4936,-0.53852 -11.8468,-1.44376 -16.3404,-2.01164 -10.305,-1.3023 -22.6672,-2.76648 -34.0425,-4.03204 -4.8681,-0.54159 -11.6086,-1.29563 -14.9788,-1.67564 -30.0743,-3.39102 -68.3051,-6.20013 -103.4893,-7.60415 -10.1107,-0.40346 -20.2213,-0.89646 -22.4681,-1.09554 -2.2469,-0.19909 -25.2256,-0.51752 -51.0639,-0.70764 l -46.9787,-0.34566 -21.1064,0.74921 c -26.5053,0.94086 -55.8695,2.45121 -73.5319,3.78213 -27.86218,2.09951 -54.01812,4.45451 -64.34044,5.79301 -5.71919,0.74162 -19.98254,2.45906 -28.25532,3.4022 -2.99574,0.34154 -9.12339,1.1121 -13.61702,1.71235 -4.49361,0.60026 -11.54042,1.52473 -15.65957,2.05437 -4.11915,0.52965 -11.77872,1.60822 -17.02127,2.39684 -5.24256,0.78861 -11.37022,1.69688 -13.61703,2.01836 -2.2468,0.32149 -10.51914,1.69754 -18.38297,3.0579 -7.86383,1.36035 -17.15455,2.9126 -20.64605,3.44943 -3.49149,0.53683 -6.61075,1.13834 -6.93168,1.33669 -0.32092,0.19834 -0.7535,0.0856 -0.96127,-0.25062 z m 353.21735,-54.91393 c 11.0465,-0.98025 20.1319,-2.60571 26.9812,-4.82721 3.2944,-1.0685 5.2629,-2.09172 4.7463,-2.46708 -0.7596,-0.55183 -8.7244,-3.53318 -21.0867,-7.89309 -12.6468,-4.46022 -22.7726,-8.9954 -28.8693,-12.93002 -7.0369,-4.54133 -16.0924,-11.78841 -22.9942,-18.40198 -7.0442,-6.75001 -16.3234,-17.5692 -21.1122,-24.61595 l -2.082,-3.06383 0.4662,2.04255 c 0.744,3.25996 8.084,17.88338 11.9609,23.82979 3.9767,6.09948 9.2332,12.26152 16.1252,18.90318 6.8915,6.64122 8.9372,8.31893 13.1038,10.7468 2.0815,1.21289 4.5505,2.70986 5.4867,3.32659 0.9362,0.61673 3.6201,2.01896 5.9642,3.11606 2.3441,1.0971 4.1577,2.31018 4.0302,2.69573 -0.1275,0.38555 -2.3518,1.04168 -4.9429,1.45807 -2.5911,0.41639 -7.4685,1.24826 -10.8387,1.8486 -3.3702,0.60034 -11.7772,1.72196 -18.6822,2.49248 -6.905,0.77052 -12.6858,1.53225 -12.8463,1.69273 -0.6244,0.62444 3.5464,0.99198 19.6136,1.72837 9.1745,0.42049 17.2936,0.85522 18.0425,0.96608 3.0248,0.44775 5.7713,0.34267 16.9337,-0.64787 z M 1088.7489,286.7234 c 0.5552,-2.43404 1.6518,-6.04312 2.4369,-8.02017 l 1.4274,-3.59465 -1.2788,-1.41608 c -2.6094,-2.88963 -9.7101,-8.08915 -14.7861,-10.82706 -8.0533,-4.34392 -15.6308,-5.85741 -19.8047,-3.95568 l -1.7165,0.7821 -1.1336,2.96826 -1.1336,2.96826 0.3743,3.56879 c 0.5192,4.95088 2.9927,11.17743 5.5211,13.89812 l 2.1238,2.28534 7.1562,2.93992 c 3.9359,1.61695 9.7572,4.35392 12.9362,6.08215 l 5.7799,3.14224 0.5441,-3.198 c 0.2992,-1.7589 0.9982,-5.18949 1.5534,-7.62354 z m -52.5761,-8.68085 c 0.1851,-0.65532 0.5443,-2.52443 0.7982,-4.15357 l 0.4615,-2.96209 -3.4765,-3.26397 c -1.9122,-1.79519 -5.5681,-4.69301 -8.1243,-6.4396 l -4.6477,-3.17562 -8.1173,2.14784 c -4.4646,1.18132 -8.5528,2.19505 -9.085,2.25275 l -0.9676,0.1049 0.1659,-3.91489 0.1659,-3.9149 h -0.8599 c -0.4729,0 -3.39407,0.82529 -6.49139,1.83398 l -5.63151,1.83398 0.82501,0.99491 c 1.88878,2.27778 9.75379,7.65613 14.98659,10.24833 3.0864,1.52894 10.8137,4.28628 17.1718,6.12743 6.3581,1.84115 11.7694,3.37555 12.025,3.40978 0.2556,0.0342 0.6162,-0.47394 0.8013,-1.12926 z m -46.71288,-6.06241 c 0.84255,-0.21069 1.53191,-0.64221 1.53191,-0.95893 0,-0.31672 -1.45531,-1.69698 -3.23404,-3.06725 l -3.23404,-2.49139 -6.80851,0.43197 c -9.78641,0.6209 -13.95745,1.18432 -13.95745,1.88536 0,0.33754 2.22128,1.69805 4.93617,3.02337 l 4.93617,2.40967 7.14894,-0.42486 c 3.93191,-0.23368 7.8383,-0.59725 8.68085,-0.80794 z m 108.88378,-9.87942 0.3696,-1.81416 -3.8493,-0.48094 c -2.1171,-0.26452 -4.0296,-0.30067 -4.2499,-0.0803 -0.3778,0.37781 1.9368,7.39216 3.3947,10.28761 l 0.6708,1.33203 1.6472,-3.71501 c 0.906,-2.04326 1.8136,-4.53139 2.0169,-5.52919 z m -56.7013,1.07764 c 0.5299,-1.38093 0.5424,-10.49751 0.014,-10.49751 -0.3418,0 -7.7134,1.75597 -10.3539,2.46635 -0.4843,0.13028 1.354,2.21749 4.0851,4.63825 2.731,2.42075 5.1626,4.41678 5.4033,4.43562 0.2408,0.0188 0.6238,-0.45038 0.8511,-1.04271 z m 63.4467,-40.52716 c -0.6078,-4.58153 -3.2378,-11.46198 -5.8108,-15.20177 -1.137,-1.6525 -3.2176,-3.95342 -4.6237,-5.11315 -2.6503,-2.18608 -8.7239,-4.80436 -11.1445,-4.80436 -1.9128,0 -19.5878,5.97025 -21.8248,7.37199 -1.6509,1.03449 -6.6935,6.99072 -6.6935,7.90631 0,0.827 6.3204,0.31281 11.3612,-0.92429 8.3451,-2.04805 15.4227,-3.94315 16.7239,-4.47803 l 1.1915,-0.48976 v 8.91094 8.91093 l 1.532,0.34947 c 1.5755,0.35941 6.8474,0.67678 15.0664,0.90699 l 4.6835,0.13119 z m 9.4163,-17.08275 c 0.9697,-1.94587 1.763,-4.48406 1.763,-5.64044 v -2.1025 l -2.2127,-1.27068 c -3.6321,-2.08574 -8.0625,-5.90456 -8.8466,-7.62538 -0.4035,-0.88567 -0.9486,-1.6103 -1.2112,-1.6103 -0.2626,0 -0.9581,2.37447 -1.5456,5.2766 l -1.0681,5.27659 1.7248,2.64428 c 2.6732,4.09824 7.0756,8.58976 8.4193,8.58976 h 1.2141 z m -44.6759,-11.02887 c 1.7698,-0.89685 3.943,-2.2178 4.8293,-2.93544 l 1.6113,-1.30481 -0.8356,-1.31988 c -0.4596,-0.72593 -1.9369,-2.17064 -3.2828,-3.21046 l -2.4472,-1.89059 -1.1501,1.20973 c -0.6325,0.66536 -1.7718,2.89485 -2.5317,4.95442 -0.7599,2.05958 -1.594,4.28085 -1.8536,4.93617 l -0.4719,1.19149 h 1.4572 c 0.8014,0 2.9052,-0.73378 4.6751,-1.63063 z m 26.2596,-0.0715 c 0.9734,-2.53669 -0.9766,-3.71849 -6.1634,-3.73539 -3.0097,-0.01 -4.4169,0.92113 -2.4156,1.59796 0.6512,0.2202 2.5626,0.98922 4.2477,1.70894 3.8685,1.65226 3.862,1.65161 4.3313,0.42849 z m 21.8712,-6.29788 0.4704,-2.89361 h -4.6151 -4.615 l 3.7041,3.34256 c 2.0373,1.83841 3.9024,3.14054 4.1447,2.89362 0.2423,-0.24692 0.6523,-1.75108 0.9109,-3.34257 z m -73.8864,-3.88558 0.8232,-0.99196 -3.771,-2.41229 c -2.074,-1.32676 -3.9741,-2.41229 -4.2224,-2.41229 -0.5668,0 1.4726,3.24292 3.3182,5.27659 1.6136,1.77804 2.6983,1.93008 3.852,0.53995 z m 266.918,142.29349 c -13.8883,-4.73869 -20.1425,-8.23086 -26.0317,-14.53539 -4.4684,-4.78356 -7.1423,-9.22182 -8.6882,-14.4211 -1.3164,-4.42702 -3.052,-16.92775 -2.4359,-17.54386 0.1793,-0.17933 3.4808,0.47323 7.3367,1.45013 l 7.0106,1.77619 6.8276,3.36361 6.8277,3.36361 4.5222,4.14371 c 4.7688,4.36975 9.1119,10.58381 10.971,15.69732 1.3146,3.61576 3.1919,13.47058 3.1919,16.75606 v 2.30777 l -1.5319,-0.0756 c -0.8426,-0.0416 -4.4426,-1.06868 -8,-2.28248 z m 35.2234,1.6155 c -5.779,-1.35759 -11.4005,-5.71427 -13.9347,-10.79953 l -1.2036,-2.41537 0.024,-5.44681 0.024,-5.4468 1.592,-3.57447 c 0.8756,-1.96596 1.9503,-3.57447 2.3882,-3.57447 0.4379,0 1.1843,1.45532 1.6586,3.23404 1.1035,4.13846 3.4498,8.85434 4.6307,9.30751 l 0.917,0.35188 v -1.28608 c 0,-0.70735 -0.9389,-3.9461 -2.0864,-7.19723 -1.1475,-3.25112 -1.9272,-6.07027 -1.7327,-6.26477 0.6863,-0.68637 9.6524,1.39573 13.2019,3.06575 l 3.5955,1.69169 2.7055,3.07357 2.7055,3.07358 1.0181,3.42839 c 1.959,6.59658 0.9846,11.93446 -2.841,15.56346 -3.1533,2.99124 -8.1815,4.26821 -12.6621,3.21566 z m 26.3936,-23.72388 c -5.3675,-1.30671 -10.4154,-5.06541 -12.8771,-9.58837 l -1.8627,-3.42239 -0.3753,-3.63638 -0.3753,-3.63638 0.6599,-0.40786 c 0.363,-0.22432 4.1193,0.49974 8.3473,1.60902 4.2281,1.10928 8.2965,2.01687 9.041,2.01687 h 1.3536 l -0.7856,-0.94665 c -1.0968,-1.32149 -6.4732,-3.51391 -11.1258,-4.5369 -2.1532,-0.47344 -3.9149,-1.23319 -3.9149,-1.68835 0,-0.45515 2.1593,-1.52185 4.7984,-2.37045 l 4.7984,-1.5429 4.9529,0.37459 4.9529,0.37458 4.3764,1.99107 4.3763,1.99107 2.471,2.74755 c 1.3591,1.51116 2.8458,3.88292 3.3037,5.27058 l 0.8327,2.52303 -0.4623,3.08293 -0.4623,3.08293 -2.8796,2.87962 -2.8796,2.87961 -3.1569,0.79491 c -3.4441,0.86722 -9.876,0.94489 -13.1071,0.15827 z M 1260.1391,159.72866 c -1.4267,-2.06838 -4.2313,-5.97476 -6.2323,-8.68085 -2.001,-2.70608 -6.5732,-9.05632 -10.1603,-14.11164 -3.5871,-5.05532 -8.4101,-11.79574 -10.7179,-14.97872 -4.3301,-5.9725 -41.323,-57.982379 -44.9384,-63.180779 -1.119,-1.60899 -3.8728,-5.59566 -6.1196,-8.85926 -3.5532,-5.16117 -8.456,-12.11741 -17.6366,-25.02311 -1.3155,-1.84931 -4.5935,-6.65601 -7.2845,-10.68154 -2.6909,-4.02553 -5.1022,-7.3191497 -5.3584,-7.3191497 -0.2562,0 -3.9651,4.9047597 -8.2421,10.8994597 -27.1723,38.0854 -37.3532,51.556884 -54.023,71.483524 -2.0362,2.43404 -5.8822,7.18298 -8.5467,10.55319 -4.797,6.067675 -6.1428,7.333645 -6.1428,5.778565 0,-0.88121 5.8415,-11.970875 7.1682,-13.608355 0.4551,-0.5617 1.8335,-2.85957 3.0631,-5.10638 1.2296,-2.24681 9.0451,-15.57446 17.3678,-29.617024 8.3227,-14.04255 15.7466,-26.60426 16.4976,-27.91489 3.1789,-5.54771 14.2012,-24.5167597 16.616,-28.59574972 1.441,-2.43403998 3.4595,-5.89651998 4.4856,-7.69439998 4.2856,-7.5091503 10.8846,-17.7800203 11.5705,-18.0086803 0.4059,-0.13528 3.3886,4.13724 6.6281,9.49451 3.2396,5.35727 7.8226,12.8043203 10.1843,16.5490003 3.6694,5.81799 17.5892,28.7292397 31.0146,51.0484097 6.1592,10.23938 8.8575,14.81157 20.0999,34.057974 5.9059,10.11064 14.3237,24.510645 18.7062,32.000005 4.3826,7.48936 8.7315,14.99574 9.6643,16.68085 3.9966,7.22018 13.1588,22.99881 14.6208,25.17932 1.7155,2.55853 1.954,3.41642 0.9496,3.41642 -0.352,0 -1.8073,-1.69231 -3.234,-3.7607 z"
           id="path18" />
        <path
           id="path115"
           style="display:inline;fill:#b91819"
           d="m 1373.5752,305.18151 c -3.8372,-0.90355 -6.6251,-2.48936 -9.8567,-5.60665 l -2.9001,-2.79751 -1.3552,-3.62208 c -0.7454,-1.99214 -1.3552,-4.68292 -1.3552,-5.97951 v -2.35743 h 1.739 c 0.9564,0 4.4632,0.76595 7.7929,1.70212 3.3296,0.93617 6.9131,1.69194 7.9631,1.67948 l 1.9092,-0.0226 -1.5598,-1.30058 c -1.8824,-1.56953 -7.9872,-3.92395 -11.7238,-4.52145 -1.494,-0.2389 -2.7164,-0.81636 -2.7164,-1.28325 0,-0.46688 2.1593,-1.54318 4.7985,-2.39177 l 4.7984,-1.5429 5.0298,0.3804 5.0298,0.3804 4.3856,2.09307 c 2.4121,1.15118 5.4754,3.29931 6.8073,4.77361 2.3127,2.55989 3.8793,6.31653 3.8553,9.245 -0.02,2.45779 -2.5124,6.93303 -4.857,8.72129 -3.7969,2.89605 -11.4273,3.94739 -17.7847,2.45041 z m -27.7581,24.33341 c -4.361,-0.98219 -8.4541,-3.71973 -11.4662,-7.66889 -2.7807,-3.64579 -3.862,-7.56369 -3.4264,-12.41538 0.3661,-4.07852 3.001,-11.04305 4.0461,-10.69468 0.3523,0.11742 1.2236,1.94067 1.9363,4.05166 2.1823,6.46437 5.4041,10.93918 5.4041,7.50597 0,-0.66847 -0.7825,-3.50251 -1.7389,-6.29787 -0.9564,-2.79537 -1.9113,-5.61865 -2.122,-6.27397 l -0.3831,-1.19149 0.9305,0.0118 c 2.6756,0.034 10.3831,2.14012 13.3689,3.65314 9.9317,5.03276 13.6496,18.67287 7.0434,25.84044 -2.2571,2.44896 -3.4468,3.08285 -7.0489,3.75578 l -2.9056,0.54284 z m -14.7951,-39.88169 c -3.8372,-0.90355 -6.6251,-2.48936 -9.8567,-5.60665 l -2.9001,-2.79751 -1.3552,-3.62208 c -0.7454,-1.99214 -1.3552,-4.68292 -1.3552,-5.97951 v -2.35743 h 1.739 c 0.9564,0 4.4632,0.76595 7.7929,1.70212 3.3296,0.93617 6.9131,1.69194 7.9631,1.67948 l 1.9092,-0.0226 -1.5598,-1.30058 c -1.8824,-1.56953 -7.9872,-3.92395 -11.7238,-4.52145 -1.494,-0.2389 -2.7164,-0.81636 -2.7164,-1.28325 0,-0.46688 2.1593,-1.54318 4.7985,-2.39177 l 4.7984,-1.5429 5.0298,0.3804 5.0298,0.3804 4.3856,2.09307 c 2.4121,1.15118 5.4754,3.29931 6.8073,4.77361 2.3127,2.55989 3.8793,6.31653 3.8553,9.245 -0.02,2.45779 -2.5124,6.93303 -4.857,8.72129 -3.7969,2.89605 -11.4273,3.94739 -17.7847,2.45041 z" />
      </g>
      <text
         xml:space="preserve"
         style="font-style:normal;font-variant:normal;font-weight:normal;font-stretch:normal;font-size:192px;font-family:sans-serif;-inkscape-font-specification:'sans-serif, Normal';font-variant-ligatures:normal;font-variant-caps:normal;font-variant-numeric:normal;font-variant-east-asian:normal;text-align:start;letter-spacing:20px;writing-mode:lr-tb;direction:ltr;text-anchor:start;display:none;fill:currentColor;fill-opacity:1"
         x="1545.0082"
         y="418.16693"
         id="text123"><tspan
           id="tspan123"
           x="0"
           y="0"
           style="font-style:normal;font-variant:normal;font-weight:bold;font-stretch:normal;font-size:192px;font-family:Baskerville;-inkscape-font-specification:'Baskerville Bold';font-variant-ligatures:normal;font-variant-caps:normal;font-variant-numeric:normal;font-variant-east-asian:normal;letter-spacing:20px">COFFEE</tspan></text>
      <text
         xml:space="preserve"
         style="font-style:normal;font-variant:normal;font-weight:normal;font-stretch:normal;font-size:248px;line-height:0;font-family:Baskerville;-inkscape-font-specification:'Baskerville, Normal';font-variant-ligatures:normal;font-variant-caps:normal;font-variant-numeric:normal;font-variant-east-asian:normal;text-align:start;letter-spacing:20.47px;writing-mode:lr-tb;direction:ltr;text-anchor:start;display:none;fill:currentColor;fill-opacity:1"
         x="1367.4303"
         y="199.67268"
         id="text126"><tspan
           id="tspan126"
           x="0"
           y="0"
           style="font-style:normal;font-variant:normal;font-weight:bold;font-stretch:normal;font-size:266.667px;line-height:0;font-family:Baskerville;-inkscape-font-specification:'Baskerville Bold';font-variant-ligatures:normal;font-variant-caps:normal;font-variant-numeric:normal;font-variant-east-asian:normal;letter-spacing:20.47px">ACER</tspan></text>
    </g>
  </g>
</svg>
