<svg version="1.1" id="Layer_1" xmlns="http://www.w3.org/2000/svg" xmlns:xlink="http://www.w3.org/1999/xlink" x="0px" y="0px"
	 width="100%" viewBox="0 0 1024 368" enable-background="new 0 0 1024 368" xml:space="preserve">
<path fill="currentColor" opacity="1.000000" stroke="none"
	d="
M378.030701,237.976379
	C370.007812,245.805771 364.801910,247.059799 356.726440,242.982315
	C352.306488,240.750565 349.263153,237.324661 348.715820,232.256821
	C348.476501,230.040985 347.451721,228.892014 345.452698,228.480713
	C326.932068,224.670273 308.732697,225.692047 290.915619,232.201538
	C290.654907,232.296783 290.495880,232.670364 290.161194,233.065323
	C291.669464,237.100067 294.953033,239.255432 298.809235,240.568726
	C315.401306,246.219482 321.387848,267.788361 317.345856,281.367401
	C316.915710,281.450470 316.340576,281.764191 315.983856,281.600861
	C305.881348,276.975372 297.358215,270.601379 292.580872,260.160248
	C290.383698,255.358139 289.293549,250.394745 290.358612,245.094589
	C290.585846,243.963760 290.696808,242.761551 290.586182,241.618866
	C290.007812,235.644455 286.041321,233.303986 280.673218,235.824677
	C267.098450,242.199020 254.840256,250.324951 245.463501,262.312958
	C238.575455,271.119171 238.154297,275.513794 243.829971,284.925110
	C246.839035,289.914703 250.050644,294.781982 253.159088,299.711914
	C256.194733,304.526398 260.742676,306.965607 266.226898,306.549286
	C275.885803,305.815979 284.057892,309.228485 291.031586,315.256378
	C299.913025,322.933289 310.313690,326.126740 321.585815,327.515015
	C360.925964,332.360016 399.877747,339.531555 438.764099,347.095856
	C441.659363,347.659058 444.585480,348.063812 448.196106,348.657074
	C435.001068,318.569092 414.325195,292.780396 405.501312,260.547058
	C410.233582,262.062927 478.166412,359.373047 480.784637,367.964600
	C326.362823,349.095001 172.414871,348.478333 18.863565,368.290833
	C17.618126,365.134003 19.067205,363.699982 19.992857,362.243500
	C37.417133,334.827087 54.885311,307.438568 72.358841,280.053497
	C72.890327,279.220520 73.414711,278.141632 74.218498,277.762024
	C80.478363,274.805603 86.806000,271.992706 93.112709,269.135468
	C93.555405,269.551819 93.998093,269.968201 94.440788,270.384552
	C78.538651,296.460327 62.636509,322.536072 46.255032,349.397858
	C53.309818,349.787140 59.106647,348.328369 64.950661,347.744446
	C80.180260,346.222748 95.389229,344.495453 110.614227,342.925873
	C113.015892,342.678284 115.113670,341.934204 117.086235,340.574554
	C123.302200,336.290070 130.235229,334.889557 137.571655,336.253357
	C143.003586,337.263123 147.877319,336.211304 152.359070,333.298676
	C158.922592,329.033051 165.648697,324.936493 171.768173,320.089478
	C179.249771,314.163513 187.720444,312.164246 196.886993,311.769684
	C199.123169,311.673431 201.679535,312.333954 202.998489,309.543945
	C204.280716,306.831635 203.079056,304.533051 201.513733,302.617249
	C195.664871,295.458801 191.338898,287.402313 187.204269,279.212524
	C184.180222,273.222626 178.808044,269.788635 173.143784,266.906464
	C159.047485,259.733795 143.982071,255.110657 128.344620,253.686874
	C118.838219,252.821304 109.058327,254.653625 99.990639,258.416809
	C92.916328,261.352753 85.945419,264.537628 78.924805,267.603271
	C77.120087,268.391327 75.390732,269.480652 73.203323,269.242706
	C73.015175,268.710083 72.739754,268.268005 72.719276,267.814423
	C72.626564,265.761047 75.022797,263.479126 72.876602,261.753632
	C70.773766,260.062958 68.387726,261.788330 66.281158,262.570618
	C60.974834,264.541199 55.754463,266.741943 50.469273,268.771362
	C48.680279,269.458282 46.888615,270.505463 44.382847,269.757599
	C46.230839,263.821411 51.740360,260.757355 54.997463,255.151840
	C46.094616,253.499496 37.494255,254.736862 29.341574,251.269104
	C42.208412,245.330032 56.138962,242.698303 70.356392,237.984009
	C63.216766,234.360733 55.808655,235.615143 48.362865,231.923309
	C59.139946,226.700180 70.021774,224.747864 80.988380,220.830673
	C75.410736,214.769150 69.548538,209.807617 68.926765,200.856995
	C80.202728,203.224731 90.191170,208.943115 101.863373,208.624237
	C101.160767,204.225311 96.683350,200.927521 99.480385,195.893890
	C106.476257,196.283310 112.902405,201.103226 120.448654,200.169342
	C120.610924,195.580292 118.067139,191.721329 119.308975,186.554657
	C125.490295,189.388382 131.377228,192.087158 137.264175,194.785934
	C136.083008,191.342117 133.310257,190.070175 130.586945,188.790146
	C124.810341,186.075012 119.395416,182.839539 115.097244,178.028397
	C113.001999,175.683090 111.192879,173.136978 110.862808,169.716782
	C114.091728,168.318100 116.604088,170.163361 119.243515,170.756653
	C123.131348,171.630524 126.816101,173.260315 130.855270,173.632690
	C134.882935,174.003998 136.661285,172.380646 136.867950,168.334198
	C137.213089,161.576599 135.669250,155.093582 134.455460,148.552139
	C134.157654,146.947189 133.307358,145.382339 134.339188,143.475876
	C138.001358,143.928253 139.577057,147.191742 141.759369,149.410675
	C144.784439,152.486511 147.317383,156.042175 150.128174,159.335083
	C151.175720,160.562317 152.669464,162.555237 154.166153,160.780426
	C157.647400,156.652267 161.160233,158.387207 164.867630,159.957687
	C165.767700,160.338959 166.720551,160.772354 168.603622,159.770874
	C163.096771,154.062439 155.539185,151.713776 149.346161,146.622253
	C155.733856,143.926056 162.116867,144.322983 168.472534,143.069672
	C167.439499,135.751923 163.044846,129.600418 162.800049,121.750221
	C169.672791,123.861496 174.342178,129.307220 180.848480,131.471497
	C183.733078,128.222504 183.647507,123.142761 187.904770,120.521820
	C192.319229,127.879417 191.327484,138.165375 201.285583,142.622955
	C200.006500,136.395294 195.391815,132.067764 194.944733,126.219643
	C197.258163,124.769455 199.332825,125.804619 201.274414,126.479797
	C205.006378,127.777550 206.193573,126.346367 206.854385,122.705238
	C207.636932,118.393387 207.040787,113.816444 208.810883,109.268593
	C213.039276,111.569397 214.348923,115.551598 216.621994,118.684410
	C221.671097,125.643257 219.668945,125.176613 227.940430,121.835548
	C230.206299,120.920296 232.258286,119.328552 235.644714,119.353561
	C235.612747,126.948044 232.868103,133.662537 230.562241,140.900757
	C235.622772,140.829453 238.726196,136.197586 243.465805,136.043472
	C245.312973,137.423874 245.315643,139.528641 245.222717,141.458160
	C244.999817,146.087830 247.752762,146.155853 251.080933,145.594772
	C256.260101,144.721619 261.441071,143.346924 266.837311,145.378357
	C266.232635,149.204025 262.440979,151.048691 261.746948,154.924561
	C266.499237,158.116898 272.823425,157.551239 278.218201,161.012680
	C272.759949,165.113953 266.043823,165.065170 260.604187,168.263962
	C261.474426,172.215683 266.042267,173.403351 266.877594,177.527893
	C263.337524,179.237991 260.014191,177.277740 256.701660,177.155289
	C254.891418,177.088379 253.037018,176.725250 251.310822,176.163147
	C246.634476,174.640320 243.287231,174.916138 243.971573,180.983719
	C241.893326,182.085022 240.966080,180.546234 239.811234,179.761520
	C237.056854,177.889969 234.407852,175.851257 231.106125,174.961136
	C226.702789,173.774063 222.834106,176.097885 222.521301,180.646255
	C222.076080,187.120346 222.345184,193.639313 221.361710,200.087631
	C220.927826,202.932541 222.733597,203.839981 225.060516,204.415375
	C227.108078,204.921677 229.422195,204.122131 231.529785,205.829941
	C230.152527,211.006424 224.092102,211.592361 221.154846,216.465317
	C230.712906,221.710541 241.130844,225.059647 250.341599,231.204254
	C241.379791,233.275833 232.132202,229.521515 223.012253,232.447815
	C224.067688,236.381775 228.453812,238.260086 228.446747,242.646347
	C227.691696,242.782745 227.052338,243.053268 226.453018,242.982864
	C219.254013,242.137146 219.165070,242.122726 219.065369,249.330414
	C219.006271,253.603821 218.767502,257.996521 221.960449,262.141205
	C226.455704,258.854553 230.871567,255.656540 235.254990,252.414658
	C244.371429,245.672302 253.646835,239.186020 263.770721,233.997406
	C269.363556,231.130997 270.206085,229.452698 267.474243,223.673248
	C259.951050,207.757248 263.964233,193.905334 274.442444,181.027924
	C275.070526,180.256058 275.740936,179.506607 276.475098,178.838455
	C276.808685,178.534836 277.346405,178.455475 278.241119,178.091461
	C289.536011,196.171173 287.541931,212.876038 273.021820,228.774017
	C281.102264,226.454132 289.084534,226.457153 293.402771,217.570007
	C296.017426,212.188843 299.016754,207.534378 299.290802,201.205933
	C299.645905,193.005096 304.225220,186.512726 310.178986,181.045120
	C315.352356,176.294205 321.406158,172.997147 328.232391,169.511688
	C330.527863,178.776093 328.706879,186.665237 325.290527,194.346313
	C321.772125,202.256866 314.854584,206.307556 307.326965,209.321548
	C301.247559,211.755692 298.132935,216.589020 294.702454,222.710205
	C300.880035,222.827728 306.137268,221.727341 311.364594,220.549057
	C312.795532,220.226517 312.984039,218.552490 313.730164,217.482880
	C317.444916,212.157486 320.826691,206.543060 325.015564,201.617004
	C333.685852,191.420853 345.489655,189.234497 358.117584,190.051682
	C360.669983,190.216858 363.428284,190.097702 366.284515,191.875671
	C362.187378,200.736923 355.894470,207.174026 347.102386,211.173676
	C340.232666,214.298813 332.942505,214.716431 325.553223,214.189651
	C321.228790,213.881393 318.161530,215.368683 316.581726,220.270416
	C321.572266,220.747437 326.287903,221.151550 330.991638,221.664703
	C333.966827,221.989288 337.000092,222.190231 339.873718,222.951126
	C345.654205,224.481735 350.780182,224.734299 356.963287,222.578537
	C368.584778,218.526672 379.497223,225.838760 378.020996,237.601501
	C378.000214,238.012695 378.030701,237.976379 378.030701,237.976379
M176.942184,253.631683
	C182.324509,255.552948 187.706833,257.474213 193.307220,259.473297
	C194.443451,254.523117 195.420120,250.176208 196.447861,245.841431
	C196.797363,244.367233 196.372482,243.168655 195.231094,242.306778
	C188.789764,237.442871 181.914612,233.600540 173.579330,233.204224
	C170.742355,233.069351 169.402542,234.301666 168.948975,237.139969
	C168.024536,242.924774 171.246552,250.381058 176.942184,253.631683
M256.463898,320.257385
	C243.860977,316.047455 233.037949,308.885284 223.215149,300.010406
	C230.136292,311.658417 240.570953,319.227051 253.532227,325.624817
	C244.184357,329.247070 235.517822,329.534546 227.236969,331.521362
	C243.254990,330.727966 259.633179,334.132355 276.385925,327.516937
	C269.928314,322.760010 263.120544,322.834839 256.463898,320.257385
M188.606720,183.462021
	C182.444916,186.341217 174.395996,186.120026 170.780899,194.401016
	C177.804230,193.555176 183.792557,190.212036 190.676514,190.138748
	C191.736450,193.454895 191.245010,196.611816 191.335648,199.712769
	C191.383560,201.351898 191.082413,203.432007 193.429810,203.521164
	C197.811630,203.687592 202.158401,203.223572 206.801178,202.071625
	C205.080887,196.160660 203.157822,191.074692 199.408630,186.945114
	C196.763168,184.031265 193.623962,181.897751 188.606720,183.462021
M133.389450,243.080521
	C138.963028,245.301331 144.722855,246.890503 150.572357,248.187195
	C152.208481,248.549866 153.844467,249.214600 154.849884,247.096573
	C155.702332,245.300751 155.696960,243.667908 154.524078,241.944000
	C151.205429,237.066376 144.634949,234.879272 138.886475,236.640976
	C134.904282,237.861374 130.896652,240.262161 126.775261,236.583420
	C126.016418,235.906067 124.240341,236.306442 123.519699,237.863190
	C126.048401,240.574127 129.537155,241.363770 133.389450,243.080521
M207.290039,184.984268
	C208.514191,186.234604 209.453217,187.929565 211.540039,187.801651
	C216.001602,183.442322 215.316605,181.338226 206.694687,176.862564
	C204.549088,179.436493 204.972534,181.938187 207.290039,184.984268
M116.648666,245.264984
	C116.323029,242.857666 114.415314,243.184845 112.886391,243.287460
	C109.219917,243.533554 105.566963,243.981155 100.714790,244.466965
	C106.562149,247.765305 111.345695,247.051193 116.648666,245.264984
z"/>
<path fill="currentColor" opacity="1.000000" stroke="none"
	d="
M888.671021,161.999817
	C888.662109,155.668640 888.623657,149.837311 888.648193,144.006241
	C888.673889,137.892288 888.128906,132.146393 880.668884,130.791962
	C880.793274,128.961395 881.932739,128.953156 882.869385,128.971817
	C901.841614,129.349579 920.848450,127.545097 939.788940,129.810684
	C946.114380,130.567291 952.174072,132.225342 957.881165,135.180252
	C975.808594,144.462326 977.126221,167.723663 960.302246,178.935791
	C956.570251,181.422897 952.536377,183.344116 947.529724,184.869934
	C960.115845,196.761017 968.970337,210.991180 980.766968,222.669937
	C985.866516,227.718491 992.121277,230.598907 1000.234192,229.946426
	C998.873474,232.921158 997.188904,233.031693 995.660461,233.309998
	C981.081726,235.964600 968.271606,232.507782 957.435730,222.225677
	C949.780518,214.961639 943.668945,206.386475 937.271851,198.089401
	C931.973877,191.217819 926.109985,186.260635 916.769165,187.251923
	C914.912842,187.448929 912.122742,187.376450 912.316650,184.604004
	C912.491150,182.109299 915.132690,182.765656 916.816711,182.814774
	C921.993713,182.965683 927.108765,182.821991 932.217773,181.753998
	C947.266418,178.608261 951.474426,169.886917 951.263489,159.207001
	C951.001221,145.932602 946.057495,139.233765 932.524963,135.547562
	C925.473206,133.626724 918.317688,134.461151 911.183777,135.228882
	C907.632385,135.611069 908.204712,138.271027 908.195496,140.489868
	C908.119690,158.816010 908.107117,177.142410 908.070679,195.468735
	C908.057129,202.299591 907.958252,209.131180 908.031067,215.961029
	C908.101135,222.534500 906.057312,230.228195 916.953979,231.532516
	C916.609802,231.917847 916.265625,232.303162 915.921448,232.688492
	C904.219971,232.688492 892.518494,232.688492 880.826172,232.688492
	C880.826172,232.137375 880.758362,231.572632 880.835815,231.551926
	C887.992676,229.640121 888.709839,224.080170 888.693787,217.979538
	C888.645203,199.486389 888.671814,180.993027 888.671021,161.999817
z"/>
<path fill="currentColor" opacity="1.000000" stroke="none"
	d="
M823.000122,233.297607
	C800.302673,233.299866 778.105164,233.299866 755.183167,233.299866
	C755.992554,231.855179 756.144043,231.189026 756.437439,231.119232
	C763.103455,229.533295 764.236267,226.876389 764.280090,219.106140
	C764.422058,193.954453 764.095581,168.800491 764.090698,143.647354
	C764.089539,137.423599 763.729126,131.743301 755.704895,130.909576
	C756.800110,128.214050 758.707642,128.999161 760.185547,128.996246
	C785.175049,128.946793 810.164673,128.942047 835.154236,128.959869
	C841.725037,128.964554 842.091797,129.226379 841.975525,135.629395
	C841.899658,139.807724 843.187378,144.129471 841.421997,148.071838
	C839.961914,148.376892 839.391602,147.671188 839.179688,146.893738
	C836.817749,138.226105 829.845459,135.862228 822.273865,135.493454
	C810.970886,134.942963 799.625122,135.309158 788.299072,135.166794
	C785.012268,135.125473 783.908447,136.632919 783.926819,139.716858
	C783.991394,150.545288 784.011292,161.375015 783.904907,172.202835
	C783.870972,175.655014 785.298462,176.984528 788.692688,176.860931
	C800.497864,176.431030 812.348877,177.578308 824.116821,175.846222
	C827.557373,175.339828 829.997131,175.791595 829.907898,180.220734
	C829.812561,184.958389 829.178833,185.502762 824.329529,184.489746
	C811.957703,181.905273 799.426880,183.692276 786.973389,183.302597
	C784.558044,183.227005 783.949951,185.004349 783.949036,187.028885
	C783.943237,199.023514 783.957642,211.018143 783.971802,223.012772
	C783.974609,225.399033 784.994385,226.786301 787.574890,226.700394
	C799.878052,226.290771 812.214294,227.568634 824.495239,225.917526
	C832.545471,224.835236 839.780701,222.410355 844.076233,214.750183
	C844.477112,214.035355 845.182922,213.499786 846.908630,213.906097
	C847.643738,219.958801 846.063965,225.952759 844.484985,231.880127
	C844.056152,233.490051 841.973511,233.205307 840.493591,233.217422
	C834.829285,233.263809 829.164612,233.272537 823.000122,233.297607
z"/>
<path fill="currentColor" opacity="1.000000" stroke="none"
	d="
M576.639771,171.496002
	C585.130432,188.695084 593.460205,205.557495 601.733704,222.447433
	C603.376099,225.800354 605.807861,228.426788 608.772766,230.311493
	C608.238403,232.675354 606.639282,232.176682 605.458618,232.195892
	C600.797363,232.271729 596.094604,231.841110 591.481873,232.318817
	C586.170959,232.868790 583.823425,230.426956 581.867249,225.861069
	C578.200745,217.302856 573.836426,209.045883 569.893616,200.602310
	C568.717529,198.083725 566.899414,197.355011 564.321411,197.363739
	C550.167297,197.411728 536.012207,197.463974 521.859375,197.321777
	C518.488586,197.287933 516.647644,198.700958 515.382202,201.616882
	C512.004211,209.400726 508.344208,217.065979 505.117065,224.910339
	C502.012421,232.456955 497.495575,234.373108 489.812958,231.231293
	C506.939362,205.612473 517.363831,176.492889 531.508423,149.290710
	C532.735962,146.929977 533.802979,144.486084 534.958313,142.087418
	C537.752625,136.285904 537.010193,133.605698 531.602905,129.925125
	C530.805359,129.382263 529.698364,129.192581 529.290527,127.762352
	C531.241211,125.829666 533.820862,126.711540 536.089844,126.669136
	C556.866211,126.280891 554.302551,127.164429 562.177734,142.584137
	C567.022156,152.069550 571.704102,161.637894 576.639771,171.496002
M563.119812,190.639664
	C565.228577,188.874664 563.404419,187.252029 562.727783,185.839828
	C556.478333,172.796860 550.108643,159.811493 543.760986,146.815689
	C543.411804,146.100891 543.120117,145.246658 541.390686,145.322952
	C534.626587,160.036880 527.740417,175.016342 520.707642,190.314697
	C522.192261,190.590363 522.832275,190.812424 523.472351,190.812820
	C536.443665,190.820648 549.415039,190.803055 563.119812,190.639664
z"/>
<path fill="currentColor" opacity="1.000000" stroke="none"
	d="
M643.824585,171.827103
	C642.614563,182.837234 643.486389,193.176620 647.225830,203.220505
	C654.876221,223.768936 674.325378,230.673248 691.768066,228.348907
	C704.455139,226.658279 715.362915,221.450485 722.678345,210.300781
	C723.467407,209.098145 724.251221,207.615982 726.812012,208.427155
	C727.839050,213.192688 727.312927,218.279419 727.084595,223.329651
	C727.004517,225.101715 725.356323,225.693100 723.989441,226.245987
	C702.027649,235.129517 679.628601,237.964294 656.729492,230.305984
	C633.245972,222.452209 620.283508,200.921906 622.390198,176.290527
	C624.911011,146.817337 645.656982,130.971725 673.106384,127.739616
	C689.123596,125.853630 704.577942,128.503448 719.759460,133.589218
	C723.631653,134.886383 725.725586,136.797546 725.231750,141.102936
	C724.716003,145.598297 726.079956,150.292404 724.302490,154.656509
	C721.403320,154.597504 721.124023,152.403152 720.155396,151.000107
	C709.645325,135.776978 694.445679,131.295792 677.213562,133.669937
	C661.005310,135.903015 650.681335,145.952133 646.049683,161.652298
	C645.111389,164.832870 644.615234,168.143875 643.824585,171.827103
z"/>
<path fill="currentColor" opacity="1.000000" stroke="none"
	d="
M227.081375,23.153290
	C228.722458,20.874481 229.114868,18.168787 232.286667,16.208815
	C258.096191,59.165760 283.858673,102.044418 309.621155,144.923080
	C309.095215,145.282211 308.569244,145.641342 308.043304,146.000473
	C280.423218,114.036034 254.678024,80.645424 232.241501,42.835720
	C217.041534,66.720123 202.645691,89.388626 182.424835,107.404823
	C181.964554,107.146904 181.504288,106.888977 181.044006,106.631050
	C196.327621,78.908829 211.611252,51.186611 227.081375,23.153290
z"/>
<path fill="currentColor" opacity="1.000000" stroke="none"
	d="
M333.648224,265.413727
	C324.709564,258.222626 322.749298,248.512253 321.791382,238.153137
	C344.375183,239.587936 359.352966,255.744934 356.506592,275.217499
	C348.330841,273.414368 340.609009,270.839752 333.648224,265.413727
z"/>
<path fill="currentColor" opacity="1.000000" stroke="none"
	d="
M361.625122,263.825928
	C361.226044,261.981415 360.776093,260.533569 360.710419,259.068512
	C360.451050,253.285370 363.176392,247.711334 366.800232,246.346619
	C370.702606,244.877014 377.974487,247.119156 381.290863,250.985687
	C385.340118,255.706772 387.048706,261.112213 384.977356,267.181458
	C383.570709,271.303070 380.084381,273.057037 376.024017,273.174408
	C369.392731,273.366089 364.629974,270.195282 361.625122,263.825928
z"/>
<path fill="currentColor" opacity="1.000000" stroke="none"
	d="
M377.987366,238.032669
	C385.426361,230.664825 394.541901,229.692474 402.483429,235.413681
	C406.193115,238.086166 407.894928,241.683304 407.150787,246.188400
	C406.461151,250.363510 403.678558,252.812149 399.781830,254.141556
	C388.941132,257.839935 378.776489,250.696884 377.996857,238.386871
	C378.030701,237.976379 378.000214,238.012695 377.987366,238.032669
z"/>
<path fill="currentColor" opacity="1.000000" stroke="none"
	d="
M675.133179,284.176697
	C674.683777,292.261322 670.383606,297.011230 663.200195,298.676483
	C655.296875,300.508698 647.460083,300.175781 641.560974,293.472443
	C636.886230,288.160370 637.789307,279.039734 643.081787,274.529999
	C650.253662,268.418701 663.340454,268.481750 670.432678,274.622009
	C673.241272,277.053589 674.427917,280.267670 675.133179,284.176697
M666.112976,290.432526
	C668.667175,286.096466 668.852417,281.863892 665.153748,278.098816
	C661.980591,274.868713 655.098938,274.160706 650.589355,276.346466
	C644.325500,279.382507 643.401245,287.719330 648.845825,292.073853
	C653.776917,296.017639 660.140137,295.626648 666.112976,290.432526
z"/>
<path fill="currentColor" opacity="1.000000" stroke="none"
	d="
M813.677124,283.013794
	C813.702454,270.728271 813.702454,270.723938 825.678284,270.703400
	C829.174316,270.697418 832.670776,270.696442 836.166199,270.748871
	C837.548401,270.769592 838.928101,271.029510 839.050781,272.795837
	C839.193665,274.854309 837.750671,275.297668 836.125977,275.320465
	C832.131104,275.376495 828.135071,275.396973 824.139893,275.370850
	C821.882446,275.356079 820.216003,275.796448 820.237183,278.614258
	C820.257507,281.309845 821.766541,282.032562 824.079041,282.020630
	C826.909241,282.006042 829.742432,281.946014 832.568787,282.053314
	C834.601501,282.130493 837.606934,281.439545 837.508728,284.629333
	C837.412842,287.743591 834.390564,286.910706 832.379333,287.046051
	C830.224121,287.191101 828.052551,287.080688 825.888489,287.109070
	C820.058167,287.185547 819.829407,287.477783 820.801025,294.094574
	C825.638184,294.094574 830.569031,294.036407 835.497314,294.125732
	C837.253601,294.157562 839.668518,293.942108 839.730103,296.476624
	C839.799500,299.335907 837.301025,299.151611 835.318481,299.165619
	C829.658142,299.205719 823.994141,299.066040 818.337952,299.225006
	C814.877258,299.322266 813.515503,297.896423 813.652222,294.496033
	C813.799255,290.839325 813.679810,287.171936 813.677124,283.013794
z"/>
<path fill="currentColor" opacity="1.000000" stroke="none"
	d="
M869.808960,273.271729
	C870.358398,270.925842 871.875305,270.761597 873.406311,270.752777
	C879.557068,270.717316 885.708069,270.700745 891.858765,270.729095
	C893.366882,270.736053 895.014221,270.813873 895.078003,272.931702
	C895.141357,275.033386 893.566833,275.300598 892.014526,275.326080
	C888.192078,275.388947 884.367859,275.385681 880.544739,275.356812
	C878.180725,275.338959 876.214111,275.574524 876.273193,278.740021
	C876.332825,281.934845 878.457581,281.989899 880.721802,282.011841
	C884.045959,282.044067 887.372742,282.008942 890.693115,282.138672
	C892.271179,282.200348 893.757874,282.781860 893.629822,284.761749
	C893.522156,286.425873 892.164062,286.914581 890.778015,286.963654
	C887.290405,287.087128 883.796143,287.188141 880.309021,287.107697
	C877.317627,287.038727 876.176331,288.315399 876.205200,291.287567
	C876.236938,294.556580 878.102295,294.514252 880.517273,294.380524
	C884.494751,294.160309 888.487610,294.115082 892.471741,294.168030
	C894.162231,294.190491 895.983521,294.632812 895.813477,296.932098
	C895.669312,298.881378 894.067810,299.162964 892.503479,299.167847
	C886.186401,299.187561 879.868713,299.114838 873.552185,299.179016
	C870.359009,299.211426 869.676758,297.389435 869.700623,294.689362
	C869.762390,287.707825 869.736511,280.725555 869.808960,273.271729
z"/>
<path fill="currentColor" opacity="1.000000" stroke="none"
	d="
M609.340759,291.930634
	C610.961121,293.198639 611.591309,294.250977 610.160217,295.836060
	C607.001282,299.334869 595.407715,300.734131 589.176331,298.251556
	C582.976624,295.781616 579.512939,290.778229 579.654968,284.475372
	C579.789429,278.512848 582.789246,274.536285 588.131104,272.110382
	C594.732971,269.112274 601.317627,268.961609 607.829651,272.234680
	C609.333435,272.990479 611.759094,273.774902 610.656799,276.117096
	C609.669006,278.216064 607.612183,278.362793 605.525269,277.202850
	C603.478638,276.065247 601.302612,275.263000 598.913696,275.182312
	C594.212708,275.023560 589.870361,275.723663 587.421082,280.408722
	C585.418457,284.239471 586.026794,288.024292 588.835693,291.046265
	C592.295837,294.768860 596.785889,295.460327 601.687073,294.179474
	C604.201233,293.522430 606.072510,290.971161 609.340759,291.930634
z"/>
<path fill="currentColor" opacity="1.000000" stroke="none"
	d="
M759.102295,291.813904
	C759.179504,285.849304 759.302734,280.355652 759.309021,274.861847
	C759.311951,272.347839 759.925659,270.664948 762.903931,270.699646
	C769.068481,270.771515 775.234558,270.709442 781.399902,270.727936
	C782.970276,270.732666 784.576111,270.946136 784.621399,272.984192
	C784.667236,275.044617 783.065308,275.300842 781.493103,275.320923
	C777.827698,275.367798 774.159912,275.427795 770.496216,275.345459
	C767.773010,275.284241 766.027649,275.900726 766.063660,279.177704
	C766.100464,282.534821 768.084595,282.925720 770.672546,282.876129
	C773.004578,282.831390 775.344360,282.758942 777.669250,282.894531
	C779.684021,283.012085 782.764221,282.210236 782.793457,285.302582
	C782.825928,288.741608 779.559875,287.853516 777.403687,288.014709
	C775.415710,288.163391 773.397217,288.157349 771.409363,288.000977
	C767.675354,287.707214 765.649780,289.015045 766.055237,293.065094
	C766.153687,294.048004 766.027832,295.065399 765.909424,296.055481
	C765.682373,297.953735 764.695984,299.073212 762.661621,299.137482
	C760.634888,299.201447 759.513611,298.236115 759.299194,296.271515
	C759.155090,294.951080 759.161438,293.614258 759.102295,291.813904
z"/>
<path fill="currentColor" opacity="1.000000" stroke="none"
	d="
M711.681519,281.465393
	C714.071655,283.591919 716.726990,282.327423 719.078308,282.889191
	C722.265625,283.650635 728.068420,280.465302 728.111023,285.575775
	C728.147705,289.972473 722.448914,287.823486 719.335876,287.954346
	C711.950256,288.264801 711.902527,288.034821 711.298706,295.307495
	C711.132507,297.309601 710.822632,298.981506 708.342346,299.086273
	C705.721191,299.196930 704.799683,297.712616 704.798523,295.350708
	C704.795044,288.351807 704.815125,281.352814 704.780212,274.354065
	C704.767761,271.852295 705.917236,270.708160 708.417969,270.722931
	C714.583496,270.759338 720.749512,270.709869 726.914917,270.751312
	C728.427307,270.761536 730.098450,270.846161 730.039001,273.025543
	C729.982483,275.098236 728.393127,275.295990 726.849243,275.322876
	C723.517212,275.381012 720.170105,275.553223 716.854431,275.319855
	C712.464478,275.010895 710.530762,276.626312 711.681519,281.465393
z"/>
</svg>