<?xml version="1.0" encoding="UTF-8"?>
<!-- Created with Inkscape (http://www.inkscape.org/) -->
<svg width="680" height="502" version="1.1" viewBox="0 0 680 502" xmlns="http://www.w3.org/2000/svg">
 <g transform="translate(-2.4519 .81731)" fill="currentColor">
  <path d="m9.6763 497.38c0.28772-0.74978 3.3841-5.5299 6.8809-10.622 3.4968-5.0926 14.17-20.734 23.718-34.759 14.803-21.744 29.394-43.074 52.328-76.5 2.6416-3.85 8.4846-12.278 12.984-18.728l8.1815-11.728 11.25-5.4933c6.1875-3.0213 11.25-5.1727 11.25-4.7808s-1.5186 2.9665-3.3746 5.7212-5.3895 8.1587-7.8521 12.009-6.935 10.825-9.9386 15.5c-7.8664 12.244-26.193 41.724-43.517 70-21.647 35.334-19.969 32.332-17.721 31.677 1.0468-0.30501 8.2033-1.5002 15.903-2.6559s20.975-3.1952 29.5-4.5322c8.525-1.337 24.725-3.824 36-5.5268 14.529-2.1942 21.518-3.6915 23.997-5.1411 9.0797-5.3107 12.836-6.175 27.503-6.3296 12.868-0.13563 14.517-0.36949 20.39-2.8914 3.5146-1.5091 10.94-5.785 16.5-9.5021 22.809-15.247 27.443-17.188 46.728-19.57 10.311-1.2734 11.601-1.6632 13.74-4.1502 3.8953-4.5286 2.7068-10.014-5.0982-23.531-3.6037-6.241-8.1854-15.847-10.181-21.347-5.2295-14.41-6.0908-16.064-11.217-21.544-10.598-11.33-38.663-24.43-62.137-29.003-7.8681-1.533-33.642-0.69104-40.725 1.3303-5.4232 1.5476-21.537 7.8737-30.75 12.072-3.1625 1.4411-5.75 2.2463-5.75 1.7894s0.90117-3.4501 2.0026-6.6515c1.1014-3.2013 1.8395-5.9837 1.6402-6.1831-0.50214-0.50213-14.009 4.5504-26.937 10.077-5.9371 2.5377-11.053 4.6141-11.369 4.6141-0.7471 0 3.7756-6.0337 9.8461-13.136 2.6495-3.0997 4.8173-5.8725 4.8173-6.1619 0-0.28937-4.6125-0.33035-10.25-0.0911-5.6375 0.23928-13.85 0.0771-18.25-0.36037l-8-0.79542 8.4448-3.2695c4.6446-1.7982 18.104-6.508 29.91-10.466 24.166-8.1021 23.877-7.1805 3.3952-10.82-6.7375-1.1974-12.25-2.4547-12.25-2.794 0-0.72389 23.26-9.1853 33.753-12.279l7.2535-2.1383-5.3873-5.648c-4.8044-5.0369-10.62-14.32-10.62-16.953 0-1.0601 2.9105-0.28629 24 6.3806 7.425 2.3472 14.951 4.5387 16.725 4.8699l3.2247 0.6022-1.9161-5.22c-1.0538-2.871-2.2312-6.98-2.6163-9.1312-0.64012-3.5757-0.5379-3.8421 1.1914-3.1052 2.9417 1.2536 21.643 8.2062 23.984 8.9165l2.0929 0.63503-1.788-8.2391c-0.9834-4.5315-1.6082-8.4189-1.3884-8.6387 0.21978-0.21978 2.8999 1.0115 5.9558 2.7362 6.3079 3.56 20.557 9.4181 21.242 8.7331 0.89469-0.89469-9.8732-8.5738-17.961-12.809-7.8544-4.1128-22.947-16.951-21.559-18.339 0.31354-0.31354 5.9983 0.80035 12.633 2.4753 13.532 3.4164 18.334 3.7689 20.23 1.4848 2.4471-2.9486 2.2597-11.4-0.52752-23.785-1.4662-6.5148-2.4682-12.043-2.2266-12.284 0.33122-0.33123 14.264 14.993 21.847 24.028 0.41481 0.49427 2.3205-0.47655 4.2348-2.1574 3.432-3.0134 3.5392-3.0359 7.6673-1.6136 5.4201 1.8674 12.966 2.8946 12.916 1.7583-0.0733-1.6656-9.0373-7.509-18.643-12.153-11.245-5.4363-11.192-5.4993 6.2924-7.4766l11.111-1.2565-3.7765-7.8686c-7.499-15.625-9.1167-20.677-5.7188-17.86 1.5473 1.2824 23.078 13.324 23.2 12.976 0.0478-0.13585 1.8311-3.847 3.9628-8.247 4.339-8.9558 3.9948-9.096 7.5105 3.0585 1.1229 3.8822 3.0674 8.5573 4.321 10.389 2.1151 3.0905 11.263 8.9021 12.331 7.8339 0.62633-0.62633-2.7469-8.1654-7.0971-15.862-1.9282-3.4112-3.3785-6.3294-3.223-6.4849 0.15547-0.15546 3.4294 0.31785 7.2755 1.0518 3.846 0.73396 7.2882 1.0372 7.6493 0.67384 0.88672-0.89233 2.8355-14.002 2.8768-19.352 0.039-5.0558-0.60066-5.6386 9.8688 8.9907l6.402 8.9458 9.598-4.7616c5.2789-2.6189 9.7245-4.6475 9.879-4.5081 0.15458 0.13943-1.9215 7.2895-4.6136 15.889-2.692 8.5996-4.6062 15.636-4.2536 15.636s1.6992-0.74112 2.9924-1.6469c2.17-1.5199 16.075-9.3531 16.603-9.3531 0.12777 0 0.5476 3.1998 0.93297 7.1107l0.70067 7.1107 3.1188-0.62376c5.6284-1.1257 21.46-2.7986 23.132-2.4444 1.3181 0.27916 0.75078 1.6653-2.9121 7.1152-3.0681 4.565-4.1313 6.9034-3.2656 7.1828 0.70592 0.22782 5.7835 1.3973 11.283 2.5988 5.5 1.2015 10.589 2.5018 11.308 2.8895 0.76224 0.41077-4.1018 2.5329-11.656 5.0856l-12.964 4.3807 5.4064 6.158c2.9735 3.3869 5.4064 6.3832 5.4064 6.6584 0 0.65501-13.679-1.6957-27.75-4.7689-2.0997-0.45859-2.25-0.15623-2.25 4.5276 0 4.7479-1.0534 6.3596-2.5617 3.9192-0.37385-0.60491-3.3952-2.8549-6.714-5-8.3972-5.4274-14.421-5.2201-17.432 0.59983-1.2104 2.3398-3.8638 34.262-2.9258 35.2 0.34986 0.34986 3.2231 0.81791 6.385 1.0401 8.9345 0.62787 9.1571 0.97334 3.1793 4.9343-2.9867 1.979-6.9118 4.6993-8.7224 6.0451l-3.292 2.4469 15.292 7.2429c8.4106 3.9836 17.992 8.6496 21.292 10.369 5.7223 2.9814 5.85 3.1283 2.7591 3.1741-1.7825 0.0265-10.006-0.65681-18.274-1.5184-20.728-2.1599-20.12-2.4219-14.016 6.039 2.7666 3.8349 5.0302 7.2621 5.0302 7.6161s-2.7536 7e-3 -6.1191-0.77004c-3.3655-0.77751-6.3166-1.2162-6.5579-0.97491-0.24132 0.24132-0.70031 4.4759-1.02 9.4102-0.48441 7.4769-0.22009 10.16 1.5867 16.109 1.1924 3.9256 2.3686 7.1374 2.614 7.1374s5.0699-3.0932 10.721-6.8737c17.229-11.526 32.324-20.147 45.1-25.757 17.258-7.579 17.054-7.4479 18.088-11.599 0.76391-3.0644 0.40316-5.0239-2.2032-11.967-1.7142-4.5665-3.3928-10.159-3.7302-12.427-0.85961-5.7795 1.154-15.707 4.5506-22.436 2.7173-5.3829 14.523-19.939 16.172-19.939 0.42018 0 1.8464 2.1375 3.1693 4.75 9.4613 18.684 7.1231 35.003-7.4239 51.81-3.943 4.5558-7.584 11.137-6.6682 12.053 0.21821 0.21821 6.2771-0.82752 13.464-2.3238l13.067-2.7206 2.0487-4.2169c1.1268-2.3193 4.4733-7.075 7.4368-10.568 5.3604-6.3188 5.3909-6.393 5.9445-14.471 0.82788-12.079 6.647-22.39 16.871-29.895 4.3302-3.1786 15.87-9.3197 21.622-11.507l2.5408-0.96602-0.51401 9.2776c-1.0989 19.835-10.203 32.194-28.99 39.356-4.6538 1.774-8.8197 4.2388-11.572 6.8468-4.2064 3.9856-10.199 12.323-10.199 14.189 0 0.56542 3.084 0.65838 7.75 0.23361 4.2625-0.38805 10.532-0.73755 13.933-0.77668 5.3244-0.0613 6.2731-0.35621 6.8344-2.1248 0.35849-1.1295 3.2301-4.842 6.3813-8.25 3.1512-3.408 7.6107-8.9122 9.9098-12.232 7.0277-10.146 17.771-15.475 32.692-16.214 8.3175-0.41213 22.975 0.89133 24.24 2.1555 0.69258 0.69258-5.7608 8.5861-11.573 14.155-9.8345 9.4237-21.333 13.033-38.229 12-9.7356-0.59505-10.769-0.48242-13.213 1.4395-2.9574 2.3263-7.1817 7.8755-6.508 8.5492 0.23952 0.23952 5.111 0.91528 10.826 1.5017 16.898 1.7341 36.561 6.5601 39.076 9.5909 1.303 1.5701 17.356 6.6985 19.123 6.1094 1.8267-0.6089-11.223-6.7526-14.343-6.7526-4.4202 0-4.2536-1.6387 0.35719-3.5135 9.6069-3.9063 24.66-0.62571 29.717 6.4765 7.4033 10.397 0.43029 20.493-14.028 20.31-3.6048-0.0455-8.1375-0.74435-10.073-1.5529-7.784-3.2523-13.54-10.918-12.691-16.902 0.28988-2.0434-0.47388-2.4408-8.6822-4.5181-13.38-3.3861-38.404-5.0133-53.652-3.4888-11.885 1.1883-25.848 3.8355-25.848 4.9006 0 0.98262 4.2651 7.7226 6.3848 10.09 1.1337 1.266 3.8844 3.1083 6.1128 4.094 7.055 3.1207 16.05 12.409 20.25 20.911 3.7462 7.583 3.7524 7.6169 3.6601 19.904-0.0509 6.7693-0.37348 12.589-0.71694 12.932-1.2644 1.2644-15.388-8.189-21.764-14.567-10.877-10.881-14.697-22.024-11.964-34.9 1.2209-5.7531 1.19-5.9349-1.9566-11.51-1.7584-3.1157-3.4916-5.8367-3.8516-6.0468-0.98026-0.57182-19.178 5.7364-26.693 9.253-16.236 7.5976-37.997 25.542-42.895 35.371-4.7936 9.6196-3.0437 17.077 8.4328 35.938 13.741 22.583 15.822 24.191 33.461 25.862 12.779 1.2109 19.242 3.4929 29.169 10.3 22.089 15.148 18.456 14.049 89.871 27.167 13.75 2.5257 40.975 7.763 60.5 11.638s39.775 7.8705 45 8.878 14.675 2.9265 21 4.2645 11.632 2.0997 11.793 1.6928c0.43077-1.0883-32.013-60.948-46.945-86.616-3.2769-5.6328-6.9413-13.627-8.2504-18-1.2953-4.3265-3.5307-10.904-4.9675-14.616-1.4368-3.7125-2.2248-6.75-1.751-6.75 1.0576 0 9.7767 12.194 30.323 42.409 30.81 45.308 74.784 110.94 74.512 111.21-0.15181 0.15181-13.987-1.7409-30.745-4.206-78.093-11.487-155-19.703-209.47-22.377-11.55-0.56697-24.6-1.2579-29-1.5354-4.4-0.27751-26.225-0.78215-48.5-1.1214-107.89-1.6432-213.41 6.3775-324.5 24.664-13.2 2.1729-25.039 4.1196-26.308 4.3261-1.6311 0.26527-2.1546-0.0245-1.7849-0.98788zm351.59-53.384c14.702-1.26 32-5.1023 32-7.1081 0-0.82472-5.8076-3.1197-22.852-9.0305-6.2438-2.1652-14.344-5.4451-18-7.2887-7.162-3.6113-20.183-12.606-26.648-18.408-7.0419-6.3199-19.525-20.272-24.588-27.482-2.7013-3.8466-4.9115-6.6768-4.9115-6.2894 0 1.8455 10.186 21.993 13.838 27.371 9.67 14.24 22.56 26.225 36.01 33.482l9.6515 5.2075-9 1.7106c-4.95 0.94084-15.858 2.5084-24.241 3.4834-8.3825 0.97505-14.908 2.0881-14.5 2.4734s9.066 1.1199 19.241 1.6325 19.4 0.99942 20.5 1.0819c1.1 0.0824 7.175-0.29359 13.5-0.83563zm-87.542-119.25c0.34844-2.3375 1.5786-7.3161 2.7337-11.064l2.1002-6.8136-4.3498-4.4322c-2.5122-2.5598-7.7647-6.1238-12.433-8.4364-6.5716-3.2554-9.1469-4.0043-13.77-4.0043-5.3805 0-5.7757 0.17158-7.3336 3.1841-2.1604 4.1777-1.3587 12.346 1.7736 18.072 1.7969 3.2848 3.5516 4.8091 7.7634 6.744 2.993 1.375 9.068 4.3445 13.5 6.5989 4.432 2.2544 8.3562 4.1669 8.7204 4.25 0.36416 0.0831 0.9472-1.7614 1.2956-4.0989zm-50.473-19.4c0.0124-2.5398-1.015-4.0888-5.3054-8-8.576-7.8179-9.1436-7.9811-19.084-5.4879-4.6874 1.1756-8.8111 2.1375-9.1638 2.1375-0.35267 0-0.46956-1.8-0.25976-4 0.20981-2.2 0.11945-4-0.20079-4s-3.433 0.96273-6.9174 2.1394l-6.3351 2.1394 2.3909 1.9244c4.2774 3.4427 12.988 8.9383 16.732 10.556 2.0122 0.86959 8.8335 3.0198 15.159 4.7783 12.413 3.4511 12.958 3.3594 12.985-2.1875zm-45.985-2.0344c0.27462-0.26465-1.0042-1.8245-2.8418-3.4664l-3.3411-2.9852-9.1582 0.69113c-12.271 0.92604-13.229 1.5805-7.0872 4.8419 4.5629 2.4231 5.5602 2.5723 13.429 2.0086 4.675-0.33488 8.7247-0.82539 8.9993-1.09zm107.41-8.9717c0.5867-1.9034 0.18399-2.237-3.4404-2.8493-2.2577-0.38144-4.3092-0.48916-4.559-0.2394-0.24977 0.24976 0.53522 3.0394 1.7444 6.1992l2.1985 5.7451 1.696-3.3499c0.93279-1.8425 1.995-4.32 2.3605-5.5057zm-56.41-4.4512c0-5.1759-0.24286-6.0138-1.5929-5.4957-0.87609 0.33619-2.7886 0.87192-4.25 1.1905-5.8022 1.2649-5.8154 1.3858-0.65076 5.9359 2.7465 2.4197 5.3312 4.4168 5.7437 4.4379 0.4125 0.0211 0.75-2.7097 0.75-6.0686zm63-35.415c0-5.2705-5.0382-15.412-9.7716-19.669-2.2572-2.0302-5.8782-4.2228-8.0467-4.8725-3.5902-1.0756-4.9346-0.85074-15.037 2.5155-9.6622 3.2196-11.485 4.1898-14.119 7.5164-1.6639 2.1008-3.0252 4.0924-3.0252 4.4257 0 1.2556 5.7167 0.51814 16.43-2.1195 6.0886-1.4991 11.475-2.7366 11.969-2.75 0.49423-0.0134 0.80444 3.891 0.68935 8.6763l-0.20925 8.7007 6.3106 0.35661c16.206 0.91579 14.811 1.1777 14.811-2.78zm9.3861-16.879c2.4786-5.2233 2.0991-8.2966-1.2376-10.022-1.5684-0.81103-4.2961-3.1198-6.0617-5.1307-1.7656-2.0109-3.3676-3.4963-3.5602-3.3011-0.19257 0.19526-0.78097 2.7317-1.3075 5.6364-1.0298 5.681-0.64211 6.6073 5.6381 13.469 3.292 3.5966 4.574 3.4688 6.529-0.65113zm-41.636-12.758c1.7875-1.102 3.25-2.6113 3.25-3.354 0-1.4158-5.0694-5.4865-6.8325-5.4865-0.84584 0-5.1675 9.7396-5.1675 11.646 0 0.99752 5.3786-0.72696 8.75-2.8054zm23.25 0.2708c0-2.127-5.3875-3.6673-8.564-2.4484-1.5098 0.57938-1.1373 1.01 2.1158 2.446 5.1768 2.2851 6.4482 2.2855 6.4482 2e-3zm22-5.1703c0-2.8175-0.1883-2.941-4.4853-2.941h-4.4853l3.7232 3.412c4.2036 3.8523 5.2475 3.7586 5.2475-0.47104zm-73.547-3.8645c0.49637-0.80315-2.1168-3.1083-6.2027-5.4715-1.9111-1.1054-1.4898 0.82044 0.82258 3.7602 2.104 2.6748 4.3443 3.3874 5.3802 1.7113zm265.85 141.93c-11.252-3.8957-19.344-8.3913-24.817-13.787-7.2682-7.1656-9.8335-13.516-11.856-29.353l-0.46351-3.6291 6.8916 1.7727c8.979 2.3096 19.208 7.1416 24.775 11.704 6.3326 5.1891 11.72 14.014 13.599 22.277 1.6668 7.3285 2.0624 14.054 0.81926 13.929-0.4125-0.0414-4.4393-1.3526-8.9484-2.9139zm30.84-0.16969c-9.3335-4.62-12.896-14.078-9.1121-24.191 2.3546-6.2933 2.9996-6.3135 4.8046-0.15016 1.3416 4.5809 5.1072 10.002 5.1434 7.4052 0.0122-0.87712-0.8667-4.2521-1.9532-7.5-1.0865-3.2479-1.9865-6.1846-2-6.5261-0.0307-0.7747 7.4901 0.59755 11.356 2.072 7.9 3.0131 12.619 9.5797 12.619 17.559 0 11.588-9.6968 16.856-20.858 11.331zm30.198-22.276c-6.0387-1.8886-9.8833-4.9908-12.254-9.8878-1.9906-4.1121-2.8512-10.677-1.3996-10.677 0.37741 0 3.9974 0.92914 8.0445 2.0648 9.225 2.5886 12.57 2.1074 6.2692-0.90168-2.475-1.1819-6.1875-2.4346-8.25-2.7838s-3.75-0.99121-3.75-1.4267c0-0.43551 2.3074-1.5582 5.1275-2.4949 11.498-3.8191 26.362 2.058 29.398 11.624 1.0982 3.4601-0.37778 8.4024-3.3636 11.263-4.7638 4.564-11.847 5.7149-19.823 3.2206zm-112.98-146.32c-2.214-3.1625-17.152-24.105-33.196-46.539-24.495-34.252-52.552-74.055-69.682-98.856l-3.899-5.6449-5.0399 6.8324c-2.772 3.7578-9.7649 13.49-15.54 21.628-12.744 17.958-20.587 28.355-32.306 42.83-4.8981 6.05-12.08 14.941-15.959 19.758-3.8793 4.8168-7.2868 8.5242-7.5722 8.2388-0.68371-0.68371 0.23774-2.3199 27.594-48.997 30.446-51.949 28.45-48.549 39.254-66.834l9.3558-15.834 4.0667 6.6605c2.2367 3.6633 6.4964 10.563 9.466 15.334 19.211 30.86 51.274 84.913 90.415 152.42 8.7989 15.176 10.136 19.133 3.0422 9z"/>
  <path d="m9.2876 498.11c0.010119-0.33741 6.8726-10.623 15.25-22.857s18.607-27.22 22.732-33.302c10.843-15.987 46.708-68.213 57.479-83.701l9.2132-13.247 11.154-5.4741c6.1346-3.0108 11.154-5.3088 11.154-5.1069 0 0.202-8.1721 13.127-18.16 28.721s-19.38 30.379-20.871 32.854c-1.4911 2.475-8.6761 14.175-15.967 26-24.424 39.614-29.061 47.274-28.781 47.541 0.15335 0.14589 13.104-1.7198 28.779-4.146s36.15-5.5444 45.5-6.9295c24.868-3.6838 27.26-4.2223 35.5-7.9919 9.6378-4.4092 16.585-5.7063 26.169-4.886 11.283 0.96579 18.554-1.534 33.841-11.634 23.582-15.581 31.586-18.778 51.416-20.536 5.8183-0.51577 7.3768-1.0654 9.75-3.4386 4.776-4.776 4.0507-9.2969-3.6867-22.979-3.577-6.325-8.3153-16.225-10.53-22-5.878-15.33-6.5177-16.566-11.196-21.642-10.597-11.496-36.736-24.071-61.263-29.472-7.8732-1.7337-29.006-1.4769-38.198 0.46416-6.7042 1.4157-21.04 6.8064-34.57 13l-5.7679 2.6402 0.67027-2.7453c0.36865-1.5099 1.2815-4.503 2.0286-6.6513s1.1846-4.0796 0.97244-4.2918c-0.62602-0.62601-12.252 3.6359-25.136 9.2145-6.6 2.8578-12.175 5.0478-12.389 4.8668-0.49443-0.41784 3.845-6.2345 10.171-13.634l4.9162-5.75-18.849-0.0304c-10.745-0.0173-18.204-0.39238-17.349-0.87236 2.2506-1.2633 27.518-10.237 44.289-15.728 16.754-5.4864 16.928-5.0016-3.0389-8.4569-7.2875-1.2611-13.25-2.5654-13.25-2.8985 0-0.62729 2.836-1.6617 26.657-9.7226l14.157-4.7907-5.558-5.9587c-4.7285-5.0694-11.236-15.998-10.109-16.975 0.19394-0.16818 5.9776 1.4904 12.853 3.6858 14.137 4.5144 30.15 8.9316 30.631 8.45 0.17665-0.17664-0.5096-2.5444-1.525-5.2616-1.0154-2.7172-2.1504-6.6295-2.5222-8.6939l-0.67609-3.7535 5.296 2.0965c8.2268 3.2567 21.102 7.9106 21.884 7.9106 0.38809 0-0.10365-3.7125-1.0928-8.25s-1.6445-8.4108-1.4564-8.6073c0.18811-0.19653 2.7968 1.0471 5.797 2.7637 5.9119 3.3824 19.252 9.119 21.051 9.0526 2.5488-0.094-8.142-8.1469-17.929-13.505-7.7411-4.2381-11.994-7.3452-16.048-11.724-3.0337-3.2767-5.3471-6.1264-5.1409-6.3325s5.5174 0.96228 11.803 2.5965c14.142 3.6771 19.214 3.8631 21.371 0.78369 2.2579-3.2236 1.945-11.176-0.9433-23.971-1.375-6.0912-2.5-11.211-2.5-11.377 0-0.55157 14.473 14.983 18.903 20.289l4.3557 5.2175 2.7721-2.9675c3.1785-3.4026 3.7156-3.478 10.379-1.4567 5.5364 1.6795 10.591 1.9496 10.591 0.56597 0-1.4331-12.682-9.413-20.883-13.14-7.0895-3.222-7.2684-3.3864-4.5-4.135 1.5856-0.4288 7.6614-1.3016 13.502-1.9395l10.619-1.1598-5.9028-12.984c-3.2465-7.1411-5.6884-13.198-5.4263-13.46s1.7398 0.40046 3.284 1.4722c3.9071 2.7118 21.459 12.472 21.734 12.086 0.12406-0.17399 1.888-3.8697 3.9199-8.2128s3.863-7.718 4.0692-7.5c0.20615 0.21803 1.3529 4.0406 2.5484 8.4947 2.7562 10.269 4.8748 13.709 10.73 17.422 8.8282 5.5987 9.0711 3.9218 1.4516-10.021-2.5549-4.675-4.7792-8.7893-4.9429-9.1429-0.1637-0.3536 2.9863-0.0166 7 0.74882 4.0137 0.76545 7.5804 1.3922 7.9261 1.3929 0.79416 1e-3 2.8716-13.773 2.8716-19.04 0-2.1775 0.3375-3.942 0.75-3.9211 0.4125 0.021 4.0391 4.7371 8.0592 10.48l7.3092 10.442 9.0285-4.5344c4.9657-2.4939 9.3746-4.3976 9.7976-4.2303s-1.2278 6.6041-3.6684 14.304-4.6874 14.821-4.9929 15.825c-0.43926 1.443 0.57129 1.1055 4.8307-1.6132 2.9624-1.8908 7.7487-4.632 10.636-6.0915l5.25-2.6536v7.0168c0 7.9409-0.36349 7.6967 9.0663 6.0925 2.9885-0.5084 8.7117-1.2122 12.718-1.564l7.2844-0.63958-4.5453 7.0912c-3.0879 4.8174-4.141 7.2399-3.2844 7.5551 0.69348 0.25514 6.1386 1.5581 12.1 2.8956 5.9617 1.3374 11.01 2.6024 11.219 2.811s-5.4688 2.3319-12.617 4.7184c-14.748 4.9239-14.171 3.5936-5.5382 12.786 2.1845 2.326 3.775 4.4052 3.5342 4.6205-0.24069 0.21529-6.7376-0.87414-14.438-2.421s-14.314-2.8385-14.698-2.8705c-0.38376-0.0319-0.83376 2.2354-1 5.0384l-0.30226 5.0965-4-3.196c-9.1077-7.2769-16.624-8.9641-20.897-4.6908-2.468 2.468-2.8694 5.0281-4.2081 26.836l-0.65326 10.642 2.8792 0.54351c1.5836 0.29893 5.0495 0.82995 7.7021 1.18l4.8228 0.63653-8.5721 5.6778c-4.7146 3.1228-8.5724 5.9287-8.5728 6.2354-4.2e-4 0.30665 1.9117 1.3784 4.2492 2.3817 9.9852 4.2857 37.724 17.921 37.306 18.338-0.25074 0.25075-8.2438-0.31722-17.762-1.2622-23.83-2.3657-23.048-2.6507-16.843 6.1382 2.7773 3.9343 5.0496 7.3716 5.0496 7.6383s-2.7157-0.19901-6.0348-1.0351c-3.3192-0.83609-6.3366-1.2184-6.7055-0.84952s-0.85402 4.8632-1.0781 9.9874c-0.38844 8.8813 1.0733 17.462 3.6456 21.4 0.63196 0.96747 4.735-1.2136 16.259-8.6428 18.889-12.177 32.644-19.742 45.904-25.245 5.5518-2.3041 10.75-5.1257 11.552-6.2703 2.1244-3.0329 1.7943-7.4628-1.0838-14.546-5.2025-12.803-5.0782-22.789 0.43047-34.59 2.6251-5.6236 13.009-18.598 15.927-19.9 0.88603-0.39547 2.2772 1.5338 4.2611 5.9091 8.0544 17.764 5.866 32.855-7.0062 48.314-5.6513 6.7872-8.0545 10.737-8.0643 13.255-5e-3 1.363 1.8287 1.1584 13.446-1.5l13.452-3.0783 2.6325-4.9616c1.4479-2.7289 4.783-7.4539 7.4114-10.5 4.6261-5.3612 4.7941-5.7801 5.2529-13.093 1.057-16.85 10.696-28.78 31.095-38.486l9.2047-4.3796 0.32074 5.2101c0.69719 11.325-3.7465 24.301-10.817 31.587-5.1455 5.3021-10.251 8.4544-19.744 12.19-5.3843 2.1189-8.769 4.183-11.058 6.7434-3.5968 4.0237-10.572 14.191-10.035 14.627 0.18357 0.14939 6.7522-0.22542 14.597-0.8329l14.263-1.1045 2.1028-3.5c1.1565-1.925 4.4131-6.0463 7.2368-9.1585 2.8237-3.1122 6.4884-7.5926 8.1437-9.9565 3.8744-5.5327 9.9364-10.122 17.208-13.027 5.0183-2.0051 7.4999-2.3071 18.782-2.2859 7.15 0.0135 14.692 0.36156 16.76 0.77357 3.3721 0.67183 3.6498 0.95495 2.6919 2.7448-1.9966 3.7306-14.298 16.029-18.492 18.486-7.7221 4.5254-13.877 5.7751-28.824 5.8523l-13.864 0.0716-3.8859 4.3786c-2.1373 2.4082-3.8859 4.7622-3.8859 5.231 0 1.112 2.7998 1.6416 12.217 2.3109 13.244 0.94123 34.085 6.0246 37.113 9.0521 0.7811 0.7811 4.5139 2.3799 8.2952 3.5529s8.1125 2.5237 9.625 3.0016 2.75 0.51382 2.75 0.0798c0-1.2988-9.1454-5.8664-14.383-7.1835l-4.8832-1.2279 2.8832-1.5272c1.6076-0.85153 6.4225-1.7106 10.883-1.9418 7.3009-0.37842 8.4806-0.16329 13.5 2.4619 10.525 5.5046 13.068 16.107 5.2861 22.043-3.3204 2.5326-4.3698 2.7691-12.287 2.7691-7.8812 0-9.0926-0.26975-13.529-3.0127-5.6384-3.486-8.9702-8.4955-8.9702-13.487v-3.5l-8.7244-2.1904c-17.031-4.2757-43.984-5.4805-62.032-2.7729-10.437 1.5657-17.743 3.3459-17.743 4.323 0 0.29871 1.4625 2.9724 3.25 5.9414 2.5715 4.2714 4.4202 5.9915 8.8552 8.2399 12.289 6.2301 21.536 18.049 23.83 30.459 1.1403 6.1687 0.45031 22.144-0.99507 23.037-1.4531 0.89805-18.806-11.561-23.421-16.816-8.742-9.954-11.595-19.416-9.5354-31.625l1.1891-7.0499-3.2498-5.7729c-1.7874-3.1751-3.359-5.9181-3.4925-6.0956-0.55764-0.74143-21.819 6.9928-28.591 10.401-19.346 9.735-40.227 27.957-42.848 37.392-2.6137 9.408-0.73252 15.526 10.463 34.03 12.972 21.441 15.927 23.754 31.985 25.042 15.06 1.2084 20.874 3.5308 35.989 14.375 13.341 9.5718 20.406 11.634 72.07 21.035 35.04 6.376 45.147 8.32 94.5 18.176 28.875 5.7665 53.557 10.744 54.849 11.061 2.2523 0.553 2.1847 0.27291-1.6425-6.8065-2.1953-4.0608-10.126-18.756-17.624-32.655s-17.938-32.781-23.2-41.959c-6.5571-11.435-10.308-19.217-11.92-24.728-1.2934-4.4227-3.4617-10.741-4.8186-14.041-4.6996-11.43-2.2598-8.7177 16.192 18 13.745 19.902 84.07 124.14 86.624 128.4 0.65379 1.0896 0.31117 1.266-1.5616 0.80382-4.2178-1.0408-71.637-10.561-93.399-13.189-74.369-8.9804-113.18-12.507-154.5-14.039-9.075-0.33642-17.85-0.81456-19.5-1.0625s-26.4-0.73328-55-1.0784c-52.182-0.62976-77.78-6e-3 -131 3.19-58.938 3.5399-132.97 12.022-188.5 21.597-26.768 4.6157-27.001 4.6502-26.982 3.9957zm368.38-56.232c5.4456-1.0894 11.521-2.6646 13.5-3.5004l3.5988-1.5196-3.5-1.5164c-1.925-0.834-9.35-3.5446-16.5-6.0236-24.162-8.3774-36.898-15.967-53.376-31.808-8.8107-8.4702-20.317-22.116-23.061-27.349-0.67364-1.2846-1.4307-2.1297-1.6824-1.8781-0.56304 0.56305 4.9665 13.045 9.4585 21.35 9.1987 17.008 29.339 35.973 44.911 42.288 1.7875 0.72495 3.25 1.6389 3.25 2.031 0 1.0043-15.855 3.7385-33.258 5.7355-8.1168 0.93139-14.417 2.027-14 2.4347 1.2435 1.2164 33.765 2.7221 47.758 2.2112 7.15-0.26109 17.456-1.3661 22.901-2.4555zm-103.9-116.63c0.32522-2.0625 1.6479-7.125 2.9392-11.25l2.3479-7.5-4.6439-4.2956c-2.5542-2.3626-8.1836-6.0751-12.51-8.25-6.4412-3.2382-8.9094-3.9544-13.628-3.9544-3.9026 0-6.1636 0.4842-7.0071 1.5006-3.4938 4.2098-1.4099 18.886 3.3114 23.322 1.3054 1.2264 5.932 3.7422 10.281 5.5907 4.3493 1.8485 9.9328 4.5313 12.408 5.9619s4.8171 2.6064 5.2047 2.613c0.38758 7e-3 0.97078-1.6754 1.296-3.738zm-50.673-17.698c0.60015-5.1104-0.75345-7.3367-7.5769-12.462-7.4153-5.5698-8.1025-5.7318-15.597-3.6774-11.034 3.0244-10.532 3.0961-9.9264-1.4177 0.2951-2.2002 0.11465-3.995-0.40166-3.995-1.2957 0-13.326 4.0997-13.326 4.5413 0 0.61869 12.337 9.1227 16 11.029 4.0158 2.0899 27.996 9.4388 29.5 9.0404 0.55-0.1457 1.1476-1.5221 1.3281-3.0586zm-45.841-4.2062c0.28113-0.28113-1.025-1.8837-2.9026-3.5613-3.3391-2.9835-3.5775-3.0364-10.9-2.4174-4.1175 0.34806-8.7685 0.63284-10.336 0.63284-4.1731 0-3.4886 1.62 1.9009 4.4992 4.3577 2.328 5.451 2.4888 13.238 1.9477 4.6685-0.32444 8.7182-0.81991 8.9993-1.101zm106.4-6.2207c0.93072-2.4062 1.548-4.519 1.3718-4.6952-0.87659-0.8766-8.7633-2.1016-8.7633-1.3612 0 2.2287 4.3028 12.016 4.9564 11.274 0.40858-0.46379 1.5044-2.8119 2.4351-5.2181zm-55.391-7.2322c0-4.8827-0.28647-5.9971-1.429-5.5586-0.78595 0.3016-3.1484 0.85885-5.25 1.2383-2.1016 0.37949-4.1257 0.86214-4.4981 1.0726-0.94153 0.53205 8.3892 9.303 9.927 9.3316 0.86608 0.0161 1.25-1.8525 1.25-6.0838zm63-35.373c0-4.2828-2.43-10.671-6.1508-16.171-2.7976-4.1347-11.181-9.3497-15.031-9.3497-0.98406 0-6.4082 1.5564-12.054 3.4586-8.8565 2.9842-10.771 4.0391-13.956 7.6905-2.0302 2.3275-3.5069 4.5302-3.2815 4.8949 0.58741 0.95044 10.536-0.73806 20.723-3.517l8.75-2.3871v17.756l5.25 0.36728c2.8875 0.202 7.6125 0.45052 10.5 0.55226l5.25 0.18498zm9.4743-16.471c2.7083-5.2372 2.0207-8.4563-2.4362-11.406-2.1791-1.442-4.9888-4.0109-6.244-5.7085l-2.2821-3.0866-1.1644 5.8126c-1.3134 6.5567-1.0101 7.4928 4.3512 13.427 4.2317 4.684 5.753 4.872 7.7754 0.96119zm-42.754-12.626c5.0902-2.9831 5.1958-4.5823 0.53911-8.169l-3.2401-2.4956-2.5001 5.3706c-1.375 2.9538-2.5045 5.9331-2.5098 6.6206-0.0154 1.9766 2.9431 1.4677 7.711-1.3265zm24.873 0.42478c1.0982-1.777-2.5536-3.8483-6.7849-3.8483-4.8396 0-4.8629 1.2962-0.0589 3.2671 4.6927 1.9253 5.9472 2.0318 6.8438 0.58117zm21.406-5.9073c0-2.8175-0.1883-2.941-4.4853-2.941h-4.4853l3.7232 3.412c4.2036 3.8523 5.2475 3.7586 5.2475-0.47104zm-73.314-4.4964c0.34216-1.0278-7.4388-6.0247-8.1985-5.265-0.20978 0.20979 0.77058 1.8534 2.1786 3.6525 2.4416 3.1198 5.2663 3.8764 6.0199 1.6124zm265.31 142.15c-5.225-1.7407-11.898-4.4767-14.829-6.0801-7.1391-3.905-15.489-13.069-17.973-19.726-2.4805-6.646-4.304-19.785-2.7459-19.785 0.5989 0 4.3777 0.91138 8.3974 2.0253 20.886 5.7877 33.349 18.473 36.199 36.845 1.6417 10.581 1.9197 10.375-9.0478 6.7208zm31.401 0.0706c-9.1868-4.3776-12.906-13.065-9.7139-22.692 0.99737-3.0083 2.196-5.4697 2.6637-5.4697s1.6941 2.2228 2.7253 4.9396c1.0313 2.7168 2.5612 5.6257 3.3997 6.4643 1.3662 1.3662 1.5247 1.3108 1.5247-0.53307 0-1.1318-0.9-4.6736-2-7.8708-1.1-3.1972-2-5.9271-2-6.0664s2.3831 0.30072 5.2958 0.9778c11.877 2.7609 17.795 8.6997 18.51 18.574 0.39499 5.4608 0.22155 6.0145-2.9773 9.505-4.5593 4.975-10.096 5.6646-17.428 2.1709zm30.328-21.94c-7.6979-2.4935-14.644-10.808-14.706-17.603-0.0202-2.195 0.27198-2.3345 3.728-1.7795 2.0625 0.33119 6.3375 1.2498 9.5 2.0415 3.1625 0.79163 5.75 1.039 5.75 0.54984 0-1.3834-7.3664-4.8052-11.908-5.5314-4.9394-0.78983-5.1594-1.6154-0.84177-3.1584 6.4801-2.3159 11.412-2.5328 17.077-0.75089 11.309 3.5571 16.746 11.64 12.977 19.291-0.99239 2.0149-3.1543 4.4358-4.8043 5.3796-4.0368 2.3092-12.135 3.0631-16.772 1.5612zm-116.18-150.56c-27.641-38.417-82.01-115.24-96.363-136.16-3.585-5.225-6.8123-9.846-7.1718-10.269-0.35951-0.42285-7.1332 8.3522-15.053 19.5-17.518 24.66-26.153 36.053-44.421 58.608-7.7235 9.5364-14.82 18.311-15.771 19.5s-1.7378 1.6925-1.75 1.1198c-0.0238-1.1128 9.5351-17.922 28.126-49.459 6.3223-10.725 18.607-31.636 27.299-46.468 19.85-33.874 20.536-34.95 21.585-33.897 1.854 1.8615 53.58 87.117 68.477 112.86 3.1821 5.5 7.8849 13.6 10.451 18 18.601 31.9 32.159 55.715 31.876 55.991-0.18402 0.17978-3.4618-4.0197-7.284-9.3321z"/>
  <path d="m9.2692 498.21c0-0.40965 6.7992-10.404 50.33-73.985 29.64-43.292 36.281-52.973 46.634-67.98l7.4637-10.819 11.286-5.5008c6.2074-3.0255 11.286-5.3017 11.286-5.0583s-1.0381 1.835-2.3069 3.5369c-1.2688 1.7019-3.6848 5.3444-5.369 8.0944s-7.6828 12.2-13.33 21c-10.087 15.717-20.409 32.224-36.27 58-4.3995 7.15-9.1366 14.79-10.527 16.978-6.3992 10.071-16.257 26.796-15.966 27.087 0.17787 0.17787 17.861-2.3507 39.296-5.6191 64.577-9.8468 62.803-9.5062 71.228-13.67 7.5046-3.709 7.6263-3.7315 23.144-4.281 14.811-0.52447 15.936-0.71017 22.248-3.6734 3.6563-1.7166 11.306-6.252 17-10.079 20.386-13.701 27.111-16.477 44.166-18.232 5.3978-0.55528 10.578-1.4183 11.511-1.9178 7.2636-3.8873 6.9986-11.406-0.86683-24.593-5.2514-8.8047-12.958-25.316-12.959-27.766-4.3e-4 -0.67864-1.2807-3.9339-2.8451-7.2339-7.065-14.903-31.562-29.468-62.974-37.443-23.512-5.9689-45.095-2.8411-74.43 10.786-4.8125 2.2356-8.75 3.9308-8.75 3.7671 0-0.16372 0.9-2.9136 2-6.1108 1.1-3.1972 2-6.2414 2-6.765 0-1.4681-4.1286-0.13718-21.371 6.8893-8.7289 3.5572-16.034 6.3047-16.233 6.1057s3.0021-4.4947 7.1135-9.546l7.4754-9.1841h-18.193c-10.728 0-17.803-0.3667-17.243-0.89371 0.91575-0.8615 31.604-11.769 49.77-17.69 6.2624-2.0412 8.292-3.0741 7-3.5626-1.0008-0.37836-8.0071-1.7237-15.57-2.9897-7.5625-1.266-13.75-2.5619-13.75-2.88 0-0.31803 9.1793-3.6867 20.398-7.4859l20.398-6.9077-5.4913-6.0451c-5.2364-5.7645-8.2622-10.497-9.7105-15.187-0.61693-1.9979 0.56939-1.754 17.622 3.6237 17.717 5.5872 25.783 7.6523 25.783 6.6007 0-0.27956-0.8352-2.6624-1.856-5.2953s-2.1098-6.427-2.42-8.4314l-0.56398-3.6443 6.17 2.4638c10.966 4.3787 21.671 8.054 21.646 7.4315-0.0131-0.33364-0.84379-4.3335-1.846-8.8886-1.0022-4.5551-1.554-8.1523-1.2262-7.9937 0.32781 0.15858 4.871 2.4078 10.096 4.9984s11.525 5.3931 14 6.228l4.5 1.518-4.794-4.4366c-2.6367-2.4401-9.1582-6.8206-14.492-9.7343-9.1406-4.9932-21.214-14.951-21.214-17.496 0-0.69362 4.148-0.0286 11.221 1.7991 19.351 5 22.779 3.8962 22.779-7.3336 0-5.099-2.6997-19.945-4.6074-25.337-0.94313-2.6656 7.1617 5.1956 15.777 15.303l7.0179 8.2331 2.9831-2.9831c3.4263-3.4263 4.0534-3.5209 9.8292-1.4831 4.7919 1.6907 11 1.9939 11 0.53726 0-1.5253-11.449-8.8956-19.838-12.77-7.1642-3.3091-7.4857-3.589-4.9478-4.307 1.4928-0.42236 7.3124-1.2682 12.932-1.8795 5.6199-0.61138 10.389-1.283 10.599-1.4926s-1.4596-4.0417-3.7093-8.516c-2.2496-4.4743-4.9885-10.414-6.0864-13.199l-1.9962-5.0643 3.2732 1.9832c7.5085 4.5492 21.926 12.385 22.19 12.059 0.15664-0.19295 2.0001-3.9508 4.0966-8.3508 3.436-7.2113 3.8858-7.7535 4.562-5.5 0.41257 1.375 1.6933 5.7326 2.8461 9.6835 2.477 8.4892 5.5768 12.522 12.209 15.883 4.1413 2.0985 4.8697 2.2252 4.8697 0.84707 0-1.7089-6.1113-14.058-9.1886-18.567-0.99626-1.4599-1.8114-2.8666-1.8114-3.126s2.8125 0.13174 6.25 0.86924c9.8914 2.1222 9.3559 2.4652 10.677-6.8388 0.64417-4.5375 1.3994-9.7382 1.6783-11.557l0.50703-3.307 2.2475 3.307c1.2361 1.8188 4.5962 6.534 7.4668 10.478l5.2193 7.1711 9.4608-4.4211c5.2035-2.4316 9.6438-4.4211 9.8674-4.4211 0.22363 0-1.7876 6.8625-4.4694 15.25-2.6818 8.3875-4.8824 15.583-4.8902 15.991-8e-3 0.40741 2.1232-0.53571 4.7357-2.0958 2.6125-1.5601 7.3375-4.2598 10.5-5.9993l5.75-3.1627v7.0086c0 8.026-0.62973 7.6722 10.808 6.073 3.6804-0.51458 9.2597-1.1551 12.399-1.4233l5.707-0.48771-4.6117 6.9353c-2.5364 3.8144-4.4296 7.0714-4.207 7.2378 0.22257 0.16641 5.1297 1.3638 10.905 2.6609s11.142 2.6805 11.927 3.0742c0.88118 0.44208-3.2411 2.2355-10.779 4.6894-6.7132 2.1854-12.442 4.2092-12.73 4.4973-0.28809 0.28808 2.0234 3.2751 5.1366 6.6377 6.6857 7.2214 6.8617 7.1611-10.555 3.614-6.7513-1.375-12.663-2.5-13.138-2.5-0.47436 0-0.86248 2.247-0.86248 4.9934v4.9934l-6.5345-4.4737c-7.5773-5.1876-11.79-6.5858-15.769-5.2332-4.7394 1.6112-5.5769 4.1484-6.6889 20.264-0.56756 8.2258-1.1831 15.937-1.3678 17.136-0.37555 2.437 0.42533 2.7605 9.5365 3.8522l5.6766 0.68017-8.4266 5.5948c-4.6346 3.0772-8.4266 5.8878-8.4266 6.2459 0 0.35809 3.2625 2.1233 7.25 3.9226 14.689 6.6284 34.68 16.428 34.295 16.813-0.2177 0.21771-7.742-0.33433-16.721-1.2267-22.602-2.2465-22.825-2.2596-22.825-1.3452 0 0.44799 2.25 3.908 5 7.6889 2.75 3.7809 5 7.0713 5 7.312 0 0.24071-2.7102-0.22444-6.0227-1.0337s-6.3396-1.1544-6.727-0.76705c-0.38735 0.38735-0.86883 5.2896-1.0699 10.894-0.30855 8.5983-0.0276 11.088 1.7988 15.94 1.1905 3.1625 2.4269 5.75 2.7476 5.75 0.32068 0 4.9008-2.8703 10.178-6.3785 20.751-13.794 34.749-21.578 52.383-29.129 4.8333-2.0695 9.4458-4.7021 10.25-5.8503 2.1934-3.1315 1.7752-7.9939-1.2836-14.923-2.4249-5.4931-2.7463-7.4494-2.75-16.742-4e-3 -9.8777 0.19698-10.931 3.2805-17.193 1.9398-3.9395 6.0801-9.6553 10.112-13.959l6.8269-7.288 2.0012 3.9813c9.6826 19.263 7.5487 35.818-6.7646 52.481-4.4738 5.2083-8.3534 12.273-7.3116 13.315 0.26296 0.26297 3.0372-0.10671 6.1649-0.8215s9.1915-2.0672 13.475-3.0055l7.7883-1.7058 2.4877-4.9093c1.3682-2.7001 4.6568-7.3044 7.3078-10.232 4.7535-5.249 4.8278-5.4345 5.3756-13.427 1.1956-17.444 11.045-29.462 32.067-39.129l8.685-3.9935-6e-3 4.7042c-0.0281 22.827-10.178 36.566-33.443 45.271-3.9603 1.4818-6.5225 3.3275-9.3522 6.737-4.6596 5.6144-9.6479 13.085-9.0949 13.621 0.21799 0.21112 5.3463-1.2e-4 11.396-0.46942 6.05-0.46929 12.42-0.87618 14.155-0.90418 2.6446-0.0427 3.5686-0.75665 5.7118-4.4138 1.4062-2.3996 4.0843-5.704 5.9514-7.3433 1.867-1.6392 5.2091-5.6385 7.4268-8.8872 5.1322-7.518 7.3643-9.5221 14.766-13.258 9.8241-4.9586 20.933-5.9489 39.216-3.4958 5.1328 0.68868 4.9935 1.0928-3.6117 10.482-12.594 13.742-24.355 17.64-48.051 15.928l-5.4364-0.39292-4.8231 5.2453c-2.6527 2.8849-4.6098 5.5903-4.3492 6.012 0.26063 0.42171 4.6524 1.0449 9.7595 1.3849 15.892 1.058 35.909 5.7534 39.969 9.3755 0.92573 0.8259 5.8535 2.8091 10.951 4.4072 10.628 3.332 9.8662 3.1786 9.8662 1.9871 0-1.4947-6.7056-5.195-12.815-7.0717l-5.6846-1.7461 3-1.217c8.8714-3.5986 20.82-2.0323 27.389 3.5903 8.0101 6.8564 7.7694 15.134-0.58248 20.029-3.9532 2.3167-5.1924 2.54-11.757 2.1188-12.236-0.78527-20.537-7.2738-20.546-16.06-3e-3 -3.1887-0.43071-3.9419-2.7537-4.8512-13.106-5.1302-48.81-7.4513-68.913-4.4802-11.84 1.7498-17.337 3.2364-17.337 4.6889 0 0.48793 1.4002 3.1628 3.1116 5.9441 2.3974 3.8963 4.4148 5.7148 8.7899 7.9234 16.791 8.4758 26.146 25.132 24.459 43.55-1.0432 11.393-0.73433 11.221-9.7703 5.4317-10.275-6.5833-17.627-14.228-21.758-22.625-2.8791-5.8518-3.3163-7.7261-3.2168-13.789 0.0633-3.8593 0.57182-8.6403 1.13-10.624 0.91667-3.2583 0.69014-4.1292-2.3412-9-1.8458-2.966-3.5017-5.7973-3.6797-6.2918-0.48585-1.3496-19.011 5.078-28.984 10.056-17.574 8.7725-36.893 24.829-41.617 34.588-2.7255 5.6301-3.0397 13.559-0.74892 18.898 3.1854 7.4239 14.886 26.692 20.484 33.731 4.6234 5.8138 11.689 9.0983 19.641 9.1308 12.29 0.0503 24.223 4.4455 36.007 13.263 6.7662 5.0628 15.591 9.6876 22.993 12.05 4.9851 1.5907 21.848 4.9219 64.5 12.742 12.375 2.2688 48.275 9.2587 79.778 15.533 31.503 6.2744 57.498 11.408 57.767 11.408 0.26914 0-0.69824-2.3625-2.1497-5.25-4.4806-8.9135-34.132-63.041-44.124-80.546-4.2326-7.4152-8.1222-16.16-11.322-25.454-2.681-7.7868-4.7385-14.294-4.5722-14.46 0.56746-0.56746 3.4211 3.2064 14.273 18.876 20.794 30.025 88.103 130.03 88.879 132.05 0.42466 1.1067-4.7479 0.609-24.746-2.3809-83.214-12.441-156.53-20.084-230.28-24.004-25.606-1.3612-136.49-1.7575-160-0.57191-38.419 1.9375-52.958 2.7811-65 3.7712-53.978 4.4383-112.86 11.682-161.54 19.874-15.381 2.5883-27.965 4.5282-27.965 4.3109zm364.5-55.205c8.1573-1.4959 20.5-5.1308 20.5-6.0372 0-0.76162-7.1951-3.602-24.416-9.6386-12.477-4.3736-23.003-9.6781-32.479-16.367-13.257-9.3581-28.736-25.447-38.436-39.951-2.0182-3.0177-3.6694-5.1567-3.6694-4.7534 0 0.40329 1.9488 5.1615 4.3308 10.574 6.1276 13.923 14.485 26.258 24.538 36.215 8.1494 8.072 22.652 18.265 27.881 19.595 1.2375 0.31489 2.25 0.89259 2.25 1.2838 0 0.91403-23.047 4.6701-38.234 6.2311-6.4537 0.66337-11.483 1.4614-11.177 1.7735 0.30634 0.31205 7.8366 1.0936 16.734 1.7368 18.173 1.3137 43.13 0.997 52.177-0.66207zm-99.474-118.32c0.0142-2.305 1.1256-7.341 2.4698-11.191l2.444-7-4.2198-3.7912c-9.3955-8.4412-23.304-14.618-29.735-13.205-1.6402 0.36024-3.6577 1.6195-4.4834 2.7983-3.0979 4.4228-0.84336 18.248 3.6443 22.347 2.3978 2.1903 28.016 14.991 29.104 14.542 0.4125-0.16996 0.76162-2.195 0.77582-4.5zm-51.578-14.941c1.8985-6.1626 1.7206-6.9007-2.6511-10.996-2.3632-2.2141-6.2043-5.2553-8.5357-6.7584l-4.2389-2.7328-6.2611 1.7168c-12.386 3.3962-11.318 3.5569-10.905-1.642 0.2836-3.5658 0.0634-4.4517-0.99619-4.0089-0.74814 0.31265-3.9471 1.3792-7.1089 2.3701s-5.7492 2.1249-5.75 2.5201c-2e-3 1.1538 10.099 8.2896 16.04 11.331 4.7265 2.4196 25.057 9.0278 28.74 9.3416 0.70476 0.06 1.4547-0.45334 1.6665-1.1408zm-50.595-5.3925c3.3807-0.35335 6.1467-0.93205 6.1467-1.286s-1.7511-1.9894-3.8914-3.6344l-3.8914-2.9908-10.032 1.0268c-5.5179 0.56476-10.315 1.3125-10.66 1.6617-1.0432 1.0552 9.6385 5.8651 13.025 5.8651 1.7363 0 5.923-0.28911 9.3036-0.64246zm111.16-5.8935c1.2358-3.0448 1.9809-5.8019 1.6558-6.127-0.90779-0.90779-8.6704-2.1585-8.6704-1.3969 0 0.99446 4.1349 13.06 4.4757 13.06 0.16063 0 1.3032-2.4912 2.5389-5.5359zm-54.547-8.0482c0.38374-3.0713 0.5106-5.7713 0.28191-6-0.37699-0.377-11.829 1.5632-12.557 2.1273-0.59127 0.45851 9.318 9.4107 10.442 9.4337 0.63261 0.0129 1.4435-2.4479 1.8325-5.561zm61.959-40.038c-2.7126-10.417-7.5489-16.73-15.299-19.968-4.725-1.9745-6.3722-1.8141-17.125 1.6675-8.2917 2.6846-10.044 3.6686-13.752 7.7226-2.3375 2.5553-4.25 4.9872-4.25 5.4042 0 1.1377 8.2487-0.19497 19.75-3.1908l10.25-2.6699v17.478l8.75 0.64794c4.8125 0.35637 9.425 0.75518 10.25 0.88624 2.5934 0.41199 3.0077-1.905 1.4264-7.9773zm9.9824-12.201c3.0102-5.821 2.5214-7.8272-2.9088-11.94-2.75-2.0828-5.4442-4.788-5.9871-6.0116-1.4995-3.3794-2.133-2.7413-3.364 3.3882-1.2418 6.1835-1.322 5.9102 3.7093 12.637 4.0609 5.4294 6.4597 5.9698 8.5506 1.9263zm-43.552-12.103c6.4009-3.2655 6.7626-4.417 2.4925-7.9367-2.6883-2.2159-4.0692-2.7838-4.9639-2.0412-1.1357 0.94253-4.3853 9.1553-4.3853 11.083 0 1.3849 2.8886 0.91936 6.8567-1.105zm26.143-0.59692c0-1.9681-3.2253-3.4762-7.4343-3.4762-4.9013 0-4.4658 1.3739 1.1843 3.7363 5.0046 2.0925 6.25 2.0406 6.25-0.26012zm21-4.4762c0-1.65-0.1125-3.2988-0.25-3.6639-0.39729-1.055-8.75-1.4963-8.75-0.46224 0 1.0066 7.0149 7.0374 8.25 7.0926 0.4125 0.0184 0.75-1.3165 0.75-2.9665zm-73.314-5.5555c0.36863-1.1073-7.4688-5.9946-8.2924-5.171-0.26145 0.26145 0.72645 1.9036 2.1953 3.6493 2.5636 3.0467 5.3574 3.7439 6.0971 1.5217zm263.81 141.63c-4.4-1.5258-9.8531-3.7208-12.118-4.8777-6.3886-3.2633-15.004-11.726-17.842-17.525-2.4453-4.998-5.5756-20.97-4.35-22.196 0.32356-0.32356 3.4235 0.14638 6.8887 1.0443 21.318 5.524 34.882 18.952 37.861 37.479 1.7129 10.655 2.1063 10.426-10.44 6.0752zm36.264 1.9291c-11.636-3.5037-16.981-15.45-11.858-26.504 1.6086-3.4708 1.9471-3.7354 2.5586-2 2.8672 8.1369 5.728 12.66 6.8296 10.799 0.25987-0.43921-0.51928-3.8361-1.7314-7.5486-2.541-7.7824-2.5043-7.8126 6.3151-5.1936 10.144 3.0125 16.072 11.321 14.807 20.752-0.60453 4.5071-2.9283 7.4354-7.4033 9.3295-3.5714 1.5116-5.4714 1.5848-9.5181 0.36628zm23.107-25.01c-4.6767-2.4712-8.5231-7.0802-9.827-11.775-1.9965-7.1888-1.7592-7.2894 9.956-4.2189 8.5511 2.2412 9 2.3003 9 1.1841 0-1.4274-7.4677-5.0754-11.811-5.77-5.0304-0.80439-5.3296-1.8825-0.92571-3.3359 6.1233-2.0209 14.033-1.5475 20.031 1.1989 11.017 5.0439 13.493 16.599 4.8079 22.438-4.505 3.029-15.747 3.1766-21.231 0.27864zm-108.95-144.36c-1.9697-2.826-15.675-22.013-30.456-42.638-25.083-34.999-60.367-85.042-71.78-101.8-2.7354-4.0174-5.3096-6.9424-5.7205-6.5-0.41093 0.44235-7.8402 10.704-16.51 22.804-14.775 20.622-23.247 31.976-32.897 44.089-15.497 19.452-26.08 32.219-26.422 31.876-0.48691-0.48691 6.2673-12.315 32.815-57.466 11.157-18.975 23.448-39.9 27.314-46.5 12.044-20.564 15.994-26.647 16.756-25.809 3.4118 3.7492 56.059 91.546 87.434 145.81 9.2223 15.95 18.339 31.617 20.259 34.815 1.9204 3.1983 3.3334 5.9606 3.1401 6.1382s-1.9631-1.9891-3.9328-4.8152z"/>
  <path d="m678.16 498.56c-1.2702-1.2702-85.405-12.611-136.89-18.452-44.584-5.058-71.714-7.1128-128-9.6942-43.395-1.9902-134.22-1.4625-176.5 1.0256-24.659 1.451-69.236 4.8809-79 6.0787-2.2 0.26986-13.9 1.6366-26 3.0371-34.33 3.9736-64.648 8.1861-93.651 13.012-14.658 2.4391-27.121 4.4347-27.696 4.4347-0.57453 0 3.3184-6.4222 8.651-14.271 28.286-41.635 41.691-61.209 72.751-106.23 9.866-14.3 18.841-27.325 19.944-28.945 1.3185-1.9359 5.602-4.7399 12.503-8.1845 5.7736-2.8818 10.858-5.2692 11.298-5.3052 0.44049-0.036-0.29362 1.397-1.6314 3.1845-4.0449 5.4048-31.616 49.053-55.112 87.25-25.436 41.35-26.78 43.611-26.239 44.151 0.37651 0.3765 85.308-12.362 98.182-14.726 3.3-0.60592 7.3994-1.9597 9.1097-3.0084 6.8335-4.19 11.623-5.2345 26.89-5.8643 17.753-0.73238 19.864-1.4915 39.02-14.032 20.806-13.62 27.188-16.176 44.997-18.023 11.267-1.1683 13.166-1.9953 15.075-6.5656 2.0633-4.9382 0.66272-9.667-6.4229-21.685-6.0694-10.294-8.3802-15.385-12.775-28.144-3.3551-9.7406-8.7383-16.375-18.614-22.941-19.959-13.27-48.879-22.663-69.781-22.663-14.836 0-34.957 5.3752-51.641 13.796-2.1225 1.0712-4.8561 2.2558-6.0746 2.6324l-2.2156 0.68476 1.9656-5.713c1.0811-3.1422 1.9656-6.0926 1.9656-6.5565 0-1.9912-3.7394-0.72493-29.898 10.125-4.0691 1.6877-7.5298 2.9372-7.6903 2.7766-0.16051-0.16051 3.0667-4.4437 7.1716-9.5182l7.4634-9.2264-18.273-0.0304c-10.948-0.0182-17.672-0.38158-16.773-0.90644 2.1454-1.253 23.838-9.0178 42.227-15.115 8.6497-2.868 15.486-5.6046 15.191-6.0814s-1.2967-0.85232-2.2267-0.83454c-2.9623 0.0566-27.191-4.4576-27.191-5.0662 0-0.3214 2.1375-1.3193 4.75-2.2175s11.473-3.9192 19.689-6.7133c8.2165-2.7941 15.071-5.2116 15.231-5.3722 0.16065-0.16066-2.175-2.9631-5.1903-6.2276-4.7435-5.1355-10.893-15.229-9.9254-16.291 0.17827-0.19578 7.8889 1.9984 17.135 4.876 17.716 5.5136 25.169 7.4546 25.884 6.7401 0.23758-0.23758-0.39806-2.8683-1.4125-5.846-1.0145-2.9778-2.1228-6.8434-2.4628-8.5903l-0.61831-3.1762 4.2102 1.8579c7.5783 3.3442 23.71 8.9243 23.709 8.2013-2e-3 -1.4413-3.1178-15.59-3.6084-16.384-0.86674-1.4024 0.33372-0.93385 5.6731 2.2144 6.2346 3.6761 22.062 10.17 22.854 9.3774 1.2633-1.2633-8.807-8.3977-23.298-16.506-7.5231-4.2094-18.023-13.941-15.83-14.672 0.5422-0.18074 5.6489 0.85462 11.348 2.3008 13.258 3.3642 18.536 3.6279 20.443 1.0213 2.1534-2.9445 1.7091-14.608-0.98628-25.892l-2.3489-9.8332 3.9559 3.8332c3.0139 2.9204 16.535 18.441 18.525 21.265 0.1673 0.2374 1.8165-1.0342 3.6649-2.8257l3.3607-3.2573 5.3058 1.5757c5.537 1.6443 12.96 2.1187 12.919 0.82566-0.0425-1.3395-12.272-9.07-20.44-12.921l-7.9641-3.7545 3.5807-0.74396c1.9694-0.40918 7.7105-1.1582 12.758-1.6645 5.0475-0.50629 9.3902-1.1334 9.6504-1.3937s-1.5115-4.703-3.9372-9.8728c-2.4257-5.1698-5.1315-11.138-6.0129-13.262l-1.6026-3.8623 2.7162 1.7797c1.4939 0.97884 7.2296 4.3554 12.746 7.5034 9.7418 5.5594 10.056 5.6622 10.955 3.5826 0.5087-1.1776 2.291-4.9701 3.9606-8.4277l3.0356-6.2866 2.0977 7.7866c3.2931 12.224 5.3662 15.414 12.482 19.206 3.3771 1.8 6.3793 3.0335 6.6717 2.7412 0.29231-0.29232-2.1282-5.6565-5.3788-11.92l-5.9103-11.389 5.5583 1.3085c3.0571 0.7197 6.5208 1.3156 7.697 1.3242 2.3448 0.0171 2.3579-0.0265 4.4493-14.869 0.94112-6.679 1.3898-8.0014 2.2054-6.5 0.56312 1.0367 3.7448 5.7099 7.0704 10.385s6.1505 8.6588 6.2775 8.8528c0.22349 0.34137 7.808-3.0632 15.703-7.049l3.8445-1.9408-0.64903 2.955c-0.35697 1.6253-2.5588 8.8561-4.893 16.069-2.3342 7.2124-3.9971 13.111-3.6955 13.107 0.30165-4e-3 1.8984-0.92744 3.5484-2.0529 3.1169-2.1261 16.055-8.9405 16.975-8.9405 0.28873 0 0.52496 2.85 0.52496 6.3333 0 3.4833 0.23648 6.5698 0.52552 6.8588 0.28903 0.28903 2.7664 0.11822 5.5053-0.37959 5.5907-1.0161 21.969-2.5662 21.969-2.0791 0 0.17356-1.8538 3.2508-4.1195 6.8383-2.2657 3.5875-3.9532 6.6738-3.75 6.8586 0.20321 0.18472 5.7301 1.5745 12.282 3.0884l11.913 2.7525-7.9126 2.8993c-4.3519 1.5946-9.8327 3.389-12.18 3.9874s-4.5381 1.5267-4.8694 2.0628c-0.33131 0.53607 1.7875 3.3946 4.7084 6.3523 2.9209 2.9577 5.0332 5.6552 4.6938 5.9945-0.58566 0.58565-26.394-4.2196-28.003-5.2138-0.41974-0.25942-0.76317 1.5049-0.76317 3.9207 0 2.4158-0.27164 4.664-0.60364 4.996-0.332 0.332-3.249-1.2021-6.4822-3.409-9.7915-6.6836-15.74-7.1088-19.485-1.3928-1.5743 2.4026-2.1653 7.6192-3.6289 32.032l-0.29978 5 14.893 2-8.1965 5.3761c-4.5081 2.9568-8.1965 5.6646-8.1965 6.0174 0 0.3527 9.2308 5.0902 20.513 10.528 11.282 5.4376 20.377 10.023 20.21 10.189s-6.3598-0.31953-13.763-1.0802c-12.197-1.2532-23.243-1.9779-25.217-1.6543-0.41643 0.0682 1.7388 3.4991 4.7894 7.6241 3.2288 4.366 4.9697 7.5 4.1661 7.5-0.75924 0-3.5685-0.6585-6.2427-1.4633-2.6742-0.80483-5.0084-1.3172-5.1869-1.1387-0.17855 0.17854-0.75072 4.0605-1.2715 8.6266-0.74543 6.5359-0.62179 9.7312 0.58122 15.02 2.6843 11.802 1.7653 11.813 20.58-0.25112 18.45-11.83 32.866-19.678 46.69-25.415 5.1413-2.1336 9.7674-4.6625 10.28-5.6198 1.7329-3.2353 1.1925-8.3019-1.6315-15.296-7.1206-17.635-2.8596-34.903 12.278-49.759l4.8869-4.7958 3.1203 6.7958c8.1264 17.699 5.8812 32.672-7.2701 48.486-5.0591 6.0832-9.2394 13.416-8.2261 14.429 0.2216 0.2216 6.3712-0.95204 13.666-2.6081s13.432-3.011 13.639-3.011 1.4843-2.1872 2.839-4.8605c1.3546-2.6733 4.7372-7.3489 7.5168-10.39 4.6318-5.0679 5.0538-5.9389 5.0538-10.429 0-14.378 7.253-26.829 21.003-36.055 4.4117-2.96 17.434-9.2652 19.136-9.2652 1.3199 0 0.99351 8.714-0.60981 16.28-3.3826 15.963-12.97 25.82-31.435 32.317-4.0623 1.4294-6.5104 3.1807-9.8486 7.0455-4.5033 5.2137-9.1571 12.144-9.2141 13.72-0.0172 0.47495 1.8813 0.59721 4.2188 0.27168 2.3375-0.32552 8.6707-0.70354 14.074-0.84004l9.8238-0.24818 4.4512-6.2378c2.4482-3.4308 5.181-6.6462 6.0729-7.1454 0.8919-0.49913 3.6931-4.0027 6.2249-7.7856 9.9881-14.924 25.824-20.18 51.364-17.046l6.7606 0.82947-2.2372 3.1418c-4.4238 6.2126-14.381 15.465-19.284 17.92-2.75 1.3767-7.4448 3.0793-10.433 3.7836-5.8343 1.3752-19.787 1.653-25.043 0.49868-2.959-0.64992-3.6488-0.26004-8.6204 4.8729-2.9722 3.0686-5.404 5.9705-5.404 6.4486s4.6125 1.161 10.25 1.5176c13.841 0.87551 30.593 4.7904 39.25 9.1728 6.6688 3.376 20.403 7.9131 21.285 7.0315 1.5486-1.5486-7.8594-6.9093-14.22-8.1025l-3.8247-0.71753 3.178-1.3363c9.5763-4.0265 21.634-2.0752 28.287 4.5776 7.1293 7.1294 4.6858 16.931-5.0196 20.134-7.8908 2.6042-21.981-1.5328-26.597-7.8091-1.0513-1.4293-2.1173-4.7419-2.369-7.3612-0.51651-5.3754 0.40462-4.8372-13.72-8.0164-13.368-3.009-45.468-3.812-59.382-1.4855-5.6228 0.9402-11.763 2.2425-13.645 2.894l-3.4215 1.1846 3.873 6.1254c3.2027 5.0653 4.8092 6.554 9.2831 8.6022 11.54 5.2834 21.401 18.542 23.623 31.762 0.92925 5.5299 0.18048 20.322-1.0932 21.596-0.15241 0.15241-4.6203-2.6228-9.9287-6.1672-18.343-12.248-25.372-25.197-22.544-41.535l1.3165-7.6068-3.1257-5.6448c-1.7191-3.1047-3.4082-5.9274-3.7535-6.2726-0.90354-0.90355-16.479 4.1243-25.471 8.2221-15.599 7.1086-36.573 23.171-43.076 32.989-4.3454 6.5604-5.6129 13.514-3.6612 20.086 1.7373 5.8501 16.015 29.924 21.899 36.924 4.9092 5.8406 8.8368 7.5003 20.108 8.497 15.338 1.3563 21.443 3.868 39.458 16.233 12.424 8.5274 18.387 10.112 81.542 21.665 26.443 4.8373 76.566 14.61 113.3 22.091 13.916 2.8339 25.501 4.9539 25.744 4.711 0.67217-0.67216-25.562-49.386-44.583-82.788-4.8549-8.525-9.5897-18.2-10.522-21.5s-2.9875-9.2742-4.5675-13.276c-1.58-4.0018-2.8728-7.5159-2.8728-7.809 0-2.5052 8.1178 8.9728 47.112 66.613 47.384 70.042 57.268 84.926 56.744 85.449-0.28763 0.28763-0.72175 0.32418-0.96471 0.0812zm-303.39-55.534c7.8505-1.4815 19.5-5.0985 19.5-6.0544 0-0.95499-5.2377-3.0679-21.289-8.588-16.816-5.7832-26.42-10.72-38.377-19.727-13.839-10.425-31.906-30.041-37.292-40.49-0.66221-1.2846-1.413-2.1267-1.6684-1.8713-0.80209 0.8021 7.3067 18.625 12.324 27.088 7.3089 12.328 24.023 28.623 36.029 35.123 5.0743 2.7477 9.2368 5.2551 9.25 5.5722 0.0296 0.71283-23.708 4.5005-38.226 6.0996-5.9125 0.65121-10.75 1.5077-10.75 1.9033s5.7375 1.0148 12.75 1.376 13.425 0.83522 14.25 1.0533c3.0166 0.7975 37.675-0.3856 43.5-1.4849zm-100.5-116.99c0-2.179 1.1315-7.4665 2.5144-11.75l2.5144-7.7881-4.6261-4.2635c-8.9028-8.2051-23.472-14.44-29.945-12.815-5.6401 1.4156-7.4459 11.369-3.6101 19.897 2.5987 5.778 5.1921 7.7948 16.152 12.561 5.225 2.2722 10.85 4.9959 12.5 6.0527 4.2032 2.6922 4.5 2.5672 4.5-1.8942zm-50.562-19.288c0.66673-4.0847 0.52588-4.4004-3.6222-8.1166-2.3737-2.1266-6.1747-5.1488-8.4466-6.716l-4.1307-2.8493-17.239 4.7428v-4.4888c0-3.1987-0.35925-4.3409-1.25-3.9744-0.6875 0.2829-3.725 1.3096-6.75 2.2816-6.9087 2.2199-6.6653 1.978-4.4525 4.4232 4.5946 5.0769 16.866 11.384 29.367 15.094 6.9222 2.0544 13.316 3.7618 14.208 3.7942 1.1483 0.0418 1.8249-1.1827 2.3159-4.191zm-50.653-2.4022c2.907-0.34914 5.1372-1.0796 4.956-1.6232-0.18121-0.5436-2.1097-2.2207-4.2855-3.7269l-3.956-2.7385-10.25 1.0134c-5.6375 0.55734-10.25 1.3904-10.25 1.8512 0 0.46083 2.1375 1.9506 4.75 3.3105 4.9763 2.5904 9.5618 3.0514 19.036 1.9135zm111.83-11.897c-0.30629-0.79818-1.6592-1.4512-3.0065-1.4512-1.3473 0-3.1614-0.27315-4.0314-0.60699-2.1863-0.83895-2.0243 1.2726 0.62952 8.2075l2.2113 5.7785 2.377-5.2383c1.3073-2.8811 2.1264-5.8913 1.8201-6.6895zm-55.922-2.8088c0.38032-3.685 0.21336-5.6424-0.48127-5.6424-1.2722 0-11.557 2.2402-12.086 2.6326-0.20363 0.15099 2.0464 2.5092 5 5.2405s5.7336 4.6163 6.1778 4.1889c0.44416-0.42743 1.0696-3.3162 1.3899-6.4196zm62.593-35.679c-0.30126-6.4244-5.7499-16.582-11.065-20.628-6.5713-5.0021-9.8143-5.1849-22.016-1.2411-9.2623 2.9936-10.898 3.8821-14.333 7.7835-2.1322 2.4223-3.8767 4.8418-3.8767 5.3769 0 1.6106 21.011-2.3893 27.85-5.302l2.3504-1.0009-0.3504 8.963-0.35041 8.963 7.5 0.61372c4.125 0.33755 8.4 0.75834 9.5 0.93508 4.4445 0.71413 5.0088 0.18836 4.7907-4.4632zm10.822-19.372c1.0742-3.9786 1.0141-4.16-2.1825-6.5912-4.8574-3.6943-8.534-7.3224-9.1301-9.0096-0.84629-2.3954-1.7337-0.71839-2.8686 5.421l-1.0605 5.737 4.1416 5.3682c2.2779 2.9525 4.6693 5.5604 5.3144 5.7954 1.95 0.71015 4.6156-2.3861 5.7858-6.7207zm-42.358-10.218 3.5492-2.7071-3.7567-3.4428c-3.1528-2.8893-3.9696-3.2242-5.0811-2.0832-1.5565 1.5977-5.4453 11.547-4.7752 12.217 0.91289 0.9129 6.5905-1.3346 10.064-3.9838zm23.094 1.1634c0.19161-0.98852-0.25839-2.1818-1-2.6518-1.7122-1.0851-9.8484-1.153-9.8484-0.0822 0 1.0258 8.1718 5.1534 9.5 4.7985 0.55-0.14696 1.1568-1.076 1.3484-2.0645zm21.419-4.787c0.27194-1.7875 0.29645-3.5875 0.0545-4-0.62722-1.0693-9.3219-0.93271-9.3219 0.14641 0 1.0809 6.716 7.1036 7.9213 7.1036 0.46844 0 1.0742-1.4625 1.3461-3.25zm-74.247-4.2742c0.69572-0.83829 1.0883-1.659 0.87244-1.8238-3.5701-2.7258-7.1292-4.7397-7.9139-4.4782-1.0345 0.34484 3.8013 7.8262 5.0587 7.8262 0.39481 0 1.2871-0.68588 1.9828-1.5242zm266.48 141.08c-22.603-7.248-33.093-18.098-35.74-36.965-0.58783-4.1891-0.85538-7.83-0.59456-8.0908 0.87119-0.87119 14.886 3.5026 21.399 6.6785 12.09 5.8947 21.553 18.675 22.952 30.999 0.33232 2.9263 0.8106 6.333 1.0628 7.5705 0.55775 2.7364 0.0199 2.7249-9.0795-0.19296zm34.338 1.271c-4.9912-1.3425-11.438-7.0857-12.889-11.482-1.3918-4.2172-0.70414-12.032 1.4132-16.059l1.4655-2.7874 0.71488 3c1.0647 4.4678 4.6315 10.5 6.2087 10.5 0.84257 0 1.1864-0.68403 0.87962-1.75-0.277-0.9625-1.0611-3.775-1.7425-6.25s-1.6652-5.0625-2.1862-5.75c-1.2269-1.6188-0.40269-1.5834 6.7984 0.29225 6.665 1.736 11.79 5.1856 13.972 9.4045 6.5214 12.611-1.7107 24.357-14.634 20.881zm25.307-23.898c-4.1605-1.6664-8.1309-5.0026-9.829-8.2589-2.0186-3.871-3.386-10.671-2.1457-10.671 0.49606 0 4.7264 0.95921 9.4008 2.1316 4.6744 1.1724 8.8139 1.8166 9.1989 1.4316 1.0772-1.0772-3.8059-4.4277-8.2701-5.6745-7.4506-2.0808-7.1878-1.9125-5-3.2022 1.1-0.64847 5.375-1.1807 9.5-1.1828 5.8307-3e-3 8.5488 0.51287 12.212 2.3172 10.511 5.1772 11.967 17.496 2.6305 22.259-4.0721 2.0774-13.502 2.5303-17.698 0.84984zm-112.4-147.18c-2.4245-3.4375-9.5834-13.45-15.909-22.25-27.937-38.868-68.482-96.218-83.713-118.41l-6.4582-9.4101-2.3416 2.9101c-1.2879 1.6006-5.7972 7.8601-10.021 13.91-10.272 14.714-31.28 42.845-40.415 54.119-4.0641 5.0156-10.885 13.453-15.158 18.75-4.2728 5.297-8.028 9.6308-8.345 9.6308-0.31698 0 0.65884-2.1375 2.1685-4.75 2.9914-5.1767 47.643-81.324 52.921-90.25 1.7888-3.025 7.1796-12.171 11.98-20.325 4.8-8.1539 8.906-14.647 9.1242-14.428 0.5365 0.5365 18.368 29.437 30.698 49.754 19.358 31.897 21.556 35.61 54.76 92.5 17.963 30.777 25.818 44.5 25.473 44.5-0.19554 0-2.3392-2.8125-4.7637-6.25z"/>
  <path d="m10.269 497.49c0-0.36564 8.2002-12.664 18.223-27.329 30.322-44.37 59.978-87.654 72.976-106.51l12.301-17.848 10.852-5.4018c5.9683-2.971 11.045-5.4018 11.282-5.4018s-0.96705 1.9125-2.6748 4.25c-5.4846 7.5072-28.061 43.16-57.466 90.75-17.036 27.572-23.749 39.077-23.151 39.675 0.30474 0.30474 14.19-1.5672 30.856-4.1598 16.666-2.5926 39.302-6.0467 50.302-7.6758 18.051-2.6732 20.876-3.3638 28.992-7.085 8.966-4.1114 9.036-4.125 24.5-4.7776 18.44-0.77821 19.935-1.312 39.008-13.928 20.549-13.592 24.883-15.39 42.303-17.546 12.705-1.5729 16.16-2.9596 17.742-7.1201 2.0369-5.3575 2.1064-5.163-9.794-27.383-2.7984-5.225-6.5542-13.729-8.3462-18.897-1.792-5.1686-4.6781-11.469-6.4137-14-6.9054-10.072-23.839-20.43-45.74-27.976-32.172-11.087-53.051-9.7692-87.008 5.4897-5.366 2.4113-9.9384 4.3842-10.161 4.3842s0.67751-2.9834 2.0001-6.6298l2.4047-6.6298-3.4316 0.55688c-1.8874 0.30628-10.528 3.4967-19.201 7.0898-8.6729 3.5931-15.863 6.4384-15.977 6.323-0.1145-0.11548 3.103-4.26 7.15-9.21l7.3581-9-17.693-0.5c-15.785-0.44607-17.37-0.64302-14.693-1.826 3.445-1.5227 39.248-14.174 40.113-14.174 0.3149 0 3.9059-1.1834 7.9799-2.6297 7.495-2.6608 9.4345-4.3703 4.9581-4.3703-3.03 0-23.375-3.7755-25.886-4.8038-1.2998-0.53228 4.1751-2.7744 18.763-7.684l20.598-6.9324-5.9121-6.0399c-5.5353-5.6549-10.62-13.618-9.9221-15.538 0.16964-0.46656 6.6084 1.1506 14.308 3.5936 16.537 5.247 27.732 8.269 28.685 7.7436 0.37694-0.20773-0.16531-2.3007-1.205-4.6511-1.0397-2.3504-2.1932-6.1672-2.5633-8.4817l-0.67293-4.2083 3.8779 1.413c2.1329 0.77717 8.129 3.014 13.325 4.9706 5.1958 1.9567 9.6391 3.3653 9.8742 3.1302s-0.27652-3.9235-1.1368-8.1965c-0.86026-4.2731-1.3928-7.9405-1.1835-8.1498s2.7698 0.98169 5.69 2.6468c6.7103 3.8262 20.862 9.468 21.685 8.645 0.98824-0.98824-7.8057-8.0768-14.376-11.588-11.394-6.0889-18.318-10.942-21.97-15.398-2.0154-2.4595-3.3494-4.4719-2.9645-4.4719s6.4968 1.4345 13.582 3.1878c14.989 3.7093 17.603 3.4142 19.566-2.2092 1.4269-4.0876 0.87126-10.972-1.8461-22.871-1.0541-4.6159-1.7299-8.5792-1.5017-8.8073 0.30578-0.30578 19.267 20.673 21.358 23.631 0.16785 0.2374 1.8384-1.0544 3.7122-2.8706l3.407-3.3022 4.7561 1.6206c4.8691 1.6591 13.431 2.2169 13.361 0.87058-0.078-1.5-9.234-7.4617-18.656-12.147l-9.6463-4.7972 8.9884-1.1527c4.9436-0.63399 10.384-1.1527 12.089-1.1527 4.3226 0 6.5301-0.96768 5.399-2.3668-0.97538-1.2065-11.135-23.208-11.135-24.114 0-0.58464 7.8215 3.6534 17.892 9.6949 3.5158 2.1091 6.5021 3.7113 6.6363 3.5604s1.9532-4.0314 4.0422-8.6234l3.7981-8.3491 1.7913 7.5914c2.414 10.23 5.0704 15.096 9.909 18.15 4.7131 2.9753 8.9907 4.7298 9.7297 3.9908 0.28681-0.28682-2.0161-5.4744-5.1176-11.528-3.1015-6.0536-5.3111-10.991-4.9102-10.971 0.4009 0.0193 3.6496 0.66112 7.2194 1.4262s6.608 1.2735 6.7517 1.1299c0.14367-0.14367 0.94929-4.948 1.7902-10.676 0.84097-5.7282 1.6357-10.776 1.766-11.218 0.13035-0.4417 3.379 3.7056 7.2193 9.2163 3.8403 5.5107 7.3288 10.035 7.7523 10.053 0.42349 0.0185 4.811-1.9958 9.75-4.4764s8.9786-4.168 8.9768-3.75c-2e-3 0.41802-2.1981 7.51-4.8807 15.76-2.6826 8.25-4.7253 15.168-4.5394 15.374 0.18588 0.20568 2.0447-0.64101 4.1307-1.8815 5.0132-2.9813 16.105-8.9924 16.592-8.9924 0.21188 0 0.48322 3.0271 0.603 6.7268 0.11977 3.6998 0.34286 6.8519 0.49574 7.0048s2.4918-0.14188 5.1976-0.65502c2.7058-0.51315 8.9159-1.2572 13.8-1.6536l8.8805-0.72056-4.1383 6.0939c-2.276 3.3516-4.1383 6.53-4.1383 7.0632s5.4879 2.2284 12.195 3.7672l12.195 2.7979-12.945 4.2583c-7.1199 2.3421-13.106 4.2715-13.303 4.2877-0.19674 0.0161 2.1895 2.7806 5.3027 6.1433s5.4781 6.2963 5.2553 6.5191c-0.22284 0.22285-6.7647-0.8853-14.537-2.4626-7.7728-1.5772-14.364-2.6358-14.648-2.3524s-0.51527 2.4645-0.51527 4.8469v4.3317l-4.8577-3.4899c-5.4416-3.9094-11.068-6.5068-14.094-6.5068-1.109 0-3.4592 1.2892-5.2228 2.865l-3.2064 2.865-1.1332 17.385c-0.62326 9.5618-0.84306 17.732-0.48844 18.156 0.35461 0.424 3.6603 1.0525 7.3459 1.3967l6.7011 0.62576-8.022 5.3708c-4.4121 2.9539-8.022 5.83-8.022 6.3913 0 0.5613 3.7125 2.6784 8.25 4.7047 14.823 6.6196 33.319 16.258 30.25 15.765-6.5316-1.0505-36.786-3.5723-37.253-3.1051-0.27362 0.27362 1.8653 3.6847 4.7531 7.5802 2.8878 3.8955 5.0608 7.2725 4.8288 7.5045s-2.855-0.22004-5.8288-1.0045c-2.9738-0.78449-5.5736-1.2597-5.7773-1.056-0.20367 0.20366-0.87849 3.3371-1.4996 6.9632-1.2908 7.5354-0.19114 16.421 2.9036 23.464l1.8733 4.2628 6-4.2199c17.637-12.404 36.488-23.084 55.467-31.422 10.665-4.6854 11.567-5.3008 12.896-8.7919 1.3554-3.5611 1.2628-4.1761-1.8035-11.977-3.9051-9.9351-4.735-16.595-3.1078-24.94 1.6233-8.3259 5.773-15.898 13.258-24.191l6.1443-6.8078 2.2319 4.3916c4.0306 7.931 5.6409 15.356 5.2417 24.17-0.45403 10.024-3.4082 16.974-11.332 26.66-5.0582 6.1826-9.2071 13.616-8.1754 14.648 0.42069 0.42069 27.863-5.3293 28.076-5.8827 1.6037-4.1692 5.8465-10.71 10.142-15.635 3.0169-3.4593 5.2598-6.6545 4.9842-7.1005-0.27563-0.44599-0.068-4.2272 0.46141-8.4028 1.9365-15.273 10.683-25.984 28.26-34.607 5.6338-2.7638 10.63-5.0252 11.102-5.0252 1.1842 0-0.14539 13.301-1.9993 20-3.6186 13.076-11.462 20.94-27.033 27.103-8.8889 3.5186-14.129 7.9921-19.241 16.427-1.8419 3.0391-3.1739 5.6875-2.96 5.8852 0.21389 0.19775 6.7529 0.12405 14.531-0.16376l14.142-0.5233 2.0428-3.614c1.1235-1.9877 3.6579-5.189 5.6319-7.114 1.974-1.925 5.885-6.7633 8.6911-10.752 5.6784-8.0712 12.723-13.254 21.517-15.829 5.5494-1.6251 20.767-1.9598 30.545-0.67185l5.7125 0.75243-5.7125 6.7725c-3.1418 3.7249-8.1113 8.5558-11.043 10.735-8.1424 6.0528-13.403 7.4082-29.169 7.5146-7.425 0.0501-14.516 0.43448-15.757 0.85413-2.1591 0.72978-9.2426 8.9817-9.2426 10.767 0 0.47091 1.9243 0.8562 4.2762 0.8562 11.34 0 36.814 5.0336 44.067 8.7074 4.8048 2.4338 2.1354 2.6391-6.048 0.46523-22.861-6.0729-60.048-6.0973-79.045-0.0518-1.7875 0.56884-3.2363 1.3368-3.2195 1.7067 0.0168 0.36985 1.7043 3.1401 3.75 6.1561 2.8183 4.155 5.2773 6.3357 10.149 9 8.5504 4.6764 15.186 11.474 19.243 19.714 3.2181 6.5353 3.3272 7.157 3.3272 18.945 0 6.7034-0.31999 12.509-0.71109 12.9-0.3911 0.39184-4.074-1.3836-8.1841-3.9453-9.7147-6.0549-19.829-16.908-22.561-24.209-2.235-5.9737-2.7349-16.493-1.0611-22.329 0.87085-3.0365 0.58-4.1483-2.549-9.7434-1.9426-3.4737-4.0965-6.3158-4.7866-6.3158-2.6725 0-21.513 6.8948-28.575 10.457-11.062 5.5801-22.583 13.955-31.632 22.992-9.4876 9.4764-11.776 13.745-11.819 22.05-0.035 6.7153 2.0444 11.485 12.179 27.935 12.717 20.642 14.511 21.992 31.939 24.035 13.673 1.6024 20.025 3.8308 29.523 10.357 11.547 7.9338 16.979 11.118 22.716 13.319 5.9038 2.2645 23.806 5.9327 79.521 16.294 32.397 6.0251 48.006 9.0818 105.25 20.612 11.688 2.3541 21.5 4.0308 21.805 3.726s-2.8984-7.0169-7.1183-14.916c-13.097-24.515-36.522-67.003-41.184-74.699-2.4447-4.0357-5.2436-10.111-6.2197-13.5-0.97613-3.3894-3.1694-9.7386-4.8739-14.11-1.7045-4.3709-2.9308-8.1154-2.7251-8.3211 0.57566-0.57567 14.052 18.762 46.53 66.768 33.353 49.299 57.002 84.999 56.301 84.993-0.42156-4e-3 -6.6165-0.87889-13.766-1.9451-31.346-4.6742-69.607-9.9122-87.5-11.979-4.675-0.53995-20.2-2.3317-34.5-3.9817-117.43-13.549-253.42-15.239-366-4.5469-52.916 5.0257-131.43 15.606-163.75 22.068-1.5125 0.30237-2.75 0.2506-2.75-0.11505zm367-54.933c9.2773-1.9835 17-4.4733 17-5.4807 0-1.1044-3.814-2.7213-19.496-8.2649-16.85-5.9566-23.756-9.174-33.568-15.639-15.825-10.427-30.281-24.922-41.556-41.667-2.9593-4.3951-5.3806-7.6347-5.3806-7.199 0 1.9344 8.5709 20.667 12.179 26.62 11.245 18.55 26.622 32.996 43.821 41.167 2.4497 1.1639 3.0499 1.8298 2 2.219-2.6342 0.97637-26.116 4.5812-37.5 5.7569-16.711 1.7259-16.136 2.4476 3.0258 3.793 19.508 1.3697 50.104 0.69824 59.474-1.3051zm-102.74-117.81c0.29886-2.8875 1.5297-8.175 2.7352-11.75l2.1918-6.5-5.1176-4.7064c-6.3921-5.8785-17.887-11.64-24.856-12.459-4.5808-0.53824-5.5984-0.3246-7.6546 1.6071-3.3154 3.1146-3.9998 8.0419-2.0491 14.752 2.4251 8.342 3.9167 9.9462 13.359 14.367 4.7455 2.2219 11.103 5.3553 14.128 6.963 3.025 1.6077 5.7746 2.9351 6.1101 2.9498 0.33555 0.0147 0.85461-2.3358 1.1535-5.2234zm-50.748-17.845c0.63017-3.7299 0.39278-4.4044-2.6621-7.5633-1.8447-1.9075-5.7257-5.0449-8.6245-6.972l-5.2706-3.5038-16.959 4.8882v-4.377c0-2.4074-0.1125-4.371-0.25-4.3636-0.1375 7e-3 -3.5335 1.061-7.5466 2.3415l-7.2966 2.3282 3.912 3.5342c6.2511 5.6474 16.493 10.796 28.515 14.336 15.021 4.4223 15.328 4.41 16.182-0.64832zm-51.266-2.4145c3.1625-0.34884 5.75-1.0141 5.75-1.4783s-1.6875-2.1771-3.75-3.8064c-3.7254-2.943-3.8057-2.9571-12.25-2.147-4.675 0.44851-9.5125 0.84379-10.75 0.8784-1.2375 0.0346-2.25 0.53203-2.25 1.1054 0 1.7085 12.224 7.032 15 6.5323 1.375-0.24756 5.0875-0.73552 8.25-1.0844zm111.39-6.7863c1.2176-2.8622 1.9094-5.489 1.5374-5.8372-0.70564-0.66051-10.177-2.2224-10.176-1.6781 2.7e-4 0.1712 0.91827 2.7863 2.04 5.8113s2.2571 6.1269 2.523 6.8931c0.66732 1.9226 1.5026 0.85915 4.0755-5.1891zm-55.269-2.9541c0.74636-2.785 0.81746-10.229 0.10451-10.942-0.46815-0.46815-11.33 2.0586-12.402 2.885-0.48802 0.37624 10.093 10.193 11.061 10.262 0.34835 0.025 0.90471-0.96711 1.2364-2.2046zm63.63-38.145c0-8.6532-7.3696-21.677-14.292-25.256-6.5639-3.3943-8.207-3.3854-18.558 0.10034-5.4109 1.8222-10.728 3.7897-11.817 4.3721-1.979 1.0591-7.3336 8.0667-7.3336 9.5975 0 1.23 9.6272-0.23041 19.592-2.9721 4.8914-1.3458 9.2804-2.4468 9.7532-2.4468 0.4728 0 0.70097 3.8258 0.50703 8.5017l-0.35262 8.5017 3 0.49174c3.6241 0.59405 9.5037 1.1094 15.25 1.3367 3.8636 0.15282 4.25-0.0496 4.25-2.2266zm8.2153-17.692c1.0103-1.3532 2.0924-4.0342 2.4045-5.9578 0.53995-3.3273 0.31604-3.6604-4.6027-6.8477-2.8437-1.8426-5.658-4.4207-6.2542-5.7291-1.9899-4.3674-3.1124-2.8835-4.2518 5.6211-0.56651 4.2284-0.32466 4.8508 4.0065 10.312 2.5352 3.1967 5.116 5.6433 5.7351 5.437 0.61915-0.20639 1.9524-1.4824 2.9627-2.8356zm-41.465-13.524c2.3375-1.3606 4.25-2.7709 4.25-3.134 0-1.1696-6.3522-7.2554-7.573-7.2554-1.0919 0-4.2168 6.2708-5.9231 11.886-0.67459 2.22-0.52588 2.3371 2.1355 1.6816 1.5733-0.38752 4.7731-1.8178 7.1106-3.1783zm24.098 0.14752c0.19161-0.98852-0.25839-2.1818-1-2.6518-1.8519-1.1736-9.8484-1.1111-9.8484 0.077 0 1.1019 7.9898 4.984 9.5 4.6159 0.55-0.13407 1.1568-1.0526 1.3484-2.0411zm21.522-4.6397c0.86669-4.3334 0.21821-4.8973-5.6325-4.8973h-5.1439l3.9059 4c2.1482 2.2 4.4333 4 5.078 4s1.4513-1.3962 1.7926-3.1027zm-73.853-4.2867c1.7861-1.306 1.6029-1.578-3.0494-4.5284-5.6897-3.6083-6.8032-2.6986-2.9233 2.3882 3.031 3.9738 3.3223 4.0782 5.9727 2.1402zm264.98 140.46c-23.687-8.2142-32.62-18.233-34.985-39.239l-0.63761-5.6635 7.7134 1.976c17.703 4.535 29.652 14.104 34.778 27.851 2.1784 5.842 3.6756 18.028 2.2022 17.925-0.58918-0.0414-4.6712-1.3237-9.0712-2.8495zm-56.174-175.83c-21.848-29.977-87.367-122.68-95.759-135.48-2.7872-4.2537-5.5176-7.7322-6.0676-7.7302-0.55 0.0021-4.0189 4.3823-7.7088 9.7339-15.319 22.219-34.095 47.487-46.613 62.73-4.0649 4.95-10.527 12.938-14.361 17.75s-7.1381 8.75-7.343 8.75c-0.49444 0 5.7597-11.017 17.03-30 14.765-24.869 29.168-49.372 38.501-65.5 4.7742-8.25 11.304-19.409 14.511-24.798l5.8303-9.7982 4.0768 6.6629c2.2422 3.6646 6.8056 10.999 10.141 16.298 3.3352 5.2995 17.109 28.085 30.608 50.635 22.416 37.446 33.422 56.198 54.579 93 4.1105 7.15 7.6747 13.338 7.9204 13.75s0.25041 0.75 0.0105 0.75c-0.23988 0-2.6499-3.0375-5.3556-6.75z"/>
 </g>
</svg>
