<svg version="1.1" id="Layer_1" xmlns="http://www.w3.org/2000/svg" xmlns:xlink="http://www.w3.org/1999/xlink" x="0px" y="0px"
	 width="100%" viewBox="0 0 1008 336" enable-background="new 0 0 1008 336" xml:space="preserve">
<path fill="currentColor" opacity="1.000000" stroke="none"
	d="
M9.468660,337.000000
	C17.848757,322.703583 26.606205,308.349579 35.570789,294.126190
	C45.429947,278.483398 55.560390,263.011505 65.407341,247.361160
	C69.450615,240.934967 76.312927,239.336746 82.098366,235.864624
	C82.541191,236.246902 82.984016,236.629166 83.426842,237.011429
	C66.534790,266.622681 49.642735,296.233948 32.504108,326.277435
	C38.526173,327.930237 43.572952,326.204102 48.477032,325.413971
	C64.393059,322.849487 80.359589,320.696747 96.337410,318.595825
	C98.679970,318.287781 100.870537,317.587433 102.723938,316.007629
	C107.773590,311.703400 113.777184,310.688171 120.076729,311.536255
	C127.571625,312.545288 134.167206,310.979187 140.299072,306.445740
	C145.381149,302.688416 150.834991,299.429321 156.164612,296.012665
	C162.199661,292.143768 168.683914,290.030090 176.002029,290.513031
	C181.920807,290.903595 184.700241,286.998779 182.453842,281.475739
	C181.209991,278.417511 179.406860,275.556824 177.624695,272.754089
	C174.391632,267.669525 171.271820,262.434052 169.692429,256.672791
	C167.026825,246.949295 160.961609,240.347214 152.384537,235.764343
	C137.426849,227.772247 122.096878,221.243851 104.501350,222.232758
	C92.681419,222.897064 82.247246,227.473053 71.830070,232.368271
	C70.475754,233.004684 69.137466,233.680954 67.753677,234.245407
	C67.335541,234.415970 66.789024,234.271805 66.238266,234.271805
	C64.446304,231.880569 67.537193,229.513901 65.954254,226.523087
	C57.627979,226.993530 51.022297,233.336487 42.265530,234.979645
	C42.834583,231.233231 45.518322,229.328323 47.163719,226.843460
	C47.887150,225.750931 49.022030,224.713348 48.330135,223.265793
	C47.630875,221.802795 46.095787,221.993774 44.798431,221.984558
	C39.182480,221.944656 33.566090,221.967468 27.797379,221.001419
	C38.444691,214.350861 50.657272,212.010986 62.261528,206.729614
	C57.611622,203.025620 52.001865,204.392914 47.016792,201.291748
	C55.426723,196.406128 64.544525,194.544083 73.527054,190.680435
	C70.254372,185.143982 64.328079,181.547272 63.428726,174.155838
	C73.725304,176.464706 82.773003,180.970108 92.986603,182.361160
	C93.489136,178.431137 90.340790,175.120255 91.484077,170.625824
	C97.573410,171.390213 102.659706,175.432510 108.914452,176.202454
	C109.862381,172.500244 107.170143,169.074554 108.466751,164.467575
	C113.144531,167.073639 117.424812,169.829819 122.524155,170.908417
	C114.925697,165.001587 104.348755,162.563095 99.785889,152.372559
	C104.145363,151.361267 107.440811,153.342392 110.877174,154.234161
	C123.005287,157.381561 125.554031,155.027328 122.918068,142.839127
	C121.983994,138.520157 120.983917,134.215469 119.712181,128.562881
	C127.264938,133.518829 130.993484,140.404770 137.084091,145.908661
	C140.598724,139.966644 145.274445,145.198654 150.524811,144.610931
	C145.593979,139.229233 138.975464,138.108765 133.571304,134.041489
	C138.951080,130.832474 144.627853,131.787064 150.063919,130.454926
	C149.213226,124.202866 144.618439,119.402740 143.814056,112.519455
	C150.405411,114.445953 154.887833,119.300987 160.923569,121.442352
	C163.754990,118.623245 163.388275,113.786140 167.392197,111.299675
	C170.328796,118.233452 169.923141,127.026497 179.375931,130.331589
	C178.088058,124.839554 173.932297,121.113983 173.148865,116.103943
	C173.741547,115.840492 174.045700,115.579735 174.335678,115.594650
	C182.930801,116.036613 182.890274,116.034027 184.388428,107.313171
	C184.660172,105.731438 184.255890,103.968376 185.678329,102.202171
	C189.215973,105.066757 191.559937,108.849609 194.016876,112.463890
	C195.636215,114.846008 197.051880,115.445061 199.719971,113.916595
	C202.536484,112.303108 205.374954,110.462120 209.376785,109.929718
	C208.801437,116.624466 206.245178,122.417007 204.424683,128.849747
	C209.255341,128.723541 212.101654,124.502594 216.487595,124.126900
	C218.331604,126.684547 217.551498,129.927353 218.762436,132.917511
	C224.758545,133.305557 230.646561,130.412689 237.028366,131.788269
	C236.566071,135.328506 233.128174,137.141479 232.912659,140.667618
	C237.109833,143.997513 243.085678,142.758560 248.034668,145.941696
	C243.291748,149.577072 237.382767,149.452026 232.755890,152.548447
	C233.345200,156.295151 237.699387,157.467239 238.602539,161.426865
	C231.695618,162.162994 225.546600,158.684601 219.123276,158.919189
	C217.456207,160.414398 218.771606,162.679642 217.228790,164.326187
	C214.417877,164.250809 213.017242,161.571686 210.815048,160.302109
	C208.146973,158.763931 205.478745,157.197952 202.401520,158.791443
	C199.451538,160.319016 199.259506,163.234329 199.289307,166.168396
	C199.329926,170.169693 199.017624,174.138504 198.501099,178.119934
	C197.688522,184.383270 198.225342,184.880325 204.539200,185.647018
	C205.515274,185.765533 206.482407,185.957611 207.826004,186.176270
	C206.313187,190.888016 200.712616,191.053223 198.398651,195.470398
	C207.265839,200.365417 216.888824,203.529419 225.157608,209.434113
	C216.696442,211.080841 208.481796,207.760147 199.890472,208.688400
	C200.574646,212.729111 204.894485,214.663605 205.161850,218.728043
	C202.346588,219.656540 200.204666,217.335266 197.041199,217.965836
	C195.372482,224.943893 196.025787,231.901688 198.535950,238.822830
	C201.379929,238.921005 202.804886,237.051086 204.501007,235.877182
	C216.312317,227.702515 228.491531,220.227600 241.956848,215.008240
	C248.357025,212.527435 249.426361,210.299316 246.709030,203.905106
	C243.113525,195.444458 242.874771,187.174194 246.565338,178.734497
	C249.163284,172.793503 253.601746,168.429199 258.197540,163.560135
	C270.214691,181.172256 264.511719,195.823654 251.653687,209.406250
	C258.486969,211.370239 267.299500,207.783981 270.981903,203.486786
	C275.865601,197.787750 278.571960,191.803543 279.699310,184.167328
	C281.428314,172.456100 294.545197,161.464767 306.431885,159.730423
	C309.903870,170.951752 303.452545,185.165421 292.130066,191.233002
	C287.059326,193.950348 281.053070,195.092392 277.413055,200.218430
	C276.169647,201.969452 274.525330,203.439987 273.840363,205.949707
	C277.743622,207.431107 281.656769,205.924240 285.461945,206.210114
	C290.212433,206.567001 292.021240,203.570435 294.430542,200.466812
	C296.873962,197.319229 299.263306,194.126007 301.721619,190.989777
	C309.269409,181.360596 319.435150,177.798553 331.345825,179.210129
	C334.676910,179.604904 338.402222,178.945297 341.313080,181.432892
	C336.264282,193.978882 320.691956,202.290222 305.781464,199.878189
	C300.236572,198.981201 297.405243,201.420044 294.185150,206.606186
	C310.259094,206.500595 324.503906,210.978241 338.296844,217.263092
	C336.076843,214.545029 332.262024,215.089493 329.777679,212.860123
	C337.067596,206.332626 351.043579,211.079559 353.725311,217.235703
	C356.373993,223.315842 353.026031,228.980164 345.742340,230.245605
	C336.463409,231.857666 329.386414,227.470490 326.861267,218.297058
	C326.349548,216.438141 325.519012,215.267670 323.763428,214.840256
	C305.383484,210.365707 287.004700,209.073578 268.653748,215.002304
	C268.524292,215.044128 268.447205,215.248169 268.191498,215.571213
	C268.897461,220.021286 272.139465,222.255341 275.867004,224.403061
	C292.112610,233.763336 293.915771,246.848450 291.780121,261.421478
	C291.741272,261.686737 291.357544,261.901398 291.131409,262.136536
	C278.344482,259.873962 265.658417,242.624313 267.418243,229.942154
	C267.669617,228.130737 267.863464,226.290405 267.843628,224.466064
	C267.771576,217.834869 264.502472,215.332092 258.366791,217.357178
	C244.867065,221.812759 232.784653,228.684662 222.953949,239.088333
	C215.105988,247.393692 214.587280,252.533676 220.376999,262.324005
	C223.428848,267.484589 226.925858,272.389526 229.835648,277.624573
	C233.323288,283.899200 238.701904,286.479340 245.515686,286.340118
	C253.204742,286.183075 260.385101,288.280518 265.871796,293.283051
	C276.088257,302.597961 288.496399,305.529633 301.446686,307.485107
	C339.112793,313.172729 376.499695,320.366180 413.761047,328.241272
	C415.365509,328.580353 416.968079,329.162506 418.810669,328.174194
	C406.550903,300.092194 385.841217,276.277008 377.007233,246.361008
	C379.430847,245.617325 379.951050,247.229065 380.612701,248.150787
	C401.594238,277.379395 422.812927,306.441315 442.935608,336.660919
	C418.645782,337.000000 394.291534,337.000000 369.132141,336.801422
	C364.203461,336.110504 360.072693,335.671967 355.957672,335.116791
	C333.869965,332.136749 311.648926,330.671844 289.421387,329.334290
	C275.491638,328.496094 261.526093,328.340302 247.590408,327.735840
	C221.110580,326.587311 194.673386,327.725769 168.253952,328.716614
	C147.833939,329.482452 127.453384,331.570892 107.089897,333.446899
	C98.363449,334.250824 89.527435,334.593475 81.000000,337.000000
	C57.312439,337.000000 33.624878,337.000000 9.468660,337.000000
M224.610260,301.852539
	C226.227142,303.114746 228.894852,303.006683 229.602554,305.752777
	C225.467194,307.862122 220.907867,307.746857 216.552277,308.597656
	C212.390701,309.410522 208.091019,309.131714 203.947388,310.006592
	C220.611618,311.078888 237.301254,313.240143 254.017410,307.017212
	C228.318253,299.902740 207.112747,286.627869 192.077866,264.450073
	C199.096359,279.976685 208.989746,292.942841 224.610260,301.852539
M151.420349,216.745056
	C154.284866,227.926285 165.414474,227.180756 172.948700,232.960617
	C173.499985,229.768265 173.746414,227.819534 174.180908,225.913681
	C176.292740,216.650330 175.768753,215.315872 167.566605,210.422806
	C165.723511,209.323257 163.802261,208.274643 161.791885,207.549454
	C153.417603,204.528717 150.447662,206.945724 151.420349,216.745056
M164.218536,165.826111
	C155.603134,168.364960 154.805099,168.916565 153.354111,173.476608
	C159.694199,173.477448 165.428391,170.371094 171.616806,169.709213
	C172.686234,173.149994 172.060959,176.153458 172.217804,179.106323
	C172.299866,180.651260 172.337387,182.408737 174.305252,182.502380
	C177.848236,182.670959 181.421692,183.755020 184.982010,182.713440
	C183.883987,169.707565 175.063248,162.254654 164.218536,165.826111
M120.234573,208.460434
	C118.810333,208.669281 117.501030,209.847809 116.194786,209.125214
	C114.564651,207.929596 115.489754,205.570023 113.547546,204.783432
	C111.978676,205.075928 110.241882,205.005234 109.224152,206.628616
	C109.398811,208.278534 110.765625,208.785919 111.856949,209.460785
	C118.853722,213.787460 126.388969,216.845932 134.365479,218.818970
	C135.735413,219.157806 137.346069,220.163300 138.309845,218.213257
	C139.066772,216.681717 138.307587,215.320343 137.464645,214.025803
	C133.821930,208.431549 128.538208,206.605392 120.234573,208.460434
M183.562500,163.995850
	C185.133331,166.646423 186.687225,169.316116 189.998657,170.057068
	C193.494690,164.866455 192.568924,163.044510 184.712708,159.178894
	C183.752121,160.391846 183.414001,161.796066 183.562500,163.995850
M102.124214,215.186279
	C102.954132,214.828568 104.167213,215.211105 104.543877,213.956055
	C100.978767,211.379715 96.106201,211.477997 92.423836,214.242889
	C95.232155,216.434525 98.368393,215.519730 102.124214,215.186279
M140.929764,203.389267
	C139.538712,203.475739 137.896866,202.977432 137.130219,205.305405
	C138.637100,206.473465 139.544540,208.494278 142.037872,209.150986
	C142.688904,207.014160 143.066925,205.205582 140.929764,203.389267
M161.267517,156.672043
	C159.284027,157.631271 158.549026,159.137512 159.048218,161.939606
	C160.973419,160.286957 165.114944,160.695816 161.267517,156.672043
z"/>
<path fill="currentColor" opacity="1.000000" stroke="none"
	d="
M782.468018,133.513824
	C779.022461,129.422699 775.718628,125.668671 772.628784,121.746094
	C769.091309,117.255081 765.142151,113.778610 758.934387,113.849045
	C757.616577,113.864006 755.901550,113.763344 754.706177,112.266388
	C755.128235,109.428879 757.484192,110.045387 759.251526,110.022224
	C763.591675,109.965317 767.901489,109.820442 772.101013,108.574615
	C778.809875,106.584358 782.917358,101.784309 783.661133,95.047523
	C784.562927,86.879631 781.665771,80.754204 775.224670,77.362099
	C768.366943,73.750610 761.123474,73.999374 753.788513,75.335991
	C751.617065,75.731682 751.408691,77.415924 751.407288,79.140480
	C751.390625,98.959686 751.411316,118.778954 751.379272,138.598129
	C751.370911,143.779572 755.478699,145.107071 759.000122,147.532227
	C748.852844,147.532227 738.705566,147.532227 727.672974,147.532227
	C734.776672,142.586411 734.790894,142.586411 734.791077,133.948654
	C734.791443,117.626770 734.792053,101.304848 734.753845,84.983032
	C734.740112,79.113029 736.415588,72.362839 727.667236,71.449097
	C727.878723,69.749222 728.691711,69.750397 729.266174,69.760643
	C745.236877,70.045685 761.236206,68.719925 777.179321,70.652855
	C782.033691,71.241386 786.636230,72.596397 790.958313,74.831184
	C805.032349,82.108360 805.821960,98.793938 792.576294,107.468491
	C789.648010,109.386238 786.329590,110.418137 782.535156,112.141602
	C796.266602,123.676826 802.956055,142.668442 822.928589,146.294601
	C815.609802,153.746689 794.685913,147.236954 782.468018,133.513824
z"/>
<path fill="currentColor" opacity="1.000000" stroke="none"
	d="
M544.759033,189.200592
	C530.895996,177.778610 515.520996,175.274582 499.021606,180.570251
	C490.482697,183.310913 483.887360,189.109741 480.093018,197.391281
	C473.658051,211.436371 473.301758,225.881287 479.403412,240.018890
	C486.962341,257.533142 506.615295,265.506012 527.576416,260.238922
	C536.046082,258.110687 538.196106,256.820221 550.344360,246.431030
	C551.710938,251.235138 551.452698,255.736984 550.646118,260.212677
	C550.391479,261.625549 548.847351,262.058228 547.544128,262.433136
	C528.247437,267.984741 508.832764,270.718964 488.990540,265.229156
	C467.354370,259.243011 453.869995,244.801178 452.159668,222.485886
	C450.702209,203.470123 458.295532,187.538284 479.394958,177.948257
	C495.184784,170.771515 511.988312,170.346436 528.908508,173.120667
	C534.649414,174.061951 540.335205,175.335312 546.056091,176.404022
	C547.976501,176.762787 549.671631,177.293732 549.862244,179.612411
	C550.254578,184.386459 550.214600,189.141617 549.549438,194.313171
	C546.652893,193.390121 546.476379,190.813431 544.759033,189.200592
z"/>
<path fill="currentColor" opacity="1.000000" stroke="none"
	d="
M423.562225,132.559769
	C433.186707,112.190079 442.663727,92.165802 452.135986,72.139275
	C452.990570,70.332390 453.873047,68.535355 454.641113,66.691505
	C456.860168,61.364525 456.376434,60.107079 451.091492,57.302387
	C450.485474,56.980797 449.922729,56.708927 449.806213,55.163994
	C457.433624,54.835876 465.031525,53.385910 472.468628,56.661087
	C474.822968,57.697895 475.595886,60.024982 476.654602,62.074608
	C488.810364,85.607491 500.948151,109.149673 513.087097,132.691238
	C515.894653,138.136078 518.294922,143.898041 525.237183,146.858688
	C520.824341,148.985992 516.981262,147.557114 513.389038,148.147934
	C504.031799,149.686813 498.419159,145.790833 495.204559,136.974182
	C493.163300,131.375656 489.879669,126.239609 487.334106,120.811302
	C486.103760,118.187675 484.334717,117.225807 481.464447,117.249390
	C468.633820,117.354797 455.801239,117.349052 442.970612,117.239433
	C440.031128,117.214317 438.404938,118.391449 437.272491,121.021263
	C434.309021,127.903259 431.111603,134.684143 428.111206,141.550690
	C425.162079,148.299957 419.977814,150.155807 412.111511,146.615585
	C418.218781,143.693146 420.703827,138.213364 423.562225,132.559769
M453.547150,110.886261
	C462.714569,110.886261 471.881989,110.886261 482.234589,110.886261
	C474.826965,96.309563 468.138428,83.147827 460.984070,69.069504
	C457.378906,76.946266 454.190369,83.525764 451.340607,90.248894
	C448.537842,96.861092 444.291809,102.896301 442.521515,110.078476
	C446.268250,111.363495 449.449829,110.696045 453.547150,110.886261
z"/>
<path fill="currentColor" opacity="1.000000" stroke="none"
	d="
M661.358337,225.170776
	C663.032166,244.734497 648.348694,259.762115 632.293518,264.383026
	C615.243408,269.290283 598.842773,268.478973 584.012573,258.158630
	C559.842407,241.338638 561.595947,207.923233 587.944275,194.721573
	C608.269287,184.537888 628.963318,185.661804 647.845886,199.526413
	C656.195862,205.657440 660.539734,214.330124 661.358337,225.170776
M638.783142,207.778488
	C627.979431,189.247131 602.583313,188.062241 591.259827,206.196136
	C583.094421,219.272690 583.750732,233.615112 590.363892,247.277344
	C595.301636,257.478394 604.250854,262.766235 615.513916,262.190735
	C627.484741,261.579071 636.272278,255.393585 640.514099,243.819427
	C644.889404,231.881241 644.645630,220.028458 638.783142,207.778488
z"/>
<path fill="currentColor" opacity="1.000000" stroke="none"
	d="
M683.807373,75.266838
	C676.501160,75.256622 669.669189,75.319595 662.839722,75.213661
	C659.836121,75.167084 658.170471,75.972008 658.234009,79.409134
	C658.369507,86.736916 658.326965,94.071716 658.167969,101.399529
	C658.096863,104.678802 659.439514,105.843475 662.625244,105.715935
	C671.266785,105.369957 679.945679,106.316895 688.563049,104.874763
	C690.343140,104.576866 692.358826,104.238670 693.956604,105.226860
	C695.821838,106.380508 695.438782,108.498840 695.007141,110.234673
	C694.455872,112.451538 692.552612,112.066856 690.893250,111.808876
	C681.608154,110.365257 672.263916,111.319855 662.950012,111.067299
	C659.639648,110.977547 658.065063,112.105576 658.142578,115.656578
	C658.302551,122.983849 658.209351,130.317032 658.185425,137.647690
	C658.177490,140.076981 658.686401,142.011337 661.677185,141.967377
	C673.153198,141.798691 684.649658,142.753555 696.100586,141.132736
	C701.038635,140.433792 704.969910,137.708344 708.931519,134.809845
	C711.542969,142.787170 708.087891,148.086273 700.749023,148.082687
	C680.422913,148.072723 660.096619,148.075912 639.770874,147.982437
	C638.118164,147.974838 636.084106,148.876465 634.462402,146.436935
	C641.504456,144.989136 641.691040,139.742691 641.659546,134.173264
	C641.569092,118.179207 641.690247,102.183968 641.606201,86.189842
	C641.573486,79.953217 643.818787,72.467613 633.559387,71.435165
	C635.380493,69.003540 637.173157,69.745544 638.680115,69.740936
	C657.506897,69.683289 676.333923,69.691742 695.160889,69.694275
	C702.324524,69.695236 702.383911,69.708656 702.317078,76.889015
	C702.297913,78.940575 703.019653,81.161560 701.148743,83.651009
	C697.217041,77.156326 691.380371,74.816345 683.807373,75.266838
z"/>
<path fill="currentColor" opacity="1.000000" stroke="none"
	d="
M850.173706,196.277710
	C848.686279,193.347763 845.582031,193.210052 843.481689,191.575714
	C845.206238,189.296890 847.363281,190.062103 849.215637,190.055817
	C867.034485,189.995361 884.853638,190.004044 902.672668,190.028091
	C911.246521,190.039658 911.289429,190.073441 911.337463,198.444504
	C911.346497,200.014465 912.054871,201.717987 910.343750,203.987000
	C906.058472,194.472763 897.689453,196.366272 890.043640,196.243759
	C883.883484,196.145065 877.718567,196.322205 871.559509,196.195786
	C868.533325,196.133652 867.391418,197.383865 867.421326,200.337265
	C867.488647,206.997391 867.488281,213.661743 867.316895,220.319275
	C867.228760,223.740814 868.574585,225.132370 872.005737,225.068512
	C881.327515,224.895020 890.652649,224.914932 899.975830,224.803192
	C902.638855,224.771301 904.686035,225.210342 904.257324,228.607346
	C903.881226,231.588486 901.622925,231.094543 899.693970,231.092102
	C890.702209,231.080704 881.707642,231.144165 872.719971,230.931778
	C868.587097,230.834122 867.158691,232.453354 867.315735,236.532242
	C867.571777,243.183807 867.475769,249.853729 867.354980,256.512756
	C867.305115,259.264008 868.328003,260.581604 871.094482,260.461090
	C882.871155,259.948151 894.699707,261.199493 906.439148,259.422272
	C910.627502,258.788177 914.041992,256.319611 917.718872,254.369095
	C919.621460,261.827667 916.555054,266.128906 909.560608,266.134674
	C888.910706,266.151733 868.260742,266.159668 847.610840,266.164032
	C846.473999,266.164276 845.270569,266.474304 844.271301,265.570160
	C844.271301,265.261383 844.198792,264.687683 844.281616,264.664307
	C850.355469,262.949188 850.842224,258.417511 850.785156,253.038849
	C850.603149,235.888336 850.789856,218.734055 850.793701,201.581223
	C850.794067,199.931610 850.512695,198.281921 850.173706,196.277710
z"/>
<path fill="currentColor" opacity="1.000000" stroke="none"
	d="
M989.993469,266.202942
	C970.652405,266.202545 951.810181,266.202545 932.967957,266.202545
	C932.560608,265.647247 932.153198,265.091980 931.745789,264.536682
	C941.087585,263.221130 939.623230,256.754791 939.636536,251.058624
	C939.671387,236.064102 939.577637,221.069061 939.667786,206.075012
	C939.705505,199.794067 940.752808,193.165298 931.718567,192.253738
	C932.766663,189.572189 934.465515,190.084793 935.824707,190.081665
	C953.984436,190.039963 972.144592,189.974686 990.303772,190.075836
	C1000.330566,190.131668 1001.919006,192.534210 999.502991,203.191559
	C998.151245,203.754379 997.778564,202.653046 997.286987,201.837463
	C994.889832,197.860611 991.167114,196.332397 986.752991,196.295166
	C978.090088,196.222061 969.424011,196.371628 960.763977,196.194168
	C957.218018,196.121506 956.084106,197.576630 956.158264,200.933929
	C956.305420,207.594864 956.323242,214.264023 956.162109,220.924164
	C956.080444,224.299118 957.208923,225.838120 960.743713,225.673965
	C969.381653,225.272858 978.062073,226.337372 986.677002,224.943878
	C987.329834,224.838272 988.007141,224.883911 988.673096,224.860321
	C990.770996,224.785980 992.832275,224.802902 992.998291,227.666962
	C993.170349,230.635071 991.377319,231.281219 988.850220,231.243393
	C980.023560,231.111328 971.187683,231.243881 962.371887,230.878067
	C957.622131,230.681000 955.755127,232.256332 956.012085,237.114395
	C956.346191,243.428802 956.214905,249.773071 956.127319,256.102325
	C956.085022,259.157745 957.023438,260.730316 960.397461,260.659851
	C971.546082,260.427124 982.708496,261.064392 993.838684,259.707458
	C998.630615,259.123260 1002.616943,256.964111 1006.452820,254.168671
	C1008.488708,261.694366 1005.223083,266.197845 997.989868,266.211182
	C995.490662,266.215820 992.991516,266.206390 989.993469,266.202942
z"/>
<path fill="currentColor" opacity="1.000000" stroke="none"
	d="
M230.455780,60.476952
	C223.966904,50.187981 217.687332,40.195461 210.794037,29.226345
	C202.641235,41.492943 194.958908,53.222630 187.097885,64.831314
	C179.201355,76.492416 170.557648,87.595482 161.873566,98.660393
	C161.405457,98.375092 160.937332,98.089783 160.469208,97.804474
	C176.872299,67.124008 193.275391,36.443546 210.457840,4.305359
	C237.895264,50.728519 264.592926,95.900055 291.290619,141.071594
	C290.719696,141.439102 290.148773,141.806610 289.577881,142.174118
	C269.578644,115.306618 249.438339,88.542938 230.455780,60.476952
z"/>
<path fill="currentColor" opacity="1.000000" stroke="none"
	d="
M577.721558,73.009941
	C561.929260,75.018906 552.589966,83.834511 550.162048,99.228241
	C547.795898,114.230354 549.121399,128.420975 562.330383,138.467590
	C575.937012,148.816620 598.605591,145.817383 609.494812,132.737610
	C610.498840,131.531570 611.072083,129.713516 613.499512,129.709747
	C615.061890,133.448639 614.176880,137.384384 614.057190,141.241409
	C614.015564,142.582932 612.884827,143.197662 611.757996,143.596710
	C592.287109,150.492249 572.688538,153.565979 553.111694,144.285080
	C538.171997,137.202545 530.408508,125.130196 530.464050,108.533829
	C530.523865,90.672302 539.685242,78.734344 555.869812,72.129112
	C573.962585,64.745102 592.095581,67.376938 610.135864,72.707329
	C611.862061,73.217377 612.471069,74.289330 612.514282,76.009369
	C612.618164,80.139236 612.831665,84.266190 611.879456,89.464569
	C603.666504,76.578796 592.066040,72.195282 577.721558,73.009941
z"/>
<path fill="currentColor" opacity="1.000000" stroke="none"
	d="
M766.333252,258.050476
	C766.482361,238.320740 766.540466,219.003510 766.626404,199.686417
	C766.648926,194.619705 763.325562,192.473083 758.716064,191.165405
	C760.352478,189.013153 762.286682,189.710617 763.908203,189.706848
	C782.561523,189.663513 801.215027,189.684708 819.868469,189.692917
	C828.448425,189.696686 828.493225,189.738800 828.297546,198.281693
	C828.275085,199.262726 828.110229,200.240509 828.015869,201.176163
	C827.539246,201.276978 827.029724,201.493851 826.948303,201.386398
	C822.166748,195.075119 815.335510,194.323578 808.177185,194.363129
	C801.348938,194.400864 794.518982,194.439056 787.692322,194.324554
	C784.539185,194.271652 783.117188,195.513077 783.139404,198.717148
	C783.186707,205.544510 783.187317,212.375504 783.008484,219.199799
	C782.909973,222.957733 784.640686,224.120407 788.159851,224.063690
	C797.484436,223.913391 806.812256,223.954147 816.138794,223.948044
	C818.482117,223.946518 821.142029,223.692993 821.056824,227.240021
	C820.978027,230.521332 818.428223,230.128021 816.310425,230.137604
	C806.983887,230.179871 797.654358,230.307373 788.331848,230.114883
	C784.466187,230.035065 782.925903,231.347229 783.040894,235.273743
	C783.221191,241.429733 783.175049,247.601547 782.956543,253.757126
	C782.774719,258.878937 782.795532,263.640381 789.424072,265.395142
	C779.598633,265.395142 769.773132,265.395142 758.569031,265.395142
	C762.405273,263.202423 766.140259,262.570068 766.333252,258.050476
z"/>
<path fill="currentColor" opacity="1.000000" stroke="none"
	d="
M681.653198,229.999878
	C681.651978,221.340271 681.587341,213.180038 681.670776,205.021317
	C681.733582,198.878571 682.182068,192.634567 673.311584,191.227051
	C675.437256,189.041733 677.342712,189.665100 678.985779,189.662155
	C697.802551,189.628311 716.619568,189.663284 735.436462,189.680832
	C743.422668,189.688278 743.493530,189.746475 743.295532,197.752319
	C743.268494,198.843628 743.708374,200.092941 742.192383,201.285080
	C737.160889,193.905594 729.388733,194.319748 721.728210,194.352081
	C715.566956,194.378082 709.401001,194.514114 703.246033,194.320374
	C699.707703,194.208984 698.057068,195.218994 698.187256,199.071671
	C698.412170,205.724838 698.385925,212.395142 698.192871,219.050354
	C698.086731,222.709808 699.464355,224.142426 703.119568,224.075226
	C711.609436,223.919098 720.103577,223.988892 728.595947,223.965515
	C729.761353,223.962311 730.927795,223.915405 732.091980,223.949265
	C734.206604,224.010773 736.152283,224.270920 736.173767,227.117554
	C736.195923,230.048691 734.211121,230.164749 732.098206,230.164017
	C723.272644,230.160934 714.447021,230.181686 705.621643,230.142242
	C698.247559,230.109299 698.255371,230.077606 698.237366,237.461929
	C698.224731,242.624054 698.172913,247.786087 698.164246,252.948212
	C698.149719,261.584869 698.158325,261.584869 705.106323,265.496704
	C695.046021,265.496704 684.985718,265.496704 674.925415,265.496704
	C682.726379,262.782104 681.658569,256.390442 681.652954,250.482346
	C681.646667,243.821518 681.652771,237.160706 681.653198,229.999878
z"/>
<path fill="currentColor" opacity="1.000000" stroke="none"
	d="
M324.222687,233.789581
	C329.965881,240.504761 333.097443,247.726257 332.060944,256.376434
	C315.494019,257.968903 299.081055,241.103699 299.850494,223.122833
	C309.073730,224.006836 317.053497,227.476761 324.222687,233.789581
z"/>
<path fill="currentColor" opacity="1.000000" stroke="none"
	d="
M383.928162,230.453842
	C384.310883,236.218094 381.450470,239.107635 376.527466,240.506973
	C368.958984,242.658325 360.112701,238.625229 357.397339,231.681808
	C356.655151,229.783905 355.984406,227.679108 357.288239,225.954590
	C358.766205,223.999741 360.648285,225.761887 362.324982,226.086685
	C363.583313,226.330414 364.780396,227.031906 366.252594,226.302689
	C364.205261,224.657852 361.284607,225.323135 359.473389,223.440292
	C366.699127,216.917480 379.504547,220.425720 383.928162,230.453842
z"/>
<path fill="currentColor" opacity="1.000000" stroke="none"
	d="
M347.621033,233.197296
	C354.981232,235.267273 360.687836,238.551239 361.304871,246.771240
	C361.913910,254.883881 356.429535,259.462006 348.677979,257.060791
	C339.465118,254.206924 335.199860,243.567810 341.369690,235.505066
	C343.819702,235.515869 342.782227,238.219757 344.441376,239.292587
	C344.825531,236.926743 341.651215,232.737610 347.621033,233.197296
z"/>
</svg>