<svg version="1.1" id="Layer_1" xmlns="http://www.w3.org/2000/svg" xmlns:xlink="http://www.w3.org/1999/xlink" x="0px" y="0px"
	 width="100%" viewBox="0 0 672 496" enable-background="new 0 0 672 496" xml:space="preserve">
<path fill="currentColor" opacity="1.000000" stroke="none"
	d="
M8.468578,497.000000
	C11.983004,489.081238 17.484459,482.140930 22.447004,474.868774
	C51.366455,432.489807 80.418068,390.200989 109.434410,347.888153
	C109.995125,347.070496 110.509560,346.006744 111.317444,345.606354
	C118.718971,341.938019 126.180695,338.391113 134.207062,335.350159
	C106.278267,379.645325 78.811226,424.045593 51.153954,469.820465
	C59.747902,468.643280 67.097038,467.744690 74.410530,466.615265
	C99.571686,462.729614 124.715439,458.730988 149.881363,454.876801
	C152.429779,454.486481 154.693817,453.655579 156.873108,452.404572
	C166.579330,446.833038 176.751099,444.854858 188.060440,446.333557
	C197.655746,447.588135 206.258087,443.246460 214.244064,438.126129
	C221.112808,433.722107 228.055954,429.422211 234.771347,424.793579
	C245.596893,417.332062 257.833740,414.739014 270.615265,413.867249
	C283.300171,413.002014 287.264343,406.303864 280.859253,395.147430
	C273.455872,382.252106 266.648468,369.188477 262.116791,354.951904
	C260.046631,348.448334 255.474426,343.278656 249.886902,339.489075
	C225.010406,322.617249 198.007828,312.452820 167.383301,314.364288
	C152.969559,315.263977 139.916824,320.696014 127.022194,326.633545
	C123.606613,328.206299 120.350159,330.259308 116.371147,330.644379
	C115.426170,327.992981 116.893517,325.935760 117.365463,323.743622
	C118.256752,319.603760 116.972443,318.223053 112.967094,319.745453
	C104.097397,323.116791 95.359085,326.832611 86.542526,330.346039
	C85.054329,330.939087 83.638359,332.004547 81.314667,331.469269
	C84.298439,324.778137 90.044846,320.259155 94.163536,313.446259
	C82.634308,312.570404 71.457397,313.853607 60.321056,311.732300
	C77.819145,303.205475 96.422943,297.984009 114.538315,291.498535
	C114.545845,291.064575 114.553375,290.630615 114.560905,290.196625
	C105.990189,288.446838 97.419472,286.697052 88.848755,284.947266
	C88.796349,284.478882 88.743950,284.010498 88.691544,283.542145
	C101.354156,277.856293 114.695946,273.887573 128.479630,269.401489
	C122.252235,262.040405 115.308357,255.991165 113.544373,245.839966
	C128.040665,248.867630 141.112213,255.495285 155.776535,257.537750
	C156.023132,251.801880 151.653854,247.045639 153.294159,241.078201
	C161.996643,243.040253 169.624817,247.909103 178.661484,249.375580
	C179.704544,243.918335 176.719299,239.021896 176.696960,232.969559
	C185.664352,236.990891 193.261765,242.218170 202.897858,244.743317
	C198.994659,240.263000 194.738968,237.625397 190.237274,235.251999
	C182.137436,230.981537 173.773865,227.044067 168.117157,219.364838
	C167.054749,217.922562 165.516190,216.732697 165.469910,214.039856
	C170.840927,214.072495 175.708618,216.259705 180.776886,217.172729
	C183.556015,217.673370 186.255508,218.602997 189.025742,219.168640
	C196.564377,220.708023 199.596817,218.231842 199.633850,210.383514
	C199.666382,203.489746 197.565521,196.935455 196.107712,190.285233
	C195.515656,187.584381 194.845566,184.900635 194.651199,181.945908
	C203.703705,188.805008 210.260056,197.961624 218.350662,206.515381
	C222.261673,200.478088 227.173050,200.926575 232.792633,203.320694
	C235.034210,204.275665 237.793655,205.181030 240.991638,203.979797
	C237.108688,199.855637 232.478195,197.375015 227.830643,194.983734
	C223.304062,192.654709 218.656586,190.560669 214.117737,187.705933
	C221.971298,184.067108 230.440277,184.528687 239.226990,183.163498
	C236.779755,173.975784 230.811188,166.434647 228.591080,156.123383
	C237.429260,161.000290 245.408752,165.403366 253.571579,169.907623
	C257.163727,164.922241 258.272308,158.924179 262.891205,154.134232
	C266.940247,165.578506 266.772430,179.365753 282.114105,183.087570
	C279.875305,175.063705 274.655243,168.835052 271.416656,160.754333
	C275.552338,161.476883 278.959167,161.908463 282.280884,162.698090
	C285.655273,163.500214 287.514374,163.070206 287.846375,158.972504
	C288.338837,152.894348 289.436493,146.865234 290.272186,140.846375
	C292.603363,140.390732 292.873901,142.286880 293.665039,143.361710
	C296.527649,147.250992 299.257751,151.237549 302.096527,155.144745
	C307.016968,161.916977 305.238281,161.382675 313.024017,157.807175
	C316.803955,156.071259 320.567139,154.298874 324.350830,152.571304
	C324.622986,152.447037 325.001129,152.555008 326.438660,152.555008
	C323.447083,162.509521 320.543671,172.170670 317.418884,182.568314
	C324.401947,179.511185 329.844421,175.278061 336.553497,172.996552
	C338.000031,177.175751 337.891052,181.336044 338.543121,185.906815
	C347.576874,185.861572 356.432190,182.828766 366.329254,184.160477
	C363.463959,188.872864 361.008545,192.911118 358.060181,197.760071
	C366.331146,199.760147 373.945709,201.601501 381.560272,203.442841
	C374.121094,208.539459 365.701447,210.249191 357.737885,213.755798
	C360.383636,218.665802 365.274048,221.345917 367.667908,226.935944
	C357.228516,226.373657 347.826630,223.077576 338.285828,221.970245
	C336.469208,225.102875 338.317566,228.380951 336.357574,231.446014
	C332.904419,229.101471 329.631958,226.657944 326.151978,224.558365
	C315.638580,218.215363 309.698090,221.537491 309.248474,233.675171
	C308.977448,240.993225 308.559387,248.330307 307.660431,255.591110
	C307.150513,259.709625 308.529510,260.963776 312.350403,261.069000
	C315.448029,261.154358 318.530792,261.779266 322.967438,262.333008
	C317.749634,267.923523 311.339752,270.000824 306.464752,275.132263
	C320.134064,282.089966 334.176392,287.564026 346.908203,295.849915
	C334.258423,296.847076 321.871490,293.840637 308.732635,293.697021
	C310.919769,299.631042 315.726318,303.054688 317.562714,308.613861
	C313.269958,309.582733 309.762268,306.342957 305.833252,307.243164
	C301.608582,314.996368 302.544708,329.353973 308.205872,337.748871
	C313.851959,334.170837 319.598785,330.660889 325.210815,326.947205
	C340.676392,316.713013 356.801575,307.759644 374.104919,300.973663
	C381.631866,298.021759 383.269653,294.006744 380.046936,286.409271
	C376.288361,277.548492 373.612488,268.725128 375.580536,258.823547
	C378.244019,245.422943 386.432709,236.029648 396.685242,227.033829
	C404.538940,239.559006 407.951385,252.237213 403.648651,266.287689
	C401.098053,274.616821 395.722168,281.220459 390.096313,287.625153
	C387.991608,290.021210 386.290833,292.570160 385.856506,296.411743
	C394.029541,294.729095 401.804535,293.141846 409.572357,291.520355
	C411.661652,291.084198 412.334595,289.251831 413.114532,287.611908
	C415.285492,283.047150 418.058533,278.837982 421.770630,275.467438
	C425.139099,272.408905 426.564911,268.841949 426.564178,264.453033
	C426.561432,247.825699 435.706482,236.770309 448.975464,228.510986
	C454.743683,224.920532 460.977448,222.074249 468.061859,219.682190
	C469.776123,225.074234 468.575104,230.198242 467.863831,235.074417
	C465.363678,252.213364 455.352448,263.619049 439.133789,268.921814
	C428.660919,272.346008 422.885651,279.823822 417.356415,289.659454
	C426.338470,289.230164 434.520813,288.858093 442.698822,288.407898
	C443.277466,288.376038 444.102295,287.904724 444.344391,287.409058
	C447.782532,280.370239 454.820312,276.278473 458.788391,269.694031
	C467.942505,254.504318 481.994324,249.062927 498.981018,249.527588
	C505.743866,249.712601 512.510254,249.988373 519.998901,251.902496
	C512.745361,262.449005 505.286255,271.518921 493.605652,276.100464
	C484.685608,279.599243 475.401398,280.027924 466.039124,278.966919
	C457.961853,278.051483 454.477966,279.828857 450.400970,288.323608
	C467.117798,290.624176 483.948029,291.544159 499.880798,299.122467
	C504.683563,302.249359 509.641235,302.714630 514.329407,304.097107
	C511.762054,302.490417 509.073792,301.232178 506.274323,300.312683
	C504.251373,299.648224 502.080566,299.433960 499.975708,299.018921
	C499.516205,296.504883 501.456085,295.989105 503.119873,295.241821
	C511.823059,291.332916 520.310852,292.055908 528.554993,296.556946
	C534.976929,300.063080 538.351990,305.768921 537.415466,311.998474
	C536.411682,318.675476 531.181702,321.293976 525.517212,322.542694
	C515.855286,324.672638 507.430176,321.757812 500.473969,314.758911
	C498.810089,313.084839 497.145782,310.804504 497.280518,308.672180
	C497.747711,301.276611 492.485046,300.450867 487.424103,299.491364
	C463.306580,294.918945 439.157257,294.242706 415.006104,299.295959
	C414.037933,299.498505 413.086761,299.837372 412.171631,300.218292
	C411.592621,300.459259 411.095276,300.896332 410.250671,301.448578
	C412.679474,306.763550 415.162445,311.453766 420.798279,314.179321
	C439.927246,323.430420 448.925354,340.938843 445.585663,361.791992
	C445.223663,364.052277 445.855743,366.498566 444.503296,368.506012
	C443.424835,369.270721 442.465118,368.855743 441.606079,368.366333
	C432.293182,363.060547 423.493073,357.165833 416.999512,348.338562
	C410.499695,339.502869 407.699646,329.771942 410.687042,319.155853
	C412.538361,312.576904 408.713348,308.440613 405.957581,303.675995
	C404.892212,301.834045 403.152435,302.385437 401.490814,302.846710
	C377.990417,309.370453 357.654114,321.256714 340.968842,339.075043
	C332.136749,348.506897 331.064484,357.386963 337.074005,368.786835
	C342.199310,378.509430 348.033905,387.817963 354.127136,396.982178
	C359.082397,404.434845 366.235229,407.521759 374.543976,407.442627
	C387.127380,407.322754 398.379303,411.022034 407.995026,418.653229
	C420.807037,428.821045 435.345459,433.887634 451.200714,436.737488
	C508.341492,447.008087 565.337341,458.052917 622.213623,469.708496
	C626.086609,470.502167 629.839294,472.064056 634.613525,471.759491
	C632.088806,466.797516 629.860779,462.056305 627.321594,457.487976
	C612.677551,431.141205 598.581909,404.494781 583.536682,378.362976
	C578.074219,368.875275 576.467590,357.643860 572.295166,347.495880
	C572.163086,347.174622 572.542603,346.642944 572.771301,345.939758
	C575.285767,346.833466 576.412537,348.930847 577.715332,350.756836
	C596.196594,376.659607 613.781982,403.175964 631.584778,429.542847
	C645.284241,449.832367 658.894165,470.182373 672.771973,490.752747
	C673.000000,492.968170 673.000000,494.936371 673.000000,497.000000
	C665.979370,497.000000 658.958496,497.000000 651.149109,496.793945
	C648.569397,496.217102 646.792603,495.742188 644.984680,495.491516
	C626.374878,492.911224 607.782471,490.232147 589.128601,487.940704
	C558.759277,484.210144 528.416443,480.127106 497.936798,477.565247
	C467.265656,474.987274 436.539673,472.869690 405.739960,472.064087
	C369.632416,471.119629 333.559723,469.844604 297.404694,470.964264
	C262.787354,472.036285 228.218704,473.466461 193.685654,476.108429
	C173.939026,477.619171 154.211197,479.322632 134.556580,481.660858
	C109.958946,484.587036 85.400581,487.889984 60.887333,491.456848
	C50.549679,492.961060 40.093140,494.036743 30.000000,497.000000
	C22.979052,497.000000 15.958104,497.000000 8.468578,497.000000
M330.994995,421.505920
	C337.496918,427.047089 345.441956,430.398590 353.606598,435.527618
	C339.813416,439.043335 326.932190,440.206177 314.296356,442.630676
	C350.409149,447.531036 381.133148,443.700653 390.921448,436.658630
	C351.556580,427.137909 319.510803,407.885529 297.141663,374.370789
	C303.957123,393.159729 315.289795,408.487976 330.994995,421.505920
M260.265533,324.111176
	C263.542084,325.436096 266.203522,328.284912 270.467865,328.326050
	C271.928802,321.914948 272.590668,315.421082 275.352814,309.514374
	C275.814209,308.527649 275.510223,307.477203 274.766937,306.746399
	C266.193878,298.317413 256.779968,291.527863 244.076691,291.303467
	C240.692703,291.243713 239.067215,293.251923 238.097504,296.237122
	C235.443451,304.407471 240.425522,315.438934 248.593262,319.119293
	C252.222549,320.754639 255.924988,322.227692 260.265533,324.111176
M275.748138,233.655609
	C264.609344,228.254944 243.993240,235.070953 240.429840,245.614273
	C250.067398,245.591736 258.754730,241.129166 268.199371,240.013794
	C269.833038,244.415070 268.921783,248.516678 268.494476,252.580017
	C268.151642,255.840149 269.138458,257.592194 272.758881,257.648315
	C276.566803,257.707336 280.377533,258.118713 284.169159,258.537964
	C287.798431,258.939209 289.339783,257.280273 288.493500,253.924362
	C286.516449,246.084366 283.742889,238.635941 275.748138,233.655609
M206.723480,307.612946
	C209.111084,308.336639 211.486267,309.105225 213.890152,309.770111
	C215.872620,310.318481 218.163925,311.898743 219.700241,309.326569
	C221.287094,306.669800 221.152771,303.920227 218.763596,301.581116
	C215.779617,298.659637 212.413940,296.229187 209.072296,293.741730
	C206.268433,291.654510 203.572006,291.339813 200.229568,292.298767
	C196.011826,293.508820 191.848877,295.203705 187.564056,295.397858
	C185.808075,293.193665 188.243362,289.270508 184.879181,288.767181
	C181.914520,288.323578 178.734512,289.384613 176.730515,292.740723
	C185.385849,300.148315 194.996078,305.082092 206.723480,307.612946
M286.416931,227.843613
	C285.951752,233.809128 290.635590,236.809860 293.836304,240.649078
	C294.407532,241.334259 295.266815,241.292252 296.106689,240.868805
	C298.806732,239.507477 300.565430,232.202499 298.380585,230.325897
	C295.186066,227.582001 291.683319,225.196960 288.347351,222.685623
	C286.856842,224.124680 287.072540,225.750092 286.416931,227.843613
M169.465042,304.502655
	C170.605515,304.057159 172.214035,304.526306 172.751404,302.877045
	C168.718185,298.073944 157.452454,297.218597 149.926926,301.070862
	C155.482391,305.836639 161.980194,305.841827 169.465042,304.502655
M258.096039,224.117706
	C260.244476,219.403336 255.662827,219.578613 253.704498,217.496567
	C250.893845,220.478394 249.560394,223.540085 249.793564,227.447174
	C253.237152,228.079575 255.258926,225.877594 258.096039,224.117706
M219.521912,287.502441
	C215.748108,293.455200 222.919220,292.242004 223.697678,296.266602
	C225.698578,292.250122 226.221848,289.617340 225.078171,286.861694
	C223.256622,285.952850 221.735565,286.849670 219.521912,287.502441
M276.651672,298.565735
	C277.296631,299.394531 277.228973,300.926514 279.311951,300.781403
	C280.134705,298.801056 282.584534,296.845917 281.204681,294.373932
	C280.140839,292.468079 277.650970,292.687622 275.689362,293.356598
	C275.126770,295.235229 276.101868,296.527313 276.651672,298.565735
M299.315735,222.609528
	C300.456635,223.142563 300.807953,222.378738 300.997711,221.517212
	C301.202240,220.588715 301.780670,219.601013 300.806946,218.741364
	C297.608154,218.916580 297.412964,218.912323 297.263092,219.481201
	C296.889282,220.900024 298.108704,221.474945 299.315735,222.609528
z"/>
<path fill="currentColor" opacity="1.000000" stroke="none"
	d="
M296.961121,71.024612
	C309.692413,50.087044 321.037109,28.753511 334.061096,8.415430
	C334.305756,8.033359 334.829620,7.830070 335.939178,7.021797
	C374.930664,68.911095 411.423187,132.098862 447.122284,195.810257
	C409.141876,144.765762 372.294373,92.957008 335.438751,39.973255
	C311.284576,74.502495 286.910248,107.851822 259.006622,138.562302
	C270.109375,115.290421 284.150665,93.709351 296.961121,71.024612
z"/>
<path fill="currentColor" opacity="1.000000" stroke="none"
	d="
M497.818054,335.312134
	C502.773193,343.555573 504.493408,352.159027 504.221863,361.312469
	C478.539154,361.628387 455.003967,337.036957 457.390137,312.229370
	C473.605530,315.064392 488.041962,320.610352 497.818054,335.312134
z"/>
<path fill="currentColor" opacity="1.000000" stroke="none"
	d="
M554.342102,308.749298
	C561.555176,308.015381 567.687195,309.742371 573.123169,313.741150
	C577.763000,317.154388 580.227478,321.780823 579.079834,327.590698
	C577.962830,333.245636 574.016541,336.227142 568.519531,337.579132
	C555.673340,340.738647 542.576111,333.269745 540.765320,321.618988
	C539.928162,316.232758 540.904236,315.279755 546.174011,316.478973
	C549.195618,317.166595 552.190552,317.971771 556.238464,318.984467
	C552.287903,314.761261 546.932373,316.363251 543.374268,313.037323
	C546.471558,309.980896 550.255798,309.548859 554.342102,308.749298
z"/>
<path fill="currentColor" opacity="1.000000" stroke="none"
	d="
M514.934143,348.602570
	C512.602051,341.230377 513.982849,335.001678 518.624390,328.901886
	C521.828247,332.085754 521.303467,336.557495 524.446716,339.601593
	C524.697021,335.118652 521.571289,331.752533 521.605408,327.745850
	C534.170105,324.987701 547.972595,336.628510 546.995056,349.020996
	C546.264038,358.287415 537.694336,363.786499 528.508972,360.814026
	C522.343506,358.818817 517.773438,354.942474 514.934143,348.602570
z"/>
</svg>