<svg version="1.1" id="Layer_1" xmlns="http://www.w3.org/2000/svg" xmlns:xlink="http://www.w3.org/1999/xlink" x="0px" y="0px"
	 width="100%" viewBox="0 0 528 592" enable-background="new 0 0 528 592" xml:space="preserve">
<path fill="#000000" opacity="1.000000" stroke="none"
	d="
M412.935516,262.870789
	C411.562805,259.311371 409.898895,255.841507 409.750702,251.240326
	C404.822296,256.005920 399.892609,259.136475 393.080505,257.461334
	C385.845337,255.682175 381.340759,251.400696 380.170074,244.002670
	C379.870667,242.110519 379.970825,240.495834 377.498871,240.002548
	C358.270813,236.165558 339.572784,238.085480 320.777466,244.514053
	C322.578369,249.187073 326.174683,251.045746 329.746368,252.547958
	C347.946777,260.203033 351.799286,276.921051 350.011292,293.498688
	C349.927368,294.276489 349.474609,295.014526 349.197906,295.759491
	C348.526123,295.876526 347.992004,296.146942 347.592651,296.013580
	C332.627136,291.016602 321.040131,274.395752 321.536377,258.731659
	C321.604889,256.569550 321.857910,254.350601 321.494934,252.249619
	C320.522217,246.618881 317.774261,245.091553 312.706879,247.579086
	C302.815155,252.434830 293.291565,257.926880 285.110535,265.443604
	C280.077881,270.067596 275.174927,274.797729 271.470520,280.644653
	C268.706329,285.007538 268.309814,289.300507 271.003204,293.792511
	C274.258453,299.221527 277.619781,304.592285 280.702637,310.117981
	C284.068512,316.151031 289.145264,318.745239 295.908722,318.689911
	C303.643524,318.626617 311.026917,320.411621 316.686676,325.802155
	C324.972717,333.694061 335.018646,336.887512 345.906372,338.508240
	C386.868744,344.605743 427.703247,351.443634 468.289185,359.718414
	C469.521912,359.969788 470.812134,360.768768 472.405426,359.694397
	C470.344879,353.745361 466.640167,348.582764 463.632294,343.105865
	C452.697327,323.194946 443.361389,302.611267 436.479706,280.942413
	C436.177673,279.991394 435.907715,279.030182 435.619659,278.074677
	C435.035889,276.138336 434.194550,274.073273 436.799896,272.954956
	C439.305054,271.879608 439.996338,274.191528 440.906219,275.578094
	C456.537262,299.398102 472.130737,323.242889 487.684113,347.113739
	C494.232513,357.163971 500.684692,367.277130 507.135498,377.390442
	C507.913666,378.610413 509.130646,379.674316 508.959961,382.800903
	C352.702118,360.608276 196.395401,362.457031 40.059231,382.494171
	C39.750187,378.656464 41.648876,376.981201 42.854530,375.141174
	C59.835674,349.225098 76.957657,323.401123 93.899696,297.459656
	C96.195221,293.944794 99.014633,291.507599 102.818756,289.926697
	C107.818100,287.849182 112.131676,284.303284 117.310555,282.592957
	C117.747810,282.942627 118.185066,283.292267 118.622314,283.641907
	C103.210472,309.514984 87.798622,335.388062 72.062866,361.804901
	C76.783035,363.176239 80.856804,361.858215 84.766960,361.506927
	C100.328911,360.108948 115.852142,358.270294 131.379715,356.506714
	C134.680298,356.131866 137.715332,355.070404 140.685684,353.282990
	C146.210144,349.958618 152.292297,348.325500 158.880356,349.512909
	C166.673569,350.917511 173.692825,349.045532 180.163559,344.538971
	C186.176300,340.351440 192.494080,336.588348 198.381195,332.237396
	C205.894165,326.684875 214.134644,323.800507 223.456619,323.701111
	C228.668564,323.645569 230.730392,320.375580 227.620209,316.281830
	C221.245743,307.891449 215.804031,298.971588 210.600082,289.852448
	C209.203094,287.404449 206.907578,285.531067 204.411789,284.124939
	C185.569885,273.509521 165.779236,266.279205 143.708664,267.258972
	C132.786926,267.743835 122.969048,271.684143 113.500656,276.784454
	C107.708672,279.904358 101.868263,282.934387 96.128853,285.962952
	C93.170563,282.128845 96.350693,279.311615 96.140938,275.537994
	C85.380844,278.024506 76.124046,284.235199 64.949631,287.441254
	C64.847412,279.201630 71.744591,276.520416 75.576042,270.973114
	C70.502655,269.512909 65.810303,270.868591 61.402523,269.999603
	C56.974667,269.126709 52.080196,269.965607 47.388054,266.391418
	C62.035305,260.047821 77.402512,258.036804 92.565994,252.358536
	C84.528015,249.227524 76.389435,251.391037 68.583633,246.783249
	C79.702820,240.666000 91.206764,238.887451 103.061478,235.142990
	C96.402367,228.891754 89.708054,223.468765 88.861176,213.261826
	C101.429924,216.412292 112.897911,222.430359 126.455231,221.384033
	C124.521111,218.288345 122.907318,215.855438 121.455849,213.329239
	C120.495811,211.658356 120.242577,209.733093 121.419273,208.114090
	C122.758202,206.271896 124.642342,207.045273 126.454430,207.488358
	C132.108246,208.870789 137.748062,210.360703 143.465973,211.414917
	C148.153625,212.279175 149.231583,210.778580 147.609848,206.259186
	C146.435745,202.987198 144.874588,199.802307 146.261230,195.630203
	C153.845276,196.117477 159.123871,202.830261 166.829071,203.702728
	C166.866104,200.863770 164.736008,200.285904 163.160309,199.371567
	C158.410553,196.615433 153.176331,194.671478 148.841843,191.233749
	C144.303207,187.634125 140.095886,183.702042 139.263290,177.535538
	C141.770782,176.060501 143.544052,177.404907 145.391983,177.945984
	C150.485321,179.437271 155.375702,181.600861 160.831680,181.811905
	C164.947586,181.971115 166.582794,180.148956 166.667252,176.233673
	C166.798050,170.170151 165.259308,164.367477 164.177948,158.484955
	C163.745193,156.130814 162.561661,153.768448 163.671875,151.273346
	C166.250183,150.887802 167.517776,152.638626 168.764908,154.074448
	C172.476562,158.347626 176.140198,162.671082 179.625076,167.129288
	C181.586151,169.638107 183.433075,170.951782 186.080338,168.188110
	C187.785080,166.408432 189.557083,166.625122 191.484833,167.780350
	C193.166473,168.788116 194.785416,170.026413 197.444107,169.851898
	C192.880920,163.116455 184.457947,161.886703 178.831711,155.914825
	C185.173355,152.333984 191.866669,154.416977 198.303223,152.084442
	C196.859451,144.958237 192.322769,138.287537 193.257721,129.757370
	C200.340836,132.648911 205.103943,138.267914 211.981232,140.389633
	C213.036118,137.724136 213.880814,135.234131 215.004791,132.877335
	C215.729401,131.357895 217.010025,129.996429 218.805756,129.975983
	C221.027191,129.950684 221.063614,132.108292 221.623199,133.572815
	C223.167465,137.614380 224.577179,141.707199 226.103271,145.755936
	C227.216080,148.708267 229.079529,150.898300 233.035675,151.648575
	C232.369751,148.178558 230.325897,145.762955 228.973358,143.052002
	C228.159363,141.420486 227.249039,139.756500 226.877777,138.002182
	C226.206253,134.829056 227.124939,133.253723 230.888397,134.277252
	C238.478745,136.341553 239.377258,135.538940 239.702332,127.657707
	C239.851578,124.039391 239.495178,120.324394 241.373672,116.802895
	C244.588928,116.510643 245.527084,119.192703 246.871567,121.072121
	C249.383896,124.584061 250.903091,129.556610 254.246552,131.526321
	C258.079620,133.784485 261.841156,128.700150 265.980408,127.820961
	C267.102539,127.582611 268.179443,126.952087 269.948425,127.830460
	C269.979797,135.506516 266.882935,142.612564 263.564301,151.088013
	C267.932037,148.860916 271.346161,147.070541 274.804138,145.369324
	C279.176208,143.218414 280.019257,143.720642 280.305450,148.492310
	C280.681030,154.754349 280.669220,154.670563 287.112305,153.762497
	C292.135040,153.054596 297.208374,151.849564 302.424011,153.857101
	C302.098572,158.267258 298.156128,160.290985 296.463440,164.197281
	C301.101196,168.153625 307.918274,167.105438 313.334625,171.259445
	C307.692841,175.565475 300.599060,175.459106 294.648682,179.022675
	C296.657776,182.085052 300.640228,183.676682 300.965576,188.338043
	C292.752930,190.534912 285.210754,185.912704 277.437286,185.797958
	C275.532562,188.135254 278.366577,191.005585 275.893494,193.273956
	C272.429565,193.302444 270.438354,190.176361 267.721100,188.540268
	C258.748688,183.137955 255.013077,184.974304 254.159485,195.288757
	C253.776230,199.919586 252.885529,204.506088 252.367340,209.128662
	C251.666306,215.382538 252.108444,215.865295 258.436584,216.608200
	C259.579285,216.742340 260.785187,216.609879 261.913727,217.652634
	C261.835327,221.649658 258.391632,222.717697 255.670731,224.400192
	C254.000351,225.433090 251.529022,226.056885 251.613358,228.350632
	C251.702637,230.778656 254.370377,230.882080 256.117035,231.656845
	C263.269989,234.829727 270.464355,237.909653 277.605377,241.108765
	C279.042480,241.752579 280.864136,242.137024 281.284149,244.734756
	C271.936188,246.963776 262.263611,242.194458 252.782120,245.619400
	C253.303101,249.716644 258.616455,251.153732 257.889008,255.578476
	C254.921219,257.266815 252.379913,254.426697 248.934326,255.210617
	C247.799316,261.693024 246.814087,268.340576 249.826279,275.675446
	C255.821472,271.375549 261.348663,267.462646 266.821136,263.474609
	C275.592285,257.082672 284.767395,251.363129 294.468262,246.481598
	C300.750793,243.320190 300.949402,243.013779 298.257690,236.564667
	C291.009583,219.198883 295.079559,204.023834 306.934113,190.286713
	C307.675995,189.426987 308.640656,188.759521 310.235687,187.357346
	C316.030945,195.832733 318.845337,204.746948 317.984314,214.614746
	C317.128510,224.423218 312.007843,232.404160 305.250549,239.714020
	C311.148193,240.939255 320.463165,236.960358 322.996094,232.764969
	C324.715942,229.916229 326.683594,227.217896 328.510223,224.432495
	C329.706696,222.608017 330.742737,220.723633 330.637054,218.417328
	C329.888336,202.078873 339.120361,191.723038 351.760681,183.529114
	C354.768738,181.579208 357.711853,179.330597 361.325592,178.346451
	C364.776886,192.014694 361.121613,213.508133 339.752869,220.853531
	C333.172455,223.115509 329.556213,227.826035 326.034241,234.743332
	C332.572021,234.458649 338.177612,233.808258 343.681549,232.337860
	C344.895386,232.013580 344.747803,230.370697 345.303070,229.380371
	C351.763153,217.858154 357.943634,206.156326 371.935547,201.775436
	C381.035309,198.926285 390.095795,198.776321 398.869598,200.187531
	C399.899933,201.622116 399.544617,202.430832 399.134460,203.127747
	C390.415283,217.943069 376.814301,228.674057 357.165192,225.636993
	C352.302032,224.885315 349.381653,227.297501 347.431641,231.336456
	C348.779327,233.338684 350.608185,232.688553 352.166016,232.703323
	C361.688171,232.793625 371.133148,233.359573 380.155609,236.795395
	C381.351074,237.250641 382.204468,237.115524 383.364777,236.455978
	C397.038727,228.683792 406.752716,232.654266 411.098694,247.977081
	C416.648499,243.517365 422.815094,241.858200 429.694305,243.812042
	C437.363800,245.990295 440.876038,251.835876 439.170288,259.467133
	C437.904602,265.129669 430.752319,269.342010 424.096832,268.009979
	C421.193054,267.428833 418.437775,266.105743 415.018372,264.857300
	C413.926300,264.020233 413.430908,263.445496 412.935516,262.870789
M221.555832,270.644531
	C222.344772,267.080566 223.066757,263.499847 223.952194,259.960022
	C224.367065,258.301422 225.050018,256.675354 223.267471,255.463821
	C216.920883,251.150269 210.524475,246.845215 202.566269,246.230499
	C196.969727,245.798172 195.865921,247.037857 196.046967,252.770508
	C196.366699,262.894623 210.763199,273.829437 221.007462,271.716339
	C221.131027,271.690857 221.213455,271.465973 221.555832,270.644531
M265.103851,323.495392
	C259.645782,320.382019 255.235199,315.855865 250.040161,312.364990
	C256.873444,323.721649 266.350677,332.048950 278.995331,337.046997
	C269.558716,342.783234 259.156067,341.551880 249.420837,343.474945
	C266.686432,342.613800 284.373444,346.112122 301.111664,338.319153
	C289.193939,333.463043 276.578461,330.822388 265.103851,323.495392
M204.674911,199.964661
	C203.475067,201.881805 201.008011,202.789566 200.304703,205.352097
	C201.625626,205.787460 202.691330,205.358017 203.789261,205.000015
	C207.887909,203.663528 211.963943,202.240601 216.112396,201.078262
	C221.276474,199.631332 222.818176,200.659653 223.173843,206.064774
	C223.364227,208.958237 222.840363,211.898712 222.594971,215.453293
	C226.895386,215.101135 230.962570,214.941971 234.970459,214.368561
	C237.060043,214.069611 236.609512,212.279877 236.143723,210.776627
	C234.600220,205.795242 232.206284,201.262863 228.718735,197.387527
	C226.622391,195.058060 223.855331,193.516754 220.713394,194.384048
	C215.469971,195.831436 210.351959,197.733200 204.674911,199.964661
M164.171463,249.732162
	C162.325958,250.465012 160.518417,251.323822 158.624176,251.895035
	C156.762436,252.456421 154.628479,253.355347 153.003723,251.672592
	C151.593323,250.211868 150.610565,248.382141 148.012802,251.726135
	C148.739716,252.052383 149.366425,252.292740 149.955521,252.604218
	C158.230469,256.979736 167.242615,259.190308 176.219666,261.472870
	C177.779602,261.869476 179.627182,262.051392 180.587769,260.150604
	C181.657425,258.034027 181.407486,256.002075 179.970398,254.095917
	C176.893082,250.014175 169.972336,247.864197 164.171463,249.732162
M243.394135,197.699387
	C245.680206,192.668930 244.182968,190.416306 237.092484,188.218384
	C234.618546,193.188171 237.281265,197.763107 243.394135,197.699387
M136.149139,257.334839
	C132.528229,257.788727 128.907318,258.242615 125.286415,258.696503
	C130.442337,261.304749 135.393265,261.177795 140.513580,258.768158
	C139.480850,257.229553 138.210831,257.204529 136.149139,257.334839
z"/>
<path fill="#000000" opacity="1.000000" stroke="none"
	d="
M460.708618,433.392212
	C454.763123,423.366699 439.883148,422.178955 430.260925,424.502594
	C427.529724,425.162109 428.363220,427.719360 428.358978,429.567383
	C428.303406,453.890228 428.311890,478.213226 428.309723,502.536163
	C428.308502,516.298584 428.312988,516.299316 414.330505,516.315247
	C411.081726,516.318970 407.832916,516.315796 404.256134,515.779175
	C410.617920,509.720093 409.580383,502.220734 409.601318,495.033295
	C409.657593,475.708466 409.558258,456.383057 409.652191,437.058502
	C409.686646,429.972260 409.722046,423.010345 403.064056,418.491150
	C404.342804,416.626648 405.957550,416.808777 407.399658,416.846375
	C423.365692,417.262543 439.368378,415.724365 455.303314,417.686157
	C462.490570,418.570984 469.383820,420.392242 475.222229,424.943359
	C488.540680,435.325195 487.509796,456.065826 473.151825,466.127838
	C470.300232,468.126251 467.211365,469.786072 463.701935,471.925049
	C473.840912,483.125427 481.151062,496.305054 491.440308,507.169159
	C495.511658,511.467926 500.891174,513.587158 508.184998,514.038635
	C503.336395,518.057251 498.739655,518.710693 494.241730,518.717896
	C483.194397,518.735718 473.641083,515.033264 466.772339,505.956757
	C461.950500,499.585052 457.180878,493.163177 452.664154,486.574371
	C448.488739,480.483398 443.828766,475.378143 435.989441,474.242645
	C434.215668,473.985748 431.373749,473.703613 431.719971,471.022949
	C432.070435,468.309204 434.818390,469.231171 436.654877,469.040344
	C438.306549,468.868713 439.982635,468.912567 441.648254,468.896973
	C460.885345,468.716888 468.267273,452.310394 462.388184,436.865997
	C461.975281,435.781372 461.398346,434.759155 460.708618,433.392212
z"/>
<path fill="#000000" opacity="1.000000" stroke="none"
	d="
M107.570457,503.356873
	C105.172127,498.004700 102.838249,493.032654 100.706116,487.975586
	C99.589172,485.326324 97.916321,484.234467 94.983551,484.264221
	C82.499298,484.391052 70.012413,484.402954 57.528156,484.283051
	C54.455364,484.253571 52.661469,485.248779 51.407413,488.140869
	C48.298054,495.311554 44.383232,502.173187 41.777470,509.509033
	C39.786835,515.113159 36.700867,517.234863 31.075727,516.352417
	C29.630310,516.125610 28.147837,516.134949 26.784512,516.042725
	C26.619049,515.412598 26.362213,514.950562 26.480907,514.813293
	C39.251400,500.042786 44.299023,481.161774 53.256214,464.365845
	C58.496483,454.539642 62.914124,444.277039 67.790176,434.253693
	C72.506683,424.558319 72.499748,424.136932 65.517899,416.494690
	C73.713547,410.608765 86.766258,413.593933 90.933037,422.377747
	C103.766251,449.430756 116.575943,476.494965 129.354034,503.574066
	C131.485580,508.091217 133.535233,512.615845 138.294434,515.054321
	C136.953781,517.536560 134.919891,516.830261 133.242767,517.026306
	C131.926910,517.180115 130.582489,517.114502 129.251022,517.105774
	C110.841698,516.985291 114.835922,517.829224 107.570457,503.356873
M63.834846,461.229218
	C61.468853,466.397705 59.102859,471.566193 56.358276,477.561707
	C69.902794,477.618805 82.176094,477.917938 95.240028,476.282532
	C88.620934,462.312012 83.298691,448.965912 76.086365,435.368469
	C71.814522,444.390961 67.988449,452.471924 63.834846,461.229218
z"/>
<path fill="#000000" opacity="1.000000" stroke="none"
	d="
M367.293884,515.754028
	C354.092255,516.099609 341.277008,516.253052 328.461334,516.310547
	C316.302643,516.365173 304.143402,516.343140 291.984650,516.291260
	C290.240753,516.283813 288.333649,516.847107 286.224701,514.977356
	C294.487457,508.960999 292.523804,500.113190 292.565186,491.847839
	C292.661926,472.527313 292.594086,453.205872 292.560883,433.884827
	C292.550720,427.960663 292.142822,422.154846 286.172150,418.760803
	C287.324402,416.254883 289.391815,416.872559 291.043976,416.866699
	C314.362091,416.784119 337.681000,416.846588 360.998291,416.677277
	C365.210266,416.646698 366.683990,418.247711 366.398743,422.277222
	C366.055389,427.127380 366.898834,432.063080 365.949615,436.847382
	C363.360107,436.811127 362.971527,435.192322 362.386749,433.873718
	C359.557739,427.494629 354.256348,424.652588 347.706940,424.395935
	C337.393188,423.991730 327.059326,424.125000 316.735565,423.940155
	C312.959808,423.872528 311.315765,425.450836 311.377319,429.309357
	C311.518097,438.134644 311.484711,446.963898 311.420105,455.790802
	C311.388245,460.143372 313.022705,462.010162 317.712311,461.761505
	C328.175018,461.206696 338.692078,462.290680 349.144592,460.824158
	C350.699829,460.605957 352.741241,460.107788 353.511688,462.156830
	C354.404846,464.532288 354.640472,467.227753 353.461853,469.456085
	C352.389557,471.483459 350.148376,470.338379 348.442078,470.029053
	C337.371796,468.022186 326.182007,469.396362 315.062317,468.810272
	C312.668213,468.684082 311.475861,470.364960 311.465515,472.711060
	C311.417694,483.536865 311.409729,494.362823 311.373901,505.188690
	C311.365906,507.610352 312.523010,508.977173 314.946381,509.061829
	C327.888000,509.513916 340.874908,510.641724 353.614136,507.174194
	C358.588074,505.820343 362.656708,503.067963 365.660950,498.776337
	C366.633362,497.387207 367.232269,495.267853 370.464935,495.912659
	C370.397705,502.511963 370.059967,509.119995 367.293884,515.754028
z"/>
<path fill="#000000" opacity="1.000000" stroke="none"
	d="
M281.806885,38.256954
	C303.330750,76.650017 324.671265,114.724007 346.011749,152.797989
	C345.535065,153.083908 345.058380,153.369827 344.581696,153.655731
	C313.381897,122.315765 290.004761,85.300179 267.891693,45.545650
	C251.846146,71.939079 238.612213,98.938347 212.143585,115.696541
	C230.227936,81.890396 248.312286,48.084251 266.879761,13.374958
	C273.398254,21.441668 276.698395,30.198298 281.806885,38.256954
z"/>
<path fill="#000000" opacity="1.000000" stroke="none"
	d="
M227.270264,509.343781
	C237.816635,506.414368 244.740692,499.185089 250.712341,490.653809
	C251.190536,491.007965 251.668732,491.362091 252.146927,491.716217
	C252.146927,496.936035 252.212433,502.157166 252.109970,507.374969
	C252.075958,509.107300 250.577042,509.864990 249.160065,510.425507
	C225.838013,519.650696 202.409119,522.498413 179.256744,510.269897
	C164.917786,502.696442 157.583237,490.062927 155.694168,474.154266
	C153.805023,458.244934 156.705475,443.681061 167.856522,431.449951
	C176.921326,421.507202 188.841064,417.604645 201.578812,415.793335
	C216.716034,413.640900 231.378387,416.147461 245.740540,421.127411
	C249.476074,422.422699 251.276810,424.432007 250.907379,428.398712
	C250.472244,433.070740 251.767319,437.919006 250.048508,442.330841
	C247.319366,442.713165 246.616531,441.025513 245.728928,439.667908
	C236.366791,425.348022 222.725845,420.248840 206.444489,422.774139
	C190.501755,425.246826 181.346680,435.628448 177.825699,451.049591
	C174.292801,466.522766 175.357864,481.629211 183.642990,495.450714
	C191.564697,508.665955 208.382828,514.255371 224.950073,509.952484
	C225.594818,509.785004 226.244278,509.635681 227.270264,509.343781
z"/>
<path fill="#000000" opacity="1.000000" stroke="none"
	d="
M354.996338,262.635803
	C354.278778,258.319000 353.675079,254.398849 353.068024,250.456940
	C374.180267,249.999893 394.121887,272.893311 388.335114,290.739105
	C373.822052,289.318848 359.139679,277.075073 354.996338,262.635803
z"/>
<path fill="#000000" opacity="1.000000" stroke="none"
	d="
M412.652893,262.682251
	C413.430908,263.445496 413.926300,264.020233 414.648682,264.759949
	C415.913086,267.700867 417.305359,270.324677 417.405670,273.432770
	C417.663177,281.413055 413.130798,286.891083 405.745544,287.270081
	C398.634308,287.635010 392.197083,281.906250 391.651428,274.706360
	C391.588989,273.882751 391.639282,273.050568 391.637970,272.222382
	C391.629639,267.012268 392.570618,261.744781 397.645050,259.505341
	C402.772003,257.242645 408.054596,258.545471 412.652893,262.682251
z"/>
<path fill="#000000" opacity="1.000000" stroke="none"
	d="
M186.447479,580.892212
	C179.258453,583.520142 172.887512,582.734680 167.477173,577.788940
	C162.427139,573.172485 161.413239,565.599854 164.667191,559.949768
	C168.326431,553.595947 176.119598,550.263306 183.103577,552.213928
	C189.492371,553.998413 194.250641,557.633118 195.219666,564.612488
	C196.225082,571.853882 193.148285,577.193909 186.447479,580.892212
M175.577927,576.177429
	C184.520813,577.796143 191.494110,571.701111 188.975235,564.467468
	C187.405380,559.959167 183.368164,557.060181 178.693954,557.350403
	C174.138519,557.633179 170.778137,559.724365 169.506958,564.366516
	C168.135117,569.376343 169.739471,572.733643 175.577927,576.177429
z"/>
<path fill="#000000" opacity="1.000000" stroke="none"
	d="
M402.564636,556.973633
	C398.631897,557.173706 395.140198,557.281860 391.648285,557.288147
	C389.406006,557.292236 388.278900,558.191467 388.280121,560.551331
	C388.281342,562.901917 389.428741,563.845276 391.642944,563.868591
	C394.304382,563.896545 396.966095,563.947021 399.626221,564.033569
	C401.600006,564.097778 402.799347,565.074219 402.665192,567.142334
	C402.530945,569.211548 400.903992,569.271484 399.366852,569.293213
	C396.871399,569.328430 394.373535,569.385864 391.880066,569.315674
	C389.375244,569.245239 388.291901,570.303894 388.241943,572.862366
	C388.187805,575.636841 389.300415,576.825806 392.067444,576.743286
	C395.059479,576.653992 398.057129,576.714661 401.051605,576.759338
	C402.902161,576.786926 404.949860,576.720886 405.048340,579.351013
	C405.145050,581.933960 403.240417,582.219543 401.306702,582.232361
	C396.148987,582.266663 390.990387,582.204285 385.833130,582.264587
	C382.992645,582.297791 382.025970,580.754517 382.031311,578.199036
	C382.046539,570.878235 382.061493,563.557495 382.056702,556.236694
	C382.054718,553.200867 383.320190,551.642517 386.571106,551.740479
	C391.225891,551.880737 395.891266,551.679688 400.545288,551.832214
	C404.212158,551.952271 405.463165,553.559509 402.564636,556.973633
z"/>
<path fill="#000000" opacity="1.000000" stroke="none"
	d="
M337.651306,569.413513
	C334.335236,570.552673 335.117279,573.008606 335.495728,574.981201
	C335.909332,577.137268 338.033081,576.763062 339.636719,576.805481
	C342.801086,576.889160 345.968994,576.827515 349.134827,576.871094
	C350.863373,576.894897 352.033295,577.666016 352.039185,579.547363
	C352.045197,581.456726 350.812531,582.191650 349.115265,582.200378
	C343.449585,582.229309 337.783417,582.224670 332.117859,582.179016
	C329.760498,582.159973 328.953888,580.610657 328.959717,578.532593
	C328.981201,570.866943 329.046509,563.201355 329.094055,555.535767
	C329.108765,553.162842 330.088074,551.767273 332.668365,551.790405
	C337.667450,551.835205 342.667419,551.789917 347.666412,551.841187
	C349.411438,551.859070 351.119202,552.160889 351.128265,554.472107
	C351.137085,556.724121 349.556946,557.164734 347.743683,557.200134
	C345.244415,557.248901 342.742157,557.200195 340.245209,557.297058
	C338.028412,557.383057 335.283844,556.669983 335.228088,560.402405
	C335.168884,564.366760 338.056519,563.777344 340.478668,563.894775
	C342.142273,563.975464 343.813538,563.904602 345.476227,563.995972
	C347.358246,564.099304 349.312836,564.245178 349.197327,566.904480
	C349.092072,569.328186 347.235657,569.235962 345.568756,569.281982
	C343.070282,569.351074 340.569641,569.343445 337.651306,569.413513
z"/>
<path fill="#000000" opacity="1.000000" stroke="none"
	d="
M107.086662,571.201294
	C105.823204,564.220398 107.132111,558.417358 113.016212,554.598999
	C118.590553,550.981750 124.609146,550.744263 130.581787,553.715637
	C132.383743,554.612061 135.067902,555.510315 133.623444,558.410461
	C132.197830,561.272766 130.134766,559.754456 128.139832,558.816895
	C122.662842,556.242859 117.713516,557.140076 114.708954,561.294373
	C111.958206,565.097778 112.001801,569.043274 114.776543,572.834839
	C117.821281,576.995300 122.598007,577.912903 128.213959,575.289734
	C130.463242,574.239136 132.861755,572.944275 134.099762,575.930359
	C135.240509,578.681763 132.275574,579.464722 130.521912,580.403381
	C121.421623,585.274719 111.617027,581.520569 107.086662,571.201294
z"/>
<path fill="#000000" opacity="1.000000" stroke="none"
	d="
M228.960785,582.049316
	C225.984528,581.929871 225.750702,580.104797 225.746109,578.185913
	C225.728241,570.714905 225.791290,563.243469 225.717010,555.773193
	C225.689957,553.054077 226.814377,551.798401 229.542160,551.824524
	C234.521835,551.872253 239.502350,551.825317 244.482315,551.853455
	C246.290649,551.863708 247.925079,552.354431 247.881119,554.558350
	C247.837997,556.720154 246.240295,557.198303 244.409515,557.215332
	C241.421417,557.243103 238.433289,557.310120 235.445374,557.299622
	C233.199173,557.291748 232.037949,558.299744 232.060181,560.589050
	C232.080383,562.669739 232.177139,564.729553 234.914780,565.000488
	C237.554718,565.261841 240.204239,565.427979 242.850433,565.624146
	C244.388336,565.738220 245.962875,565.841553 246.028030,567.917297
	C246.094330,570.029785 244.545944,570.251770 242.980957,570.296387
	C240.824066,570.357971 238.641525,570.552917 236.511856,570.315308
	C232.449478,569.862061 231.317307,571.770142 231.322235,575.505554
	C231.325180,577.727722 232.654282,580.645203 228.960785,582.049316
z"/>
<path fill="#000000" opacity="1.000000" stroke="none"
	d="
M277.657288,569.982666
	C277.664520,565.004700 277.750031,560.520874 277.651855,556.041077
	C277.589264,553.185730 278.593689,551.689209 281.651306,551.754395
	C286.463226,551.856995 291.278564,551.795959 296.092316,551.822510
	C297.891632,551.832458 299.493835,552.200317 299.484161,554.480347
	C299.474548,556.744934 297.872803,557.124084 296.077667,557.154785
	C293.256165,557.202881 290.431427,557.307495 287.613007,557.222900
	C284.838593,557.139587 283.262207,557.897949 283.291565,561.116516
	C283.319977,564.232361 284.345764,565.802673 287.627686,565.634827
	C290.111511,565.507629 292.606323,565.568848 295.095886,565.588318
	C296.592102,565.600037 297.723816,566.167908 297.754730,567.868958
	C297.784760,569.523926 296.800476,570.227417 295.242157,570.279907
	C294.578705,570.302185 293.912018,570.286621 293.252197,570.347107
	C290.314972,570.615967 286.939667,569.274963 284.529266,571.198059
	C282.082977,573.149841 283.668488,576.520081 283.315399,579.242676
	C283.094055,580.949280 282.544617,582.080383 280.630249,582.108459
	C278.456085,582.140259 277.730591,580.867188 277.711823,578.944092
	C277.684296,576.122314 277.674896,573.300354 277.657288,569.982666
z"/>
</svg>