<?xml version="1.0" standalone="no"?>
<!DOCTYPE svg PUBLIC "-//W3C//DTD SVG 20010904//EN"
 "http://www.w3.org/TR/2001/REC-SVG-20010904/DTD/svg10.dtd">
<svg version="1.0" xmlns="http://www.w3.org/2000/svg"
 width="1024.000000pt" height="1024.000000pt" viewBox="0 0 1024.000000 1024.000000"
 preserveAspectRatio="xMidYMid meet">
<metadata>
Created by potrace 1.16, written by Peter Selinger 2001-2019
</metadata>
<g transform="translate(0.000000,1024.000000) scale(0.100000,-0.100000)"
fill="none" stroke="currentColor" stroke-width="2.5" stroke-linecap="round" stroke-linejoin="round">
<path d="M0 5120 l0 -5120 5120 0 5120 0 0 5120 0 5120 -5120 0 -5120 0 0
-5120z m5245 4448 c83 -28 304 -133 450 -214 33 -18 97 -45 142 -59 45 -15 88
-34 95 -42 6 -8 35 -26 62 -40 55 -27 206 -130 218 -148 64 -94 94 -118 225
-182 73 -35 135 -68 138 -73 3 -5 22 -14 43 -21 37 -12 81 -42 191 -131 33
-27 69 -48 82 -48 16 0 50 -27 109 -88 47 -48 117 -115 157 -149 68 -60 75
-63 143 -73 131 -19 237 -88 321 -211 36 -53 41 -56 88 -62 56 -7 105 -31 172
-85 99 -80 170 -132 179 -132 6 0 10 -4 10 -9 0 -5 22 -23 49 -40 55 -36 136
-118 173 -176 14 -22 38 -51 53 -65 15 -14 37 -47 50 -75 22 -50 146 -180 210
-221 28 -18 78 -66 165 -161 20 -21 50 -51 68 -67 18 -16 49 -52 67 -80 77
-115 122 -176 169 -227 27 -30 63 -76 81 -104 36 -57 145 -184 225 -265 78
-78 163 -178 175 -205 6 -12 31 -44 57 -71 122 -126 338 -448 338 -504 0 -37
-12 -50 -44 -50 -24 0 -44 11 -82 48 -27 26 -104 97 -170 157 -65 61 -125 118
-132 128 -7 9 -36 29 -63 43 -27 13 -55 36 -61 49 -11 24 -55 56 -110 82 -16
6 -28 17 -28 24 0 17 -31 38 -57 39 -12 0 -42 16 -68 35 -73 56 -240 137 -268
130 -20 -5 -39 7 -108 70 -46 43 -99 85 -118 94 -19 9 -61 44 -94 79 -33 34
-67 62 -74 62 -32 0 -338 320 -420 439 -26 39 -49 67 -51 62 -3 -9 92 -300
126 -385 9 -23 24 -52 34 -66 10 -14 26 -50 37 -80 28 -79 64 -161 83 -190 9
-14 24 -52 33 -85 27 -100 76 -238 94 -270 10 -16 24 -57 31 -90 7 -33 16 -65
21 -71 6 -7 5 -23 -2 -40 -13 -33 -1 -112 38 -259 45 -171 56 -240 60 -385 2
-94 9 -162 19 -194 21 -67 29 -332 11 -360 -10 -16 -12 -40 -6 -96 11 -111 10
-306 -2 -380 -11 -68 -24 -168 -38 -285 -4 -38 -4 -74 1 -79 14 -17 9 -64 -12
-99 -17 -29 -20 -52 -20 -188 -1 -185 7 -418 22 -589 6 -69 10 -159 9 -200 -1
-41 3 -106 10 -145 6 -38 14 -135 19 -215 5 -80 14 -203 20 -275 6 -71 9 -141
6 -155 -4 -14 -10 -68 -15 -120 -10 -98 -26 -129 -58 -111 -21 11 -65 120 -64
159 0 18 -6 52 -14 75 -25 75 -47 170 -55 242 -4 39 -12 84 -18 100 -6 17 -13
71 -16 120 -12 170 -17 210 -36 270 -10 33 -18 83 -18 110 1 32 -4 59 -16 76
-13 20 -18 56 -22 139 -3 65 -11 127 -19 147 -8 20 -15 50 -15 67 0 17 -10 47
-23 66 -40 60 -61 144 -58 232 1 20 -6 61 -15 90 -43 135 -55 169 -75 202 -12
20 -19 42 -16 50 8 21 -20 179 -48 271 -46 153 -58 204 -51 221 3 9 -2 42 -13
73 -37 107 -61 197 -72 276 -6 43 -20 102 -30 130 -11 27 -26 82 -34 120 -7
39 -20 104 -29 145 -8 41 -19 148 -24 237 -7 137 -11 165 -27 182 -16 19 -18
36 -16 139 1 65 -2 129 -8 143 -6 17 -6 42 1 73 8 37 7 54 -5 79 -16 33 -28
167 -33 362 -2 93 -19 377 -24 410 -1 6 -6 -6 -11 -25 -9 -36 -22 -219 -44
-609 -3 -52 -9 -99 -14 -105 -18 -23 -27 -106 -35 -316 -2 -67 -15 -170 -30
-247 -14 -72 -26 -145 -26 -161 0 -16 -9 -58 -20 -93 -10 -35 -24 -95 -29
-134 -21 -136 -34 -186 -53 -199 -18 -13 -27 -40 -78 -229 -11 -43 -27 -88
-35 -100 -7 -12 -21 -51 -30 -87 -9 -36 -27 -92 -40 -125 -13 -33 -28 -78 -33
-100 -33 -139 -56 -201 -127 -340 -32 -64 -52 -92 -68 -95 -15 -4 -27 -19 -37
-50 -9 -25 -27 -70 -42 -100 -14 -30 -29 -72 -33 -92 -4 -20 -22 -61 -41 -90
-19 -29 -34 -59 -34 -66 0 -8 -11 -36 -25 -64 -14 -27 -25 -60 -25 -73 0 -12
-7 -28 -15 -35 -8 -6 -25 -36 -39 -65 -13 -29 -33 -58 -45 -64 -11 -6 -25 -29
-31 -50 -5 -21 -22 -55 -36 -77 -14 -21 -39 -81 -56 -133 -16 -53 -38 -112
-48 -131 -25 -48 -50 -137 -50 -176 0 -18 -4 -34 -9 -36 -11 -4 -61 -157 -61
-188 0 -14 -6 -35 -14 -46 -8 -11 -17 -38 -21 -60 -15 -97 -27 -163 -40 -214
-8 -30 -19 -109 -26 -175 -6 -66 -18 -135 -25 -154 -8 -18 -14 -54 -14 -80 0
-25 -9 -97 -19 -160 -11 -63 -17 -121 -14 -128 3 -8 -1 -31 -10 -51 -9 -20
-18 -71 -21 -112 -3 -41 -14 -111 -26 -155 -11 -44 -20 -95 -20 -113 0 -46
-16 -72 -44 -72 -28 0 -49 22 -75 80 -34 77 -43 163 -40 385 4 289 4 292 -5
450 -12 221 -7 347 17 437 9 34 15 96 15 153 0 58 4 101 11 109 7 8 12 46 12
88 0 40 4 96 9 123 6 28 14 105 19 173 6 76 14 129 22 139 19 22 13 181 -7
204 -19 21 -18 93 2 132 13 25 17 65 18 192 2 153 3 163 30 219 17 37 26 69
23 85 -3 14 -1 35 3 46 4 12 1 29 -8 43 -14 21 -13 29 2 79 10 30 18 76 17
102 0 25 9 80 20 123 10 42 19 91 19 108 0 39 43 168 78 232 l25 47 -24 20
c-22 17 -23 22 -12 53 7 18 19 67 28 108 22 104 76 261 124 361 42 87 49 113
30 125 -12 7 -3 71 12 90 5 6 28 49 50 95 22 46 47 95 55 109 28 46 84 169 84
182 0 8 11 29 25 48 14 19 25 39 25 46 0 6 7 17 15 24 9 7 13 21 9 34 -5 23
24 101 55 145 10 14 31 58 46 96 27 70 87 186 110 215 7 8 34 62 60 119 26 58
58 122 71 143 50 79 102 196 128 288 15 52 34 110 42 128 8 18 14 47 14 64 0
28 -2 30 -14 18 -14 -15 -186 -324 -186 -335 0 -3 -20 -40 -46 -83 -25 -42
-49 -84 -53 -92 -4 -8 -17 -16 -29 -18 -15 -2 -38 -33 -78 -100 -84 -145 -221
-378 -288 -489 -72 -121 -138 -231 -151 -255 -42 -74 -136 -196 -176 -230 -35
-29 -53 -54 -61 -82 -7 -23 -25 -59 -40 -81 -60 -85 -158 -240 -158 -250 0
-18 -128 -125 -150 -125 -23 0 -86 -60 -96 -92 -19 -61 -152 -216 -374 -434
-70 -69 -91 -84 -117 -84 -28 0 -34 -6 -60 -56 -24 -47 -87 -133 -123 -169
-48 -46 -224 -228 -250 -258 -30 -35 -36 -38 -71 -32 -36 6 -39 5 -63 -34 -14
-22 -37 -48 -50 -56 -13 -9 -29 -29 -36 -45 -7 -16 -21 -32 -31 -35 -11 -4
-37 -23 -57 -43 -21 -20 -55 -51 -75 -69 -22 -19 -40 -44 -43 -62 -4 -19 -19
-40 -37 -53 -17 -12 -54 -44 -81 -70 -28 -27 -64 -52 -81 -56 -20 -6 -36 -20
-49 -45 -17 -31 -124 -143 -191 -198 -11 -9 -32 -32 -47 -52 -15 -19 -40 -38
-55 -41 -16 -4 -35 -19 -44 -35 -10 -17 -43 -43 -80 -62 -35 -19 -79 -50 -98
-70 -20 -20 -49 -45 -66 -56 -16 -12 -52 -49 -80 -83 -54 -67 -58 -71 -125
-124 -48 -38 -58 -47 -77 -68 -6 -7 -40 -33 -74 -58 -34 -25 -80 -64 -103 -88
-23 -23 -84 -87 -138 -142 -53 -55 -109 -121 -124 -148 -15 -26 -46 -69 -69
-97 -59 -71 -84 -109 -97 -147 -14 -42 -161 -281 -201 -328 -57 -66 -118 -89
-147 -55 -20 24 -24 92 -7 148 59 201 110 336 181 477 37 72 175 305 221 372
29 42 55 88 59 103 4 15 39 62 79 104 72 78 146 170 183 226 10 17 29 38 41
48 13 10 23 27 23 37 0 10 24 45 54 77 29 32 62 79 73 104 12 26 37 64 57 86
20 22 36 45 36 50 0 6 27 44 59 85 33 41 81 110 107 154 25 43 68 107 95 140
27 34 49 66 49 72 0 24 46 111 81 154 22 26 37 53 33 61 -6 17 57 129 101 177
17 19 37 49 44 65 6 17 28 49 47 70 33 36 79 100 95 129 3 6 14 27 24 46 10
19 33 61 51 92 18 32 28 60 23 63 -17 11 -9 35 26 85 19 27 35 54 35 59 0 5 6
16 13 23 6 7 27 31 46 53 18 22 57 65 85 95 28 30 85 93 126 139 69 78 73 84
56 97 -18 13 -18 15 7 53 15 23 27 43 27 47 0 22 144 196 225 272 27 26 67 64
89 85 22 21 45 36 52 33 7 -3 29 13 49 36 28 30 35 46 31 63 -5 20 14 44 121
156 278 286 400 397 514 467 41 26 91 64 112 84 20 20 68 57 107 82 39 25 73
52 76 60 3 8 36 34 72 58 37 24 99 74 138 113 38 38 93 88 121 109 51 39 199
193 218 228 6 10 44 54 85 99 41 44 84 95 95 112 l20 32 -30 -19 c-17 -10 -62
-43 -101 -72 -39 -30 -75 -54 -82 -54 -6 0 -23 -16 -37 -34 -15 -19 -41 -40
-59 -46 -18 -6 -44 -22 -57 -36 -27 -29 -90 -64 -114 -64 -8 0 -19 -10 -24
-23 -5 -13 -35 -43 -66 -67 -31 -24 -71 -58 -89 -74 -56 -54 -158 -121 -281
-186 -66 -35 -136 -73 -155 -85 -19 -12 -52 -27 -72 -34 -21 -7 -40 -16 -43
-21 -3 -5 -28 -16 -56 -25 -28 -10 -53 -23 -56 -30 -6 -18 -120 -91 -163 -106
-19 -7 -46 -20 -59 -31 -13 -10 -32 -18 -42 -18 -10 0 -48 -9 -84 -20 -36 -11
-95 -29 -132 -40 -38 -11 -88 -29 -113 -39 -147 -62 -144 -61 -157 -44 -11 15
-20 13 -90 -22 -43 -21 -127 -55 -188 -76 -60 -21 -128 -45 -150 -53 -22 -8
-56 -15 -75 -16 -19 0 -54 -8 -78 -17 -39 -14 -55 -15 -126 -5 -78 11 -84 11
-176 -18 -55 -17 -117 -30 -148 -30 -30 0 -77 -7 -105 -15 -29 -8 -68 -17 -87
-20 -19 -2 -82 -11 -140 -20 -58 -8 -125 -19 -150 -25 -140 -32 -239 -31 -308
3 -18 9 -38 7 -90 -6 -57 -14 -83 -15 -172 -6 -60 5 -135 20 -177 34 -39 14
-81 25 -92 25 -31 0 -108 20 -178 47 -34 12 -71 23 -83 23 -11 0 -31 6 -43 14
-12 7 -49 19 -81 26 -33 7 -91 26 -130 42 -39 16 -116 45 -170 64 -55 19 -109
40 -120 47 -12 6 -27 10 -34 8 -16 -3 -52 27 -52 43 0 6 -26 28 -58 48 -31 20
-86 62 -122 92 -36 31 -81 61 -100 67 -44 14 -72 39 -65 56 2 8 -3 22 -13 32
-38 39 -240 196 -278 217 -23 12 -61 36 -84 53 -23 16 -64 37 -91 46 -27 9
-51 21 -54 25 -9 14 -86 46 -130 54 -68 13 -85 29 -85 85 0 65 14 75 109 78
67 3 89 -1 191 -38 63 -23 124 -47 135 -53 11 -7 43 -21 72 -30 83 -28 317
-176 393 -249 14 -14 66 -54 115 -91 50 -36 107 -80 128 -97 69 -56 284 -137
417 -157 117 -18 365 -2 418 27 10 5 53 13 96 17 69 6 79 10 86 30 6 15 22 27
47 33 21 6 74 22 117 36 43 14 85 25 93 25 9 0 32 14 53 30 26 21 49 30 74 30
20 0 63 11 96 25 33 14 68 25 78 25 38 0 84 23 92 46 6 14 18 24 29 24 11 0
43 16 72 35 30 19 63 35 74 35 20 0 110 43 202 96 23 13 58 30 79 37 29 9 39
20 48 47 10 31 18 38 71 56 33 12 87 35 120 52 33 17 103 42 155 57 52 14 103
30 112 35 10 6 25 10 33 10 8 0 23 4 33 9 9 5 29 14 44 19 16 7 31 24 39 45
12 35 59 67 97 67 19 0 76 19 142 48 25 10 99 29 165 41 177 34 269 58 373 98
73 28 96 41 107 64 20 38 36 45 130 58 44 6 100 16 125 21 25 5 81 12 125 16
44 4 97 13 119 20 21 8 57 14 80 14 22 0 62 7 88 15 26 8 76 17 110 21 35 3
115 20 178 36 63 17 126 31 140 33 14 1 38 7 53 14 16 6 36 11 46 11 9 0 35
13 57 28 41 30 136 72 162 72 12 0 13 3 5 11 -7 7 -30 5 -79 -9 -38 -11 -98
-23 -134 -27 -36 -4 -78 -9 -95 -11 -98 -12 -238 -20 -285 -16 -111 9 -544
-19 -695 -46 -97 -17 -518 3 -550 27 -5 4 -30 13 -55 20 -25 7 -58 17 -74 22
-16 5 -38 9 -49 9 -12 0 -30 9 -42 20 -13 12 -41 21 -77 25 -31 3 -76 9 -100
14 -204 41 -338 79 -380 107 -21 13 -49 24 -63 24 -13 0 -48 11 -77 24 -29 13
-73 30 -98 39 -25 8 -58 20 -75 25 -16 6 -64 16 -105 22 -41 7 -95 20 -120 30
-25 10 -61 21 -80 24 -19 4 -45 16 -58 29 -21 19 -35 22 -115 22 -64 1 -106 6
-137 19 -25 9 -63 22 -85 27 -22 5 -54 16 -72 24 -17 8 -34 15 -39 15 -4 0
-15 6 -23 14 -9 8 -65 33 -125 56 -86 34 -119 52 -157 89 -27 26 -49 55 -49
63 0 9 12 26 26 37 27 21 54 28 54 13 0 -4 30 -8 67 -8 69 -2 220 -16 373 -36
47 -6 99 -10 115 -9 17 1 48 -3 70 -8 22 -6 78 -12 125 -15 47 -3 117 -8 156
-12 57 -5 76 -3 96 10 13 9 27 14 29 11 3 -2 53 -7 111 -10 83 -4 113 -1 135
11 21 11 56 14 133 13 58 -1 167 2 243 6 110 6 137 11 133 21 -4 11 7 14 44
14 27 0 70 7 95 15 64 22 303 22 475 0 169 -22 187 -21 210 7 17 21 26 23 122
23 56 0 121 -5 143 -11 38 -11 58 -17 183 -49 51 -13 53 -13 47 6 -8 23 -9 23
111 -1 183 -38 328 -83 427 -132 54 -27 118 -51 142 -55 25 -3 45 -9 45 -13 0
-4 34 -17 76 -30 60 -18 93 -21 151 -18 40 3 76 8 79 11 9 9 -28 54 -61 73
-180 106 -373 259 -461 365 -7 8 -47 42 -90 76 -101 80 -216 206 -208 227 7
19 -46 72 -96 95 -50 23 -100 62 -100 79 0 16 -28 43 -75 72 -31 19 -64 70
-45 70 25 0 -100 96 -195 150 -33 19 -64 39 -70 46 -5 6 -36 30 -67 53 -60 43
-98 79 -98 93 0 5 15 17 33 29 41 26 96 20 222 -23z"/>
<path d="M5115 9525 c17 -13 49 -34 72 -46 24 -11 46 -25 49 -30 3 -6 43 -34
87 -63 80 -53 224 -191 262 -251 21 -35 39 -49 114 -91 31 -18 58 -40 59 -50
2 -11 12 -28 22 -39 10 -11 25 -36 34 -55 9 -20 36 -56 59 -80 62 -65 233
-204 262 -213 19 -7 24 -14 20 -27 -5 -14 8 -29 50 -60 30 -22 55 -45 55 -50
0 -14 141 -111 151 -104 12 7 90 -48 153 -109 57 -56 77 -109 51 -136 -27 -28
-109 -40 -208 -31 -109 11 -192 38 -363 121 -66 32 -145 64 -174 70 -29 6 -67
17 -84 24 -17 7 -58 18 -90 24 -50 9 -66 8 -108 -7 -49 -17 -49 -17 -130 12
-87 31 -251 66 -307 66 -20 0 -44 -9 -61 -24 -40 -33 -118 -41 -196 -21 -113
29 -287 36 -464 20 -101 -9 -128 -16 -133 -34 -5 -19 -30 -22 -355 -37 -62 -3
-122 -11 -150 -22 -39 -14 -60 -16 -117 -9 -38 5 -101 8 -140 8 -237 -4 -345
0 -510 19 -49 6 -153 17 -230 25 -77 8 -162 19 -190 24 -27 5 -79 10 -114 10
l-64 1 19 -21 c10 -12 36 -30 57 -41 66 -33 254 -97 273 -92 31 7 79 -11 76
-29 -6 -38 179 -67 216 -34 25 23 59 21 74 -3 7 -11 21 -20 31 -20 10 0 28
-11 41 -25 38 -41 198 -85 310 -85 22 0 38 -7 47 -20 14 -20 80 -38 210 -59
52 -8 99 -34 99 -56 0 -19 12 -25 78 -40 76 -18 170 -21 184 -7 15 15 49 -3
42 -22 -6 -16 55 -33 149 -42 34 -3 81 -15 105 -26 29 -14 53 -18 75 -14 68
14 72 13 69 -15 -2 -25 2 -28 45 -37 89 -20 108 -22 213 -26 58 -3 132 -7 166
-11 38 -5 69 -3 81 4 12 6 47 14 79 17 34 4 64 14 70 22 9 13 16 13 40 4 18
-8 58 -10 109 -7 44 3 166 8 270 11 366 9 489 17 510 34 5 4 35 8 65 9 30 1
86 10 125 20 99 26 155 6 155 -57 0 -41 -18 -59 -87 -87 -38 -15 -92 -40 -120
-57 -31 -17 -98 -40 -160 -54 -60 -14 -153 -36 -208 -50 -55 -13 -132 -28
-171 -34 -40 -5 -84 -14 -99 -20 -30 -11 -141 -29 -222 -36 -28 -2 -98 -14
-155 -25 -57 -12 -116 -24 -133 -27 -31 -5 -55 -23 -55 -41 0 -5 -15 -14 -32
-19 -18 -6 -74 -26 -124 -45 -125 -48 -238 -79 -309 -84 -33 -2 -82 -10 -109
-18 -27 -8 -59 -15 -71 -15 -12 0 -52 -16 -88 -35 -36 -19 -75 -35 -87 -35
-14 0 -24 -9 -31 -27 -12 -35 -113 -92 -219 -123 -168 -49 -208 -63 -280 -96
-106 -50 -104 -48 -110 -75 -3 -13 -17 -29 -30 -36 -113 -54 -231 -103 -248
-103 -12 0 -36 -14 -54 -30 -18 -17 -56 -38 -84 -46 -51 -15 -95 -45 -106 -74
-7 -18 -121 -60 -163 -60 -16 0 -53 -11 -80 -24 -28 -12 -68 -26 -90 -30 -22
-4 -56 -17 -75 -29 -19 -12 -48 -23 -65 -25 -16 -2 -41 -10 -55 -17 -14 -7
-46 -23 -72 -35 -27 -12 -48 -28 -48 -35 0 -14 -30 -21 -175 -45 -38 -6 -91
-20 -117 -31 -33 -14 -59 -17 -91 -13 -28 4 -47 2 -51 -5 -8 -13 -235 -6 -306
9 -117 26 -174 41 -213 59 -41 18 -136 58 -209 88 -22 9 -39 24 -42 37 -3 13
-36 43 -78 72 -40 27 -84 59 -98 72 -13 13 -38 31 -55 39 -16 8 -41 28 -53 44
-43 53 -229 159 -382 219 -47 18 -101 39 -120 46 -28 11 -146 33 -184 34 -24
0 23 -32 82 -55 37 -15 76 -32 87 -39 11 -7 43 -21 71 -30 53 -17 189 -107
285 -186 30 -25 80 -65 111 -89 31 -23 68 -58 83 -77 14 -18 52 -52 85 -74 32
-22 65 -48 72 -58 7 -10 45 -40 83 -67 39 -26 84 -58 100 -70 57 -43 217 -106
231 -92 4 3 23 -5 43 -18 19 -14 41 -25 47 -25 6 0 18 -7 25 -16 18 -22 48
-32 114 -39 31 -3 69 -12 85 -20 15 -8 47 -17 71 -21 24 -4 59 -16 77 -26 21
-13 59 -22 100 -25 37 -3 99 -16 138 -29 121 -40 192 -46 341 -27 127 16 133
16 152 -1 17 -15 31 -17 83 -12 114 11 183 21 198 31 8 5 50 10 95 11 44 1 96
5 115 8 122 17 166 27 194 44 21 12 39 16 57 11 17 -4 46 0 80 12 29 11 60 19
69 19 9 0 35 9 58 20 22 11 47 20 54 20 7 0 19 9 26 20 14 22 61 27 80 8 15
-15 15 -51 0 -66 -17 -17 9 -16 62 3 23 8 53 15 67 15 22 0 55 11 203 66 36
14 77 29 93 34 15 5 77 34 137 64 60 31 115 56 123 56 7 0 26 14 42 30 36 37
52 38 67 3 7 -16 13 -29 13 -30 2 -3 120 38 194 66 28 12 65 21 80 21 51 0
174 65 247 129 48 43 76 61 95 61 18 0 36 11 54 33 36 42 53 51 70 37 12 -10
32 -2 102 37 48 26 93 50 98 52 6 2 60 35 122 73 90 55 116 77 135 110 13 23
32 45 43 48 11 3 45 29 76 58 30 29 78 67 106 85 154 98 347 233 411 287 90
76 119 81 145 28 18 -36 18 -38 -4 -80 -12 -24 -31 -56 -44 -73 -12 -16 -24
-35 -26 -42 -11 -32 -316 -358 -435 -464 -16 -15 -42 -42 -59 -60 -16 -18 -66
-56 -110 -86 -89 -59 -207 -154 -318 -255 -40 -36 -86 -70 -102 -74 -39 -9
-82 -40 -89 -62 -4 -10 -34 -39 -69 -64 -34 -26 -78 -63 -97 -84 -19 -21 -93
-95 -164 -164 -109 -109 -127 -131 -121 -150 9 -27 -16 -54 -173 -188 -64 -55
-136 -127 -167 -169 -30 -40 -68 -79 -84 -87 -16 -9 -42 -39 -59 -68 l-30 -53
21 -16 c20 -17 20 -18 3 -45 -24 -38 -67 -84 -79 -84 -11 0 -25 -15 -69 -75
-20 -27 -68 -81 -107 -119 -81 -80 -131 -165 -124 -211 3 -21 -3 -40 -19 -63
-88 -123 -106 -151 -116 -180 -6 -19 -41 -71 -77 -117 -36 -46 -77 -106 -91
-132 -14 -26 -41 -68 -60 -92 -30 -38 -33 -47 -21 -56 15 -11 6 -55 -12 -55
-5 0 -13 -10 -17 -22 -4 -13 -28 -44 -55 -69 -35 -35 -52 -62 -65 -104 -12
-39 -35 -76 -69 -115 -27 -32 -63 -81 -80 -111 -63 -112 -91 -155 -125 -190
-39 -40 -116 -158 -112 -172 3 -10 -38 -66 -100 -135 -26 -29 -55 -68 -63 -86
-9 -18 -24 -42 -34 -53 -10 -11 -22 -29 -25 -41 -4 -12 -20 -31 -37 -42 -16
-12 -29 -28 -29 -36 0 -7 -36 -51 -79 -96 -80 -83 -117 -131 -147 -191 -9 -17
-28 -45 -42 -62 -14 -16 -38 -56 -53 -89 -15 -32 -39 -71 -52 -85 -48 -53
-167 -283 -167 -324 0 -7 -11 -35 -24 -63 -60 -122 -78 -172 -88 -245 -12 -83
-9 -95 17 -86 19 8 110 148 182 282 30 55 79 134 109 175 30 41 67 100 83 130
17 32 61 86 107 130 114 110 126 123 155 167 15 23 49 53 80 70 30 17 72 48
95 70 22 21 66 58 97 81 30 24 79 71 108 104 29 33 75 81 103 107 28 25 64 60
81 77 16 17 50 42 74 54 24 12 62 41 83 65 22 24 50 46 64 49 13 4 38 25 54
47 16 23 46 50 67 60 21 11 54 40 73 66 19 25 47 60 62 78 15 17 36 57 48 87
11 31 27 62 35 68 20 17 43 6 47 -21 3 -21 6 -20 43 19 21 23 45 42 52 42 7 0
21 17 32 37 21 42 60 83 176 188 42 39 88 86 101 105 106 154 144 190 144 137
0 -13 3 -26 6 -30 6 -6 251 237 304 303 49 62 78 114 107 195 33 91 40 100 64
79 11 -10 19 -22 19 -28 0 -6 5 -18 10 -26 8 -12 17 -7 54 29 24 24 49 41 54
37 6 -3 14 7 20 22 5 15 64 85 131 154 67 70 139 153 160 185 21 32 55 78 76
103 21 25 47 64 57 88 20 45 41 51 46 14 4 -29 16 -28 42 6 61 77 225 352 235
395 4 15 15 29 25 32 10 3 30 32 44 65 15 33 30 60 33 60 3 0 11 -7 18 -17 11
-14 17 -8 49 49 20 36 36 72 36 81 0 9 9 22 19 30 19 13 101 128 101 141 0 4
11 24 25 46 38 61 89 161 101 200 6 19 15 34 21 33 16 -3 37 24 78 102 21 39
59 106 85 150 26 44 65 115 86 158 29 58 43 77 55 74 9 -3 21 -2 27 2 15 9 88
137 168 291 97 189 167 251 208 188 13 -20 13 -32 0 -93 -8 -38 -18 -81 -23
-95 -4 -14 -21 -65 -36 -115 -29 -95 -94 -241 -126 -287 -29 -41 -89 -165 -89
-185 0 -10 -10 -35 -23 -55 -91 -154 -109 -186 -122 -225 -8 -24 -27 -67 -41
-95 -15 -29 -23 -59 -20 -71 6 -23 -21 -91 -55 -138 -12 -17 -65 -120 -119
-230 -54 -110 -103 -205 -108 -212 -5 -7 -14 -28 -21 -47 -11 -31 -10 -36 9
-49 11 -7 20 -17 20 -21 0 -5 -22 -47 -50 -95 -67 -115 -143 -314 -164 -427
-6 -33 -4 -38 12 -38 34 0 32 -25 -9 -132 -21 -56 -39 -107 -39 -113 0 -5 -6
-22 -14 -37 -20 -39 -46 -166 -56 -283 -5 -55 -12 -110 -16 -122 -6 -20 -3
-23 24 -23 43 0 47 -14 16 -55 -21 -28 -28 -51 -34 -111 -6 -56 -14 -84 -31
-107 -23 -30 -24 -42 -29 -217 -4 -152 -8 -191 -23 -218 l-18 -33 31 -10 c29
-11 30 -13 25 -58 -4 -25 -8 -59 -9 -76 -9 -91 -20 -153 -33 -178 -8 -16 -12
-35 -9 -43 3 -8 -1 -58 -10 -112 -8 -53 -17 -140 -20 -192 -2 -52 -8 -119 -13
-149 -4 -29 -5 -69 -1 -88 5 -19 4 -49 -1 -66 -5 -18 -11 -49 -14 -70 -3 -21
-8 -49 -11 -63 -4 -15 -2 -24 6 -24 16 0 4 -49 -17 -72 -14 -16 -15 -42 -7
-220 5 -112 7 -270 5 -353 -7 -240 -7 -407 2 -445 13 -58 28 -100 36 -100 13
0 31 98 31 164 0 34 4 66 9 72 6 5 15 50 21 99 6 50 15 99 20 110 5 11 12 54
15 95 6 98 31 276 44 319 6 19 13 73 16 120 4 47 17 129 30 182 13 53 26 127
30 165 4 38 13 75 19 83 6 8 18 46 28 85 36 155 78 296 116 391 22 55 48 127
57 160 10 33 26 69 37 81 10 12 24 39 29 60 6 21 21 62 34 89 12 28 26 68 31
89 10 45 31 58 36 24 4 -25 0 -32 68 117 15 33 36 78 46 100 10 22 26 49 36
59 10 11 18 28 18 38 0 11 14 51 31 91 17 40 44 115 61 167 16 52 36 101 43
109 17 17 35 6 35 -22 0 -28 63 111 101 223 16 47 29 96 29 110 0 14 13 50 29
80 16 33 33 88 41 135 8 51 21 93 36 116 14 19 31 67 39 105 8 38 24 105 35
149 12 44 25 111 28 149 7 72 26 98 38 52 9 -38 24 -31 24 12 1 20 7 69 15
107 74 369 95 499 95 601 0 170 12 304 27 304 7 0 13 6 14 13 0 6 2 26 4 42 1
17 5 100 9 185 12 293 22 426 37 480 28 97 46 111 87 67 31 -33 40 -73 47
-196 3 -58 10 -134 15 -168 6 -34 10 -95 10 -135 -1 -94 8 -256 16 -282 3 -12
12 -35 20 -52 10 -24 12 -44 5 -81 -6 -30 -6 -97 -1 -173 5 -69 10 -130 10
-136 0 -7 8 -11 18 -10 15 1 18 -16 23 -179 5 -138 11 -198 27 -257 12 -43 25
-103 28 -135 4 -32 15 -70 25 -85 13 -17 19 -44 19 -80 1 -100 47 -326 73
-356 9 -11 19 -54 25 -117 11 -113 27 -183 46 -205 8 -8 16 -37 19 -65 16
-136 30 -213 47 -254 46 -115 90 -272 90 -326 0 -63 28 -166 56 -208 31 -47
53 -164 57 -297 2 -87 5 -98 31 -132 27 -36 28 -42 21 -103 -5 -48 -2 -77 10
-114 8 -26 22 -108 30 -182 8 -74 18 -156 24 -184 5 -27 18 -102 27 -165 9
-63 26 -140 37 -170 l21 -55 8 43 c4 24 3 96 -3 160 -5 65 -11 160 -14 212 -2
52 -7 120 -11 150 -11 79 -12 102 -17 226 -2 61 -9 126 -15 145 -18 53 -32
765 -16 791 2 3 0 17 -5 31 -7 19 -5 34 10 61 15 29 19 55 18 128 -1 51 4 123
11 159 8 49 9 81 1 126 -6 33 -9 68 -5 77 6 15 7 15 19 0 10 -14 13 -7 18 47
7 63 1 253 -8 300 -3 13 -8 57 -12 98 -6 67 -5 74 10 68 27 -10 24 203 -4 303
-12 41 -20 89 -19 105 9 114 -8 324 -29 364 -6 11 -11 30 -11 44 0 13 -6 43
-14 68 -14 46 -51 200 -60 256 -3 18 -1 35 5 39 17 10 3 56 -62 199 -5 11 -20
64 -34 117 -14 54 -34 112 -44 130 -11 18 -38 78 -61 133 -24 55 -48 107 -55
115 -8 8 -17 29 -21 45 -4 17 -9 35 -13 40 -6 11 -22 55 -94 260 -48 138 -74
279 -55 302 19 23 34 14 79 -44 24 -31 58 -72 74 -92 17 -20 37 -49 45 -65 23
-46 316 -340 329 -331 8 4 33 -16 67 -53 30 -33 85 -82 122 -108 37 -26 95
-74 130 -106 62 -58 86 -69 95 -45 3 8 13 5 35 -11 17 -12 83 -49 147 -82 126
-65 215 -119 215 -131 0 -5 17 -16 37 -26 64 -30 282 -210 416 -344 70 -70
127 -125 127 -122 0 34 -163 261 -269 374 -43 46 -85 98 -94 116 -9 17 -39 51
-67 75 -50 43 -61 63 -39 70 7 2 -18 28 -55 57 -37 29 -76 67 -87 85 -11 18
-42 52 -69 75 -27 23 -53 54 -57 69 -10 41 -42 88 -135 192 -46 52 -98 121
-116 154 -19 32 -42 60 -52 63 -10 3 -50 44 -88 91 -71 88 -136 150 -272 257
-91 73 -95 77 -126 142 -24 50 -66 91 -117 114 -33 15 -43 40 -23 55 14 10 9
19 -36 64 -29 29 -70 65 -93 79 -59 38 -184 133 -234 179 -37 34 -117 70 -128
58 -4 -4 71 -177 105 -241 26 -51 47 -82 142 -208 119 -159 166 -216 187 -226
12 -6 29 -26 37 -44 8 -20 39 -53 74 -81 34 -25 78 -68 99 -94 117 -146 177
-212 215 -237 43 -28 81 -66 159 -157 l40 -47 -33 9 c-24 7 -79 56 -193 173
-88 90 -179 176 -202 190 -23 15 -49 40 -57 56 -8 15 -57 70 -108 122 -52 52
-114 120 -138 152 -24 32 -60 72 -81 90 -20 18 -59 61 -85 97 -27 36 -56 70
-65 77 -9 7 -33 52 -54 100 -73 171 -78 182 -87 177 -16 -10 -8 -74 17 -130
14 -31 25 -66 25 -79 0 -12 9 -51 19 -86 10 -35 33 -140 51 -234 17 -93 42
-206 55 -250 32 -107 72 -291 84 -390 12 -98 37 -263 56 -370 8 -44 17 -109
21 -145 4 -36 13 -79 21 -97 7 -18 13 -58 13 -90 0 -32 10 -96 21 -143 12 -47
25 -112 29 -145 5 -33 18 -105 29 -160 11 -55 20 -119 21 -143 0 -24 5 -53 12
-65 6 -12 15 -83 19 -157 5 -80 17 -166 28 -210 12 -41 21 -104 21 -140 0 -36
5 -81 11 -100 5 -19 10 -50 11 -69 0 -19 7 -53 16 -75 21 -57 29 -438 8 -430
-26 10 -39 89 -33 189 4 52 3 96 -2 99 -4 3 -11 60 -15 127 -4 67 -12 133 -18
148 -5 14 -12 58 -14 96 -2 39 -18 113 -34 167 -22 70 -30 116 -30 169 0 40
-6 98 -14 128 -8 31 -19 97 -25 146 -6 50 -15 115 -21 145 -5 30 -12 71 -15
90 -3 19 -12 55 -19 80 -8 25 -19 90 -25 145 -6 56 -17 120 -26 144 -8 24 -15
66 -15 93 0 27 -9 77 -19 111 -11 34 -22 102 -25 151 -4 50 -13 103 -21 119
-8 17 -15 44 -15 62 0 91 -64 397 -90 430 -4 6 -10 46 -14 90 -12 157 -86 530
-119 604 l-20 46 -14 -50 c-7 -27 -13 -79 -13 -115 0 -93 -85 -498 -145 -690
-18 -58 -36 -121 -40 -140 -4 -19 -13 -45 -21 -57 -8 -13 -17 -44 -20 -70 -6
-45 -33 -169 -90 -410 -13 -56 -24 -113 -24 -125 0 -13 -7 -36 -16 -53 -15
-26 -98 -326 -124 -443 -5 -23 -23 -76 -40 -118 -16 -41 -30 -83 -30 -93 0
-10 -11 -46 -25 -80 -14 -34 -37 -103 -50 -153 -13 -49 -29 -96 -35 -103 -6
-8 -10 -24 -9 -37 1 -13 -5 -40 -14 -62 -9 -21 -17 -46 -17 -55 0 -9 -7 -41
-16 -71 -9 -30 -24 -84 -34 -120 -10 -36 -28 -89 -39 -118 -12 -29 -21 -61
-21 -73 0 -11 -13 -47 -30 -81 -16 -33 -30 -66 -30 -73 0 -7 -13 -39 -30 -70
-16 -31 -30 -72 -30 -89 0 -19 -9 -43 -20 -56 -11 -13 -20 -37 -20 -56 0 -45
-28 -153 -50 -189 -10 -16 -23 -55 -29 -85 -17 -82 -68 -269 -112 -408 -22
-68 -39 -134 -39 -148 0 -33 -31 -94 -48 -94 -17 0 -14 19 23 145 40 136 53
185 66 245 6 30 17 75 25 100 7 25 16 64 19 87 4 24 22 86 41 140 19 53 44
133 54 177 29 122 89 310 104 321 7 6 18 37 24 69 7 33 19 67 27 76 8 9 15 26
15 38 0 11 11 51 24 89 23 65 32 97 91 311 64 235 78 282 106 357 28 79 51
165 43 165 -3 0 2 10 10 23 8 12 42 132 76 265 34 134 70 263 81 287 10 23 26
78 34 121 18 93 40 192 65 289 10 39 23 99 30 135 6 36 22 99 36 140 36 113
131 533 144 634 6 49 15 96 19 105 5 9 21 74 36 145 15 71 31 140 36 154 18
46 2 33 -46 -40 -69 -104 -128 -172 -291 -340 -34 -35 -101 -108 -149 -163
-49 -55 -107 -119 -129 -141 -23 -23 -54 -66 -70 -95 -16 -30 -57 -85 -91
-124 -34 -38 -107 -131 -162 -205 -55 -74 -111 -144 -123 -155 -12 -11 -40
-46 -62 -78 -22 -32 -58 -80 -81 -107 -23 -27 -52 -62 -65 -77 -12 -16 -56
-67 -97 -115 -41 -48 -75 -94 -75 -102 0 -8 -24 -39 -52 -69 -29 -30 -77 -90
-107 -132 -30 -42 -60 -79 -67 -82 -8 -3 -24 -21 -36 -41 -36 -60 -109 -151
-173 -216 -34 -34 -71 -77 -85 -96 -13 -19 -39 -51 -58 -70 -19 -19 -45 -51
-57 -70 -13 -19 -51 -64 -84 -100 -34 -35 -61 -69 -61 -74 0 -5 -33 -42 -72
-82 -40 -40 -88 -97 -106 -126 -18 -30 -69 -92 -113 -138 -44 -47 -92 -103
-107 -125 -15 -22 -49 -64 -76 -92 -27 -29 -58 -72 -70 -95 -12 -23 -65 -88
-118 -145 -54 -57 -109 -120 -123 -142 -26 -38 -70 -67 -79 -52 -11 17 81 133
208 265 20 21 47 56 59 78 36 65 39 70 102 135 131 135 187 200 216 252 16 30
50 77 75 105 105 117 214 247 214 255 0 4 23 34 50 65 28 31 50 63 50 70 0 6
26 39 58 73 100 106 161 176 212 243 27 36 56 72 65 81 8 9 15 21 15 27 0 6
26 37 58 69 31 32 74 84 95 115 21 31 42 60 47 63 6 3 42 52 82 108 39 56 90
122 112 147 50 55 89 108 198 268 13 18 37 51 53 72 17 22 44 58 60 80 31 42
63 81 173 213 34 42 62 79 62 84 0 4 41 51 91 103 50 52 103 114 118 136 27
42 146 175 256 288 58 59 76 81 163 191 22 28 60 70 86 95 25 24 46 48 46 52
0 10 -1111 -543 -1140 -567 -8 -7 -41 -25 -73 -39 -32 -14 -92 -48 -134 -76
-41 -27 -81 -50 -88 -50 -7 0 -35 -15 -62 -32 -26 -18 -96 -55 -153 -82 -58
-27 -112 -55 -121 -63 -8 -7 -23 -13 -32 -13 -10 0 -59 -20 -110 -44 -50 -24
-110 -49 -132 -55 -22 -6 -80 -31 -128 -56 -48 -25 -96 -45 -105 -45 -9 0 -42
-16 -72 -35 -30 -19 -61 -35 -70 -35 -8 0 -42 -13 -75 -30 -33 -16 -65 -30
-71 -30 -11 0 -86 -32 -199 -84 -27 -13 -88 -36 -134 -50 -46 -15 -96 -35
-111 -46 -15 -11 -54 -26 -87 -33 -32 -8 -72 -21 -88 -29 -17 -9 -45 -19 -63
-23 -40 -8 -92 -34 -92 -44 0 -5 -42 -20 -93 -34 -186 -52 -317 -71 -317 -46
0 15 88 52 130 54 19 1 70 10 113 20 62 15 79 23 83 40 7 27 132 68 184 59 28
-4 42 0 69 20 19 14 43 26 54 26 10 0 30 9 44 20 14 11 37 20 52 20 14 1 44
12 66 25 56 34 82 45 112 45 14 0 31 7 37 16 7 9 34 20 61 25 26 5 63 20 81
34 18 14 39 25 46 25 7 0 32 14 56 30 24 16 50 26 57 24 8 -3 39 11 69 31 30
20 83 44 118 54 35 10 83 32 108 49 25 16 65 35 90 42 25 6 61 20 80 30 19 10
123 61 230 114 107 53 256 130 330 171 74 41 168 91 208 110 40 19 100 53 132
75 66 43 490 261 630 323 71 31 123 59 149 79 13 10 31 18 41 18 10 0 29 9 42
20 14 10 46 26 71 35 150 51 152 50 -120 53 -411 6 -489 6 -713 0 -118 -4
-260 -2 -315 3 -55 5 -131 11 -170 13 -38 2 -99 9 -135 15 -36 7 -155 18 -265
27 -110 8 -238 19 -285 24 -118 13 -329 30 -425 34 -44 2 -106 11 -138 20 -32
9 -79 16 -105 16 -26 0 -65 5 -87 10 -22 5 -89 15 -150 21 -266 26 -315 30
-407 35 -74 5 -98 10 -103 22 -3 8 -4 17 -1 19 5 5 190 -11 316 -27 41 -5 111
-12 155 -15 44 -4 116 -13 160 -20 44 -8 94 -16 110 -19 34 -6 167 -16 303
-22 51 -2 111 -8 135 -14 23 -5 78 -10 122 -10 44 0 107 -5 140 -10 68 -11
128 -17 265 -25 52 -3 167 -12 255 -20 282 -25 520 -32 925 -27 217 3 463 5
547 6 160 1 203 10 106 21 -119 14 -285 71 -349 121 -25 18 -50 34 -56 34 -5
0 -27 12 -47 28 -38 29 -46 33 -129 83 -29 17 -66 48 -83 69 -17 21 -51 49
-77 63 -26 14 -63 42 -82 62 -19 21 -61 55 -94 77 -32 22 -84 66 -116 97 -31
31 -102 87 -156 124 -88 61 -341 281 -343 299 -3 21 62 -21 114 -74 33 -33 89
-83 125 -109 117 -86 151 -113 213 -172 34 -32 82 -67 106 -78 24 -11 73 -47
108 -79 36 -34 95 -76 136 -96 86 -43 113 -64 95 -75 -18 -11 4 -33 65 -64 29
-15 68 -39 87 -54 85 -65 178 -116 265 -147 101 -35 283 -68 331 -60 16 2 32
5 37 5 13 2 7 46 -11 76 -28 45 -90 104 -135 127 -22 11 -71 24 -109 30 -85
11 -120 31 -228 128 -121 107 -176 150 -195 150 -8 0 -42 26 -74 58 -32 31
-85 78 -118 103 -59 46 -275 161 -323 172 -14 4 -55 23 -90 44 -46 28 -71 50
-89 83 -38 65 -125 144 -200 180 -36 18 -77 40 -91 49 -14 10 -45 23 -69 30
-45 13 -244 108 -283 135 -12 9 -30 16 -39 16 -9 0 -24 9 -34 20 -10 11 -23
20 -28 20 -6 0 -41 16 -78 35 -38 19 -75 35 -83 35 -8 0 -31 9 -50 21 -32 18
-125 49 -151 49 -5 0 4 -11 20 -25z m-1387 -3364 c11 -6 11 -10 0 -18 -12 -10
-130 -52 -208 -74 -115 -33 -320 -58 -320 -38 0 16 112 49 169 49 16 0 34 6
40 13 11 14 81 37 186 61 70 17 115 19 133 7z m-908 -181 c0 -39 -161 -76
-382 -87 -206 -10 -55 41 182 62 25 2 68 10 95 19 58 17 105 20 105 6z"/>
</g>
</svg>
