<?xml version="1.0" standalone="no"?>
<!DOCTYPE svg PUBLIC "-//W3C//DTD SVG 20010904//EN"
 "http://www.w3.org/TR/2001/REC-SVG-20010904/DTD/svg10.dtd">
<svg version="1.0" xmlns="http://www.w3.org/2000/svg"
 width="1024.000000pt" height="1024.000000pt" viewBox="0 0 1024.000000 1024.000000"
 preserveAspectRatio="xMidYMid meet">
<metadata>
Created by potrace 1.16, written by Peter Selinger 2001-2019
</metadata>
<g transform="translate(0.000000,1024.000000) scale(0.100000,-0.100000)"
fill="#000000" stroke="none">
<path d="M0 5120 l0 -5120 5120 0 5120 0 0 5120 0 5120 -5120 0 -5120 0 0
-5120z m2620 1740 c23 -91 126 -413 142 -443 9 -18 11 -18 34 4 13 12 26 21
28 18 2 -2 9 -47 15 -99 6 -52 16 -119 22 -148 l11 -54 22 21 c12 12 26 21 30
21 5 0 6 -84 4 -187 -5 -177 -7 -196 -42 -325 -20 -75 -36 -142 -36 -149 0 -6
30 27 66 75 36 48 102 126 147 174 45 48 92 98 105 111 24 27 26 27 38 -12 l9
-28 65 57 c36 31 91 74 123 95 50 35 57 37 57 20 0 -11 4 -22 8 -25 5 -3 98
44 208 104 109 60 205 110 212 110 21 0 14 -17 -39 -96 -52 -76 -162 -295
-174 -346 -6 -24 -4 -28 14 -28 12 0 21 -5 21 -10 0 -16 -97 -169 -151 -237
-41 -52 -46 -63 -30 -63 11 0 23 -5 27 -11 10 -17 -150 -165 -277 -255 l-111
-79 63 -7 c85 -10 148 -23 251 -55 80 -24 86 -27 77 -45 -6 -11 -9 -21 -7 -22
7 -6 168 -65 261 -96 53 -17 97 -35 97 -39 0 -4 -55 -24 -122 -45 -113 -34
-257 -84 -267 -92 -2 -2 2 -10 9 -19 7 -9 11 -17 9 -20 -11 -10 -254 -35 -346
-35 l-104 0 12 -22 c6 -13 27 -42 46 -66 20 -24 32 -46 29 -50 -10 -10 -170
35 -251 70 -90 39 -185 101 -257 167 l-57 52 -5 -33 c-2 -18 -14 -105 -26
-194 -34 -259 -88 -439 -181 -596 -45 -77 -80 -108 -121 -108 -35 0 -68 16
-68 33 0 7 26 40 58 73 69 73 134 198 191 370 40 119 81 319 81 395 l0 39 -82
-65 c-96 -75 -199 -132 -313 -169 -82 -28 -165 -44 -165 -32 0 3 20 33 45 67
25 34 45 64 45 69 0 4 -53 7 -117 6 -114 0 -323 20 -323 32 0 3 7 13 16 23 14
16 12 18 -38 37 -29 11 -117 39 -195 63 -79 24 -143 47 -143 50 0 4 46 21 103
39 120 38 247 89 247 99 0 4 -6 13 -12 19 -10 10 -10 15 2 23 32 20 182 61
285 77 l108 17 -72 48 c-39 26 -126 96 -193 155 -119 104 -121 107 -95 116
l26 9 -48 61 c-59 74 -162 242 -154 250 4 3 15 6 25 6 10 0 18 6 18 13 0 26
-80 189 -153 313 -42 72 -77 134 -77 137 0 16 28 2 177 -84 154 -89 247 -139
258 -139 3 0 5 11 5 25 0 14 4 25 9 25 5 0 64 -42 132 -94 l124 -94 5 30 c5
30 5 30 100 -68 52 -55 127 -146 165 -203 39 -57 71 -97 73 -90 1 8 -14 91
-33 184 -53 251 -79 468 -58 488 4 4 19 -5 35 -20 15 -14 30 -25 32 -22 2 2
12 76 21 164 9 88 17 164 18 168 2 5 15 -1 29 -13 l27 -21 25 48 c22 44 119
338 146 442 6 24 15 40 20 35 5 -5 18 -47 30 -94z m2433 8 c164 -469 393
-1102 408 -1133 30 -57 47 -74 91 -87 34 -10 38 -14 38 -45 l0 -33 -250 0
-250 0 0 34 c0 33 1 34 50 40 95 13 101 61 34 254 l-47 132 -203 0 -203 0 -26
-82 c-76 -239 -68 -289 47 -304 47 -6 48 -8 48 -40 l0 -34 -220 0 -220 0 0 34
c0 31 3 34 38 40 51 8 88 38 116 94 12 26 108 300 212 609 l189 563 67 0 66 0
15 -42z m1179 -329 c64 -14 104 -33 141 -68 78 -71 76 -165 -3 -206 -63 -32
-93 -16 -124 67 -33 88 -83 128 -163 128 -130 -1 -209 -118 -220 -325 -14
-250 65 -415 213 -445 94 -20 174 5 266 81 52 43 55 44 82 24 18 -13 17 -16
-18 -64 -92 -126 -259 -195 -408 -171 -216 34 -347 218 -348 485 0 300 183
501 462 504 37 1 91 -4 120 -10z m900 -17 c131 -57 227 -230 216 -387 l-3 -50
-297 -3 c-275 -2 -298 -4 -298 -20 1 -47 22 -172 35 -213 20 -60 78 -127 129
-150 52 -23 146 -25 210 -3 31 11 71 38 112 76 63 60 64 60 89 44 24 -16 24
-18 11 -44 -42 -82 -151 -171 -240 -196 -175 -49 -332 -16 -425 90 -131 150
-162 446 -66 647 50 107 161 199 271 227 63 15 203 6 256 -18z m631 -96 c-1
-64 0 -116 2 -116 2 0 14 21 27 48 35 71 134 168 188 182 79 21 154 -6 174
-63 21 -57 -43 -167 -97 -167 -13 0 -41 14 -62 30 -49 39 -76 45 -113 26 -36
-18 -64 -56 -92 -121 -18 -43 -20 -68 -20 -297 l0 -250 29 -29 c27 -26 36 -29
95 -29 l66 0 0 -35 0 -35 -265 0 -265 0 0 35 c0 32 2 35 30 35 50 0 88 26 100
68 8 25 10 141 8 347 -3 278 -5 314 -21 338 -14 22 -25 27 -57 27 -37 0 -40 2
-40 28 0 28 1 29 143 64 78 19 149 34 157 33 12 -2 15 -22 13 -119z m-657
-1184 c81 -41 119 -114 89 -171 -22 -43 -56 -63 -102 -59 -34 3 -40 8 -56 43
-47 104 -51 110 -90 120 -45 11 -78 -3 -111 -48 -19 -25 -21 -45 -24 -183 l-3
-154 105 0 106 0 0 -40 0 -40 -105 0 -106 0 3 -375 c3 -435 -3 -410 106 -421
l62 -7 0 -33 0 -34 -255 0 -255 0 0 35 c0 31 3 35 25 35 38 0 92 25 104 48 7
14 11 144 11 386 l0 366 -70 0 -70 0 0 40 0 40 69 0 69 0 4 103 c6 126 30 195
95 267 25 28 68 62 94 76 90 45 223 48 305 6z m610 -7 c61 -36 91 -98 74 -151
-21 -62 -107 -96 -143 -56 -10 10 -24 39 -33 64 -20 59 -44 80 -93 82 -48 1
-86 -30 -101 -83 -5 -20 -10 -96 -10 -168 l0 -133 115 0 115 0 0 -40 0 -40
-115 0 -115 0 0 -369 c0 -369 0 -370 23 -396 16 -19 35 -27 75 -32 51 -6 52
-6 52 -39 l0 -34 -245 0 -245 0 0 35 c0 30 3 35 24 35 12 0 38 5 56 11 58 21
60 37 60 434 l0 355 -70 0 -70 0 0 40 0 40 69 0 69 0 4 108 c7 171 65 280 180
338 95 48 241 48 324 -1z m-2553 -46 c33 -6 87 -19 121 -30 l63 -19 6 -121
c12 -209 13 -199 -31 -199 -38 0 -38 0 -56 60 -27 90 -80 159 -150 195 -53 26
-70 30 -145 30 -110 0 -174 -22 -241 -82 -91 -81 -141 -198 -161 -378 -36
-304 79 -605 264 -690 63 -30 188 -34 258 -10 89 32 161 115 196 226 18 58 18
59 57 59 l39 0 -6 -37 c-3 -21 -12 -95 -19 -166 l-12 -127 -76 -24 c-463 -147
-812 6 -926 404 -26 90 -26 336 0 430 34 125 92 228 175 311 162 162 367 216
644 168z m868 -379 c181 -34 308 -174 345 -382 48 -265 -68 -502 -284 -580
-82 -30 -226 -30 -303 1 -85 33 -147 78 -194 143 -61 82 -86 161 -92 288 -8
177 36 310 137 411 107 108 238 147 391 119z m2190 -17 c94 -42 164 -127 200
-245 19 -60 27 -176 14 -197 -4 -8 -98 -11 -291 -11 l-284 0 0 -56 c0 -85 27
-188 64 -241 45 -65 100 -93 186 -93 95 0 148 21 224 91 59 54 67 59 85 47 29
-18 27 -28 -24 -96 -98 -130 -260 -192 -425 -162 -161 29 -264 142 -305 336
-52 246 36 497 210 600 97 56 253 68 346 27z m886 -2 c58 -26 130 -96 161
-158 28 -55 52 -151 52 -211 0 -89 24 -82 -298 -82 l-285 0 6 -88 c9 -147 60
-247 145 -284 37 -17 60 -20 122 -16 90 5 146 32 216 106 43 44 44 45 69 28
25 -17 26 -17 8 -48 -29 -50 -124 -143 -172 -167 -66 -34 -174 -54 -253 -46
-175 18 -290 135 -332 337 -51 248 37 503 209 603 99 59 251 69 352 26z"/>
<path d="M2562 6643 c-4 -26 -102 -270 -115 -287 -11 -15 -18 -16 -33 -8 -19
10 -20 5 -32 -141 -13 -163 -22 -188 -60 -168 -11 6 -23 11 -27 11 -13 0 20
-204 65 -406 33 -146 38 -215 16 -233 -27 -23 -69 15 -176 159 -35 47 -89 113
-119 148 -51 58 -56 62 -65 43 -5 -12 -12 -21 -16 -21 -4 0 -40 27 -80 61
-107 90 -150 116 -160 99 -11 -18 -57 2 -190 82 -52 32 -99 58 -103 58 -5 0
71 -84 170 -187 294 -310 398 -414 401 -405 6 19 -29 159 -51 204 -13 26 -20
45 -15 42 11 -7 59 -101 70 -139 4 -16 13 -61 18 -99 l10 -69 118 -113 117
-112 3 45 c2 25 -2 68 -8 96 -6 27 -8 52 -6 54 8 8 26 -69 37 -157 l11 -85
107 -110 106 -110 8 237 9 236 -45 74 c-52 86 -102 183 -111 218 -4 14 9 -4
29 -40 21 -35 56 -92 79 -125 l41 -60 3 186 2 186 -66 157 c-36 87 -64 159
-62 161 2 2 30 -48 63 -111 l60 -115 3 191 c2 190 -1 576 -6 553z"/>
<path d="M2600 6275 c0 -206 3 -375 8 -375 8 0 27 31 89 145 65 119 42 49 -33
-100 l-65 -130 2 -194 c2 -223 -8 -215 90 -71 28 41 53 77 56 80 12 11 -33
-71 -88 -160 l-58 -96 6 -236 6 -237 106 93 105 92 13 94 c19 138 30 161 25
50 l-4 -95 129 128 129 128 18 89 c17 84 70 219 82 207 3 -3 -2 -19 -11 -37
-15 -28 -58 -201 -51 -207 1 -1 86 86 187 195 266 283 369 395 365 399 -2 2
-59 -28 -127 -67 -128 -73 -146 -80 -155 -56 -4 11 -21 3 -67 -34 -34 -26 -80
-67 -102 -89 -45 -47 -70 -52 -82 -15 -9 26 -10 25 -83 -53 -41 -44 -109 -128
-150 -187 -79 -116 -107 -142 -140 -131 -30 9 -26 53 21 271 49 227 68 439 34
384 -3 -5 -15 -10 -25 -10 -20 0 -23 8 -40 135 -16 121 -20 134 -34 129 -18
-7 -66 97 -108 230 -18 58 -36 106 -40 106 -5 0 -8 -169 -8 -375z"/>
<path d="M1460 6009 c0 -3 22 -53 49 -110 56 -120 93 -233 80 -246 -11 -11 53
-109 122 -188 27 -31 49 -60 49 -64 0 -4 -10 -12 -21 -17 -20 -9 -14 -16 63
-81 46 -39 115 -91 154 -116 140 -92 144 -96 144 -122 0 -31 -20 -39 -110 -49
-69 -8 -166 -26 -238 -46 -37 -9 -42 -14 -31 -26 6 -8 10 -16 8 -18 -2 -2 -51
-23 -109 -46 -58 -23 -107 -44 -109 -46 -2 -2 135 -4 304 -4 l309 0 -72 50
c-67 48 -116 94 -62 59 14 -9 63 -38 110 -65 l85 -49 85 3 c139 3 251 14 248
23 -2 5 -51 62 -110 128 -98 109 -111 119 -150 125 -24 4 -61 16 -83 27 -22
10 -31 17 -20 13 11 -3 43 -8 70 -11 l50 -5 -123 124 c-121 122 -124 124 -185
137 -58 12 -150 50 -172 72 -5 6 15 -1 46 -15 49 -23 157 -51 165 -43 3 3 -49
61 -339 380 -99 108 -186 205 -193 215 -7 9 -14 14 -14 11z"/>
<path d="M3663 5953 c-28 -32 -150 -168 -271 -302 -122 -135 -221 -246 -219
-247 7 -6 146 20 170 32 16 9 31 13 33 11 11 -11 -93 -48 -161 -58 -69 -11
-78 -14 -112 -53 -20 -22 -76 -83 -125 -135 l-90 -94 71 6 c38 3 80 11 91 17
12 6 24 9 27 6 12 -11 -135 -55 -188 -56 -20 0 -51 -26 -134 -115 -59 -64
-105 -118 -102 -121 3 -3 84 -8 180 -11 l175 -6 94 60 c103 66 138 86 138 79
0 -3 -19 -18 -43 -35 -23 -16 -62 -45 -86 -65 l-43 -36 304 1 303 0 -55 25
c-30 14 -85 34 -122 45 -75 23 -88 34 -63 53 14 10 6 15 -57 29 -41 10 -116
22 -168 27 -51 6 -99 15 -106 21 -28 23 5 64 136 165 145 112 208 172 191 183
-10 7 3 32 61 112 104 146 120 173 107 186 -15 15 9 85 73 222 26 57 47 106
45 108 -2 2 -26 -23 -54 -54z"/>
<path d="M1580 4776 c47 -18 107 -40 133 -50 36 -14 45 -21 37 -30 -5 -7 -7
-16 -3 -19 3 -4 98 -7 210 -7 231 0 224 3 178 -84 l-25 -47 22 6 c43 12 188
84 236 117 54 37 152 127 152 139 0 5 -73 9 -163 9 -128 0 -167 -3 -184 -15
-35 -25 -192 -87 -163 -65 14 10 46 29 73 41 26 12 47 25 47 28 0 3 -143 7
-318 8 l-317 2 85 -33z"/>
<path d="M2650 4800 c0 -31 303 -230 390 -255 l25 -7 -21 23 c-32 36 -57 90
-46 101 5 5 50 5 114 -1 145 -14 313 4 302 33 -3 8 27 23 89 44 51 17 113 40
138 51 l44 21 -315 -1 -315 0 79 -40 c43 -22 76 -42 74 -45 -3 -2 -52 16 -109
41 l-104 45 -172 0 c-106 0 -173 -4 -173 -10z"/>
<path d="M4877 6550 c-63 -204 -127 -415 -127 -420 0 -3 77 -4 171 -2 156 3
170 4 164 20 -4 9 -45 129 -90 267 l-83 249 -35 -114z"/>
<path d="M6882 6453 c-61 -30 -111 -130 -125 -250 l-5 -43 200 0 201 0 -6 78
c-13 146 -81 232 -187 232 -25 0 -60 -8 -78 -17z"/>
<path d="M5850 4708 c-68 -46 -112 -143 -130 -285 -23 -176 17 -368 94 -451
54 -60 160 -81 222 -43 83 50 124 155 131 336 9 203 -35 360 -120 429 -31 25
-49 31 -100 34 -53 3 -67 0 -97 -20z"/>
<path d="M7980 4711 c-64 -34 -107 -118 -117 -228 l-6 -63 193 2 194 3 -3 60
c-4 111 -35 178 -100 222 -42 28 -111 30 -161 4z"/>
<path d="M8853 4710 c-55 -33 -96 -120 -109 -228 l-7 -62 193 0 193 0 -5 83
c-7 110 -42 177 -110 213 -39 20 -117 18 -155 -6z"/>
</g>
</svg>
