<svg xmlns="http://www.w3.org/2000/svg" xmlns:xlink="http://www.w3.org/1999/xlink" version="1.1" x="0px" y="0px" viewBox="0 0 90 112.5" enable-background="new 0 0 90 90" xml:space="preserve"><path d="M16.112,27.895c0,0-19.206,34.839,5.125,52.456c2.723,1.711,4.586-0.553,4.789-3.621  c0.201-3.067,3.895-21.867,21.027-38.446C64.186,21.702,65.23,10.451,60.84,5.655C56.344,0.742,32.885-2.691,16.112,27.895z"/><path d="M73.886,62.105c0,0,19.207-34.838-5.124-52.454c-2.725-1.713-4.588,0.551-4.789,3.621  c-0.201,3.066-3.893,21.866-21.028,38.445C25.813,68.297,24.771,79.551,29.158,84.347C33.655,89.258,57.112,92.692,73.886,62.105z"/><text x="0" y="105" fill="#000000" font-size="5px" font-weight="bold" font-family="'Helvetica Neue', Helvetica, Arial-Unicode, Arial, Sans-serif">Created by Alyssa</text><text x="0" y="110" fill="#000000" font-size="5px" font-weight="bold" font-family="'Helvetica Neue', Helvetica, Arial-Unicode, Arial, Sans-serif">from the Noun Project</text></svg>