<?xml version="1.0" standalone="no"?>
<!DOCTYPE svg PUBLIC "-//W3C//DTD SVG 20010904//EN"
 "http://www.w3.org/TR/2001/REC-SVG-20010904/DTD/svg10.dtd">
<svg version="1.0" xmlns="http://www.w3.org/2000/svg"
 width="740.000000pt" height="740.000000pt" viewBox="0 0 740.000000 740.000000"
 preserveAspectRatio="xMidYMid meet">

<g transform="translate(0.000000,740.000000) scale(0.100000,-0.100000)"
fill="#000000" stroke="none">
<path d="M2585 6086 c-320 -53 -631 -224 -905 -496 -180 -180 -319 -376 -446
-630 -285 -570 -390 -1165 -318 -1800 59 -524 216 -932 477 -1245 37 -44 66
-84 64 -89 -2 -6 -86 -26 -188 -46 -101 -20 -209 -45 -239 -55 -75 -24 -161
-68 -184 -94 -24 -26 -24 -66 0 -92 51 -57 307 -137 554 -173 330 -49 742 -70
1225 -63 398 6 535 15 800 47 396 49 661 126 705 203 15 26 15 26 -28 108 -1
3 107 9 240 13 804 23 1460 132 1813 301 311 150 238 299 -204 414 -58 15
-106 32 -108 37 -2 5 29 46 68 89 337 375 569 863 645 1354 25 161 23 404 -5
566 -54 310 -159 521 -353 712 -189 184 -417 297 -676 334 -120 17 -370 7
-506 -21 -245 -48 -523 -166 -746 -315 -62 -41 -116 -75 -121 -75 -5 0 -27 39
-49 86 -227 491 -604 821 -1050 919 -102 22 -361 28 -465 11z m245 -115 c0 -5
-33 -59 -74 -121 -180 -270 -291 -572 -327 -889 -15 -133 -6 -511 15 -641 15
-94 47 -238 105 -481 59 -243 65 -302 66 -589 0 -283 -7 -346 -61 -565 -54
-218 -156 -476 -270 -679 -83 -149 -242 -384 -264 -391 -13 -4 -54 11 -118 44
-425 219 -716 667 -836 1287 -38 197 -50 338 -50 584 0 241 9 342 50 570 80
444 275 886 542 1229 304 391 749 646 1135 650 48 1 87 -3 87 -8z m309 -46
c210 -71 374 -176 536 -347 266 -280 434 -660 512 -1158 25 -163 25 -640 0
-820 -49 -339 -135 -631 -268 -909 -154 -320 -334 -570 -543 -752 -333 -292
-712 -435 -1056 -400 -57 6 -109 16 -114 21 -6 6 10 30 45 67 196 207 399 517
512 783 133 315 190 595 191 930 0 279 -10 332 -158 897 -66 251 -80 367 -81
653 0 282 13 379 77 579 59 185 205 480 244 491 0 0 46 -16 103 -35z m2309
-556 c165 -18 306 -61 440 -134 79 -44 132 -83 132 -99 0 -6 -42 -24 -93 -40
-314 -97 -609 -276 -822 -498 -134 -139 -219 -262 -313 -448 -76 -152 -93
-196 -219 -598 -26 -85 -51 -154 -55 -155 -4 -1 -9 108 -12 243 -3 186 -9 276
-25 375 -38 230 -100 434 -197 643 -59 127 -100 268 -83 289 7 8 67 51 133 95
266 178 580 297 862 327 115 12 144 12 252 0z m734 -376 c109 -119 213 -353
254 -575 24 -125 24 -392 0 -545 -37 -245 -101 -444 -221 -688 -251 -512 -662
-932 -1154 -1180 -383 -192 -821 -236 -1143 -113 -16 6 -28 16 -28 22 0 7 22
37 48 67 131 147 242 317 313 479 27 60 57 107 104 161 104 118 188 242 259
379 86 166 134 293 206 540 100 344 154 487 246 652 79 141 162 249 283 368
125 123 253 217 405 296 115 60 360 164 387 164 8 0 27 -12 41 -27z"/>
<path d="M5610 2713 c-323 -299 -615 -480 -915 -568 -49 -14 -101 -32 -115
-38 -29 -15 -37 -41 -19 -63 43 -52 468 117 688 274 113 80 298 255 388 366
54 68 101 138 91 135 -2 0 -55 -48 -118 -106z"/>
</g>
</svg>
